NotoAmalgamated-BlackCondensed.ufo
<glyph name="quotedbl" format="2">
  <advance width="484"/>
  <unicode hex="0022"/>
  <note>
quotedbl
</note>
  <outline>
    <contour>
      <point x="213" y="714" type="line"/>
      <point x="39" y="714" type="line"/>
      <point x="59" y="456" type="line"/>
      <point x="193" y="456" type="line"/>
    </contour>
    <contour>
      <point x="445" y="714" type="line"/>
      <point x="271" y="714" type="line"/>
      <point x="291" y="456" type="line"/>
      <point x="425" y="456" type="line"/>
    </contour>
  </outline>
</glyph>
<glyph name="quotesingle" format="2">
  <advance width="252"/>
  <unicode hex="0027"/>
  <note>
quotesingle
</note>
  <outline>
    <contour>
      <point x="213" y="714" type="line"/>
      <point x="39" y="714" type="line"/>
      <point x="59" y="456" type="line"/>
      <point x="193" y="456" type="line"/>
    </contour>
  </outline>
</glyph>
<glyph name="hyphen" format="2">
  <advance width="325"/>
  <unicode hex="002D"/>
  <anchor x="163" y="0" name="bottom"/>
  <anchor x="296" y="0" name="bottomright"/>
  <anchor x="163" y="608" name="top"/>
  <anchor x="296" y="608" name="topright"/>
  <outline>
    <contour>
      <point x="29" y="192" type="line"/>
      <point x="296" y="192" type="line"/>
      <point x="296" y="344" type="line"/>
      <point x="29" y="344" type="line"/>
    </contour>
  </outline>
</glyph>
<glyph name="period" format="2">
  <advance width="273"/>
  <unicode hex="002E"/>
  <outline>
    <contour>
      <point x="45" y="81" type="curve" smooth="yes"/>
      <point x="45" y="22"/>
      <point x="81" y="-12"/>
      <point x="138" y="-12" type="curve" smooth="yes"/>
      <point x="195" y="-12"/>
      <point x="228" y="22"/>
      <point x="228" y="81" type="curve" smooth="yes"/>
      <point x="228" y="141"/>
      <point x="196" y="175"/>
      <point x="138" y="175" type="curve" smooth="yes"/>
      <point x="78" y="175"/>
      <point x="45" y="141"/>
    </contour>
  </outline>
</glyph>
<glyph name="bracketleft" format="2">
  <advance width="303"/>
  <unicode hex="005B"/>
  <note>
bracketleft
</note>
  <outline>
    <contour>
      <point x="286" y="-44" type="line"/>
      <point x="191" y="-44" type="line"/>
      <point x="191" y="610" type="line"/>
      <point x="286" y="610" type="line"/>
      <point x="286" y="734" type="line"/>
      <point x="41" y="734" type="line"/>
      <point x="41" y="-168" type="line"/>
      <point x="286" y="-168" type="line"/>
    </contour>
  </outline>
</glyph>
<glyph name="bracketright" format="2">
  <advance width="303"/>
  <unicode hex="005D"/>
  <note>
bracketright
</note>
  <outline>
    <contour>
      <point x="18" y="-168" type="line"/>
      <point x="262" y="-168" type="line"/>
      <point x="262" y="734" type="line"/>
      <point x="18" y="734" type="line"/>
      <point x="18" y="610" type="line"/>
      <point x="112" y="610" type="line"/>
      <point x="112" y="-44" type="line"/>
      <point x="18" y="-44" type="line"/>
    </contour>
  </outline>
</glyph>
<glyph name="multiply" format="2">
  <advance width="500"/>
  <unicode hex="00D7"/>
  <anchor x="248" y="0" name="bottom"/>
  <anchor x="418" y="0" name="bottomright"/>
  <anchor x="248" y="608" name="top"/>
  <anchor x="418" y="608" name="topright"/>
  <outline>
    <contour>
      <point x="372" y="566" type="line"/>
      <point x="248" y="446" type="line"/>
      <point x="125" y="566" type="line"/>
      <point x="37" y="474" type="line"/>
      <point x="157" y="353" type="line"/>
      <point x="38" y="232" type="line"/>
      <point x="125" y="141" type="line"/>
      <point x="248" y="262" type="line"/>
      <point x="372" y="140" type="line"/>
      <point x="462" y="230" type="line"/>
      <point x="340" y="353" type="line"/>
      <point x="464" y="477" type="line"/>
    </contour>
  </outline>
</glyph>
<glyph name="apostrophemod" format="2">
  <advance width="217"/>
  <unicode hex="02BC"/>
  <outline>
    <contour>
      <point x="187" y="550" type="curve"/>
      <point x="182" y="561" type="line"/>
      <point x="24" y="561" type="line"/>
      <point x="21" y="494"/>
      <point x="2" y="346"/>
      <point x="-12" y="276" type="curve"/>
      <point x="122" y="276" type="line"/>
      <point x="151" y="349"/>
      <point x="172" y="440"/>
    </contour>
  </outline>
</glyph>
<glyph name="minusmod" format="2">
  <advance width="325"/>
  <unicode hex="02D7"/>
  <outline>
    <contour>
      <point x="29" y="182" type="line"/>
      <point x="296" y="182" type="line"/>
      <point x="296" y="334" type="line"/>
      <point x="29" y="334" type="line"/>
    </contour>
  </outline>
</glyph>
<glyph name="tildecomb" format="2">
  <unicode hex="0303"/>
  <anchor x="223" y="561" name="_top"/>
  <anchor x="223" y="800" name="top"/>
  <outline>
    <contour>
      <point x="50" y="633" type="curve"/>
      <point x="134" y="633" type="line"/>
      <point x="137" y="669"/>
      <point x="152" y="681"/>
      <point x="163" y="681" type="curve" smooth="yes"/>
      <point x="196" y="681"/>
      <point x="254" y="634"/>
      <point x="306" y="634" type="curve" smooth="yes"/>
      <point x="357" y="634"/>
      <point x="397" y="692"/>
      <point x="397" y="801" type="curve"/>
      <point x="313" y="801" type="line"/>
      <point x="308" y="770"/>
      <point x="301" y="753"/>
      <point x="284" y="753" type="curve" smooth="yes"/>
      <point x="239" y="753"/>
      <point x="195" y="800"/>
      <point x="139" y="800" type="curve" smooth="yes"/>
      <point x="59" y="800"/>
      <point x="50" y="695"/>
    </contour>
  </outline>
</glyph>
<glyph name="doublemacroncomb" format="2">
  <unicode hex="035E"/>
  <outline>
    <contour>
      <point x="482" y="779" type="line"/>
      <point x="-489" y="779" type="line"/>
      <point x="-489" y="640" type="line"/>
      <point x="482" y="640" type="line"/>
    </contour>
  </outline>
</glyph>
<glyph name="koKai-thai" format="2">
  <advance width="538"/>
  <unicode hex="0E01"/>
  <note>
uni0E01
</note>
  <anchor x="267" y="0" name="bottom"/>
  <anchor x="486" y="0" name="bottomright"/>
  <anchor x="252" y="561" name="top"/>
  <anchor x="481" y="561" name="topright"/>
  <outline>
    <contour>
      <point x="257" y="576" type="curve" smooth="yes"/>
      <point x="123" y="576"/>
      <point x="30" y="502"/>
      <point x="30" y="379" type="curve" smooth="yes"/>
      <point x="30" y="325" type="line"/>
      <point x="182" y="256" type="line"/>
      <point x="174" y="296" type="line"/>
      <point x="103" y="296"/>
      <point x="47" y="251"/>
      <point x="47" y="159" type="curve" smooth="yes"/>
      <point x="47" y="0" type="line"/>
      <point x="203" y="0" type="line"/>
      <point x="203" y="167" type="line" smooth="yes"/>
      <point x="203" y="217"/>
      <point x="218" y="245"/>
      <point x="267" y="245" type="curve"/>
      <point x="274" y="339" type="line"/>
      <point x="115" y="418" type="line"/>
      <point x="173" y="344" type="line"/>
      <point x="173" y="398"/>
      <point x="190" y="437"/>
      <point x="253" y="437" type="curve" smooth="yes"/>
      <point x="308" y="437"/>
      <point x="330" y="397"/>
      <point x="330" y="338" type="curve" smooth="yes"/>
      <point x="330" y="0" type="line"/>
      <point x="486" y="0" type="line"/>
      <point x="486" y="373" type="line" smooth="yes"/>
      <point x="486" y="505"/>
      <point x="400" y="576"/>
    </contour>
    <contour>
      <point x="116" y="293" type="line"/>
      <point x="116" y="275" type="line"/>
      <point x="123" y="275" type="line"/>
      <point x="123" y="293" type="line"/>
    </contour>
  </outline>
</glyph>
<glyph name="khoKhai-thai" format="2">
  <advance width="523"/>
  <unicode hex="0E02"/>
  <note>
uni0E02
</note>
  <anchor x="265" y="0" name="bottom"/>
  <anchor x="466" y="0" name="bottomright"/>
  <anchor x="265" y="561" name="top"/>
  <anchor x="471" y="561" name="topright"/>
  <outline>
    <contour>
      <point x="266" y="-15" type="curve" smooth="yes"/>
      <point x="400" y="-15"/>
      <point x="471" y="51"/>
      <point x="471" y="181" type="curve" smooth="yes"/>
      <point x="471" y="561" type="line"/>
      <point x="315" y="561" type="line"/>
      <point x="315" y="203" type="line" smooth="yes"/>
      <point x="315" y="160"/>
      <point x="311" y="124"/>
      <point x="266" y="124" type="curve" smooth="yes"/>
      <point x="229" y="124"/>
      <point x="215" y="151"/>
      <point x="215" y="186" type="curve" smooth="yes"/>
      <point x="215" y="229" type="line" smooth="yes"/>
      <point x="215" y="312"/>
      <point x="261" y="339"/>
      <point x="261" y="438" type="curve" smooth="yes"/>
      <point x="261" y="526"/>
      <point x="211" y="571"/>
      <point x="142" y="571" type="curve" smooth="yes"/>
      <point x="72" y="571"/>
      <point x="33" y="523"/>
      <point x="33" y="464" type="curve" smooth="yes"/>
      <point x="33" y="400"/>
      <point x="72" y="358"/>
      <point x="126" y="358" type="curve" smooth="yes"/>
      <point x="186" y="358"/>
      <point x="233" y="397"/>
      <point x="233" y="464" type="curve"/>
      <point x="131" y="401" type="line"/>
      <point x="131" y="351"/>
      <point x="59" y="332"/>
      <point x="59" y="209" type="curve" smooth="yes"/>
      <point x="59" y="171" type="line" smooth="yes"/>
      <point x="59" y="44"/>
      <point x="138" y="-15"/>
    </contour>
    <contour>
      <point x="134" y="419" type="curve" smooth="yes"/>
      <point x="112" y="419"/>
      <point x="96" y="436"/>
      <point x="96" y="464" type="curve" smooth="yes"/>
      <point x="96" y="493"/>
      <point x="112" y="510"/>
      <point x="134" y="510" type="curve" smooth="yes"/>
      <point x="157" y="510"/>
      <point x="173" y="493"/>
      <point x="173" y="464" type="curve" smooth="yes"/>
      <point x="173" y="435"/>
      <point x="157" y="419"/>
    </contour>
  </outline>
</glyph>
<glyph name="khoKhuat-thai" format="2">
  <advance width="547"/>
  <unicode hex="0E03"/>
  <anchor x="287" y="0" name="bottom"/>
  <anchor x="490" y="0" name="bottomright"/>
  <anchor x="287" y="561" name="top"/>
  <anchor x="495" y="561" name="topright"/>
  <outline>
    <contour>
      <point x="285" y="-15" type="curve" smooth="yes"/>
      <point x="419" y="-15"/>
      <point x="495" y="51"/>
      <point x="495" y="181" type="curve" smooth="yes"/>
      <point x="495" y="561" type="line"/>
      <point x="339" y="561" type="line"/>
      <point x="339" y="202" type="line" smooth="yes"/>
      <point x="339" y="152"/>
      <point x="329" y="123"/>
      <point x="285" y="123" type="curve" smooth="yes"/>
      <point x="247" y="123"/>
      <point x="234" y="148"/>
      <point x="234" y="185" type="curve" smooth="yes"/>
      <point x="234" y="217" type="line" smooth="yes"/>
      <point x="234" y="300"/>
      <point x="304" y="335"/>
      <point x="304" y="447" type="curve" smooth="yes"/>
      <point x="304" y="486"/>
      <point x="301" y="523"/>
      <point x="295" y="561" type="curve"/>
      <point x="207" y="561" type="line"/>
      <point x="207" y="519"/>
      <point x="206" y="477"/>
      <point x="173" y="477" type="curve"/>
      <point x="193" y="448" type="line"/>
      <point x="196" y="456"/>
      <point x="197" y="463"/>
      <point x="197" y="471" type="curve" smooth="yes"/>
      <point x="197" y="526"/>
      <point x="161" y="571"/>
      <point x="104" y="571" type="curve" smooth="yes"/>
      <point x="47" y="571"/>
      <point x="9" y="529"/>
      <point x="9" y="467" type="curve" smooth="yes"/>
      <point x="9" y="400"/>
      <point x="54" y="364"/>
      <point x="111" y="364" type="curve" smooth="yes"/>
      <point x="156" y="364"/>
      <point x="189" y="406"/>
      <point x="189" y="440" type="curve"/>
      <point x="171" y="440" type="line"/>
      <point x="172" y="435"/>
      <point x="173" y="427"/>
      <point x="173" y="421" type="curve" smooth="yes"/>
      <point x="173" y="371"/>
      <point x="78" y="340"/>
      <point x="78" y="209" type="curve" smooth="yes"/>
      <point x="78" y="171" type="line" smooth="yes"/>
      <point x="78" y="44"/>
      <point x="157" y="-15"/>
    </contour>
    <contour>
      <point x="105" y="425" type="curve" smooth="yes"/>
      <point x="84" y="425"/>
      <point x="70" y="440"/>
      <point x="70" y="467" type="curve" smooth="yes"/>
      <point x="70" y="495"/>
      <point x="84" y="510"/>
      <point x="105" y="510" type="curve" smooth="yes"/>
      <point x="126" y="510"/>
      <point x="140" y="495"/>
      <point x="140" y="467" type="curve" smooth="yes"/>
      <point x="140" y="439"/>
      <point x="126" y="425"/>
    </contour>
  </outline>
</glyph>
<glyph name="khoKhwai-thai" format="2">
  <advance width="561"/>
  <unicode hex="0E04"/>
  <note>
uni0E04
</note>
  <anchor x="286" y="0" name="bottom"/>
  <anchor x="509" y="0" name="bottomright"/>
  <anchor x="271" y="561" name="top"/>
  <anchor x="504" y="561" name="topright"/>
  <outline>
    <contour>
      <point x="272" y="576" type="curve" smooth="yes"/>
      <point x="127" y="576"/>
      <point x="32" y="504"/>
      <point x="32" y="354" type="curve" smooth="yes"/>
      <point x="32" y="230"/>
      <point x="63" y="178"/>
      <point x="63" y="71" type="curve" smooth="yes"/>
      <point x="63" y="0" type="line"/>
      <point x="219" y="0" type="line"/>
      <point x="219" y="108" type="line" smooth="yes"/>
      <point x="219" y="147"/>
      <point x="224" y="167"/>
      <point x="244" y="194" type="curve"/>
      <point x="209" y="299" type="line"/>
      <point x="199" y="287"/>
      <point x="193" y="269"/>
      <point x="193" y="251" type="curve" smooth="yes"/>
      <point x="193" y="189"/>
      <point x="226" y="155"/>
      <point x="275" y="155" type="curve" smooth="yes"/>
      <point x="327" y="155"/>
      <point x="364" y="187"/>
      <point x="364" y="251" type="curve" smooth="yes"/>
      <point x="364" y="316"/>
      <point x="325" y="347"/>
      <point x="275" y="347" type="curve" smooth="yes"/>
      <point x="208" y="347"/>
      <point x="160" y="279"/>
      <point x="160" y="139" type="curve"/>
      <point x="205" y="139" type="line"/>
      <point x="205" y="211"/>
      <point x="188" y="240"/>
      <point x="188" y="334" type="curve" smooth="yes"/>
      <point x="188" y="403"/>
      <point x="213" y="437"/>
      <point x="269" y="437" type="curve" smooth="yes"/>
      <point x="333" y="437"/>
      <point x="353" y="393"/>
      <point x="353" y="333" type="curve" smooth="yes"/>
      <point x="353" y="0" type="line"/>
      <point x="509" y="0" type="line"/>
      <point x="509" y="368" type="line" smooth="yes"/>
      <point x="509" y="508"/>
      <point x="409" y="576"/>
    </contour>
    <contour>
      <point x="275" y="294" type="curve" smooth="yes"/>
      <point x="297" y="294"/>
      <point x="309" y="277"/>
      <point x="309" y="251" type="curve" smooth="yes"/>
      <point x="309" y="225"/>
      <point x="297" y="208"/>
      <point x="275" y="208" type="curve" smooth="yes"/>
      <point x="253" y="208"/>
      <point x="241" y="224"/>
      <point x="241" y="251" type="curve" smooth="yes"/>
      <point x="241" y="277"/>
      <point x="253" y="294"/>
    </contour>
    <contour>
      <point x="185" y="293" type="line"/>
      <point x="185" y="285" type="line"/>
      <point x="198" y="285" type="line"/>
      <point x="198" y="293" type="line"/>
    </contour>
  </outline>
</glyph>
<glyph name="khoKhon-thai" format="2">
  <advance width="581"/>
  <unicode hex="0E05"/>
  <anchor x="300" y="0" name="bottom"/>
  <anchor x="529" y="0" name="bottomright"/>
  <anchor x="285" y="561" name="top"/>
  <anchor x="523" y="561" name="topright"/>
  <outline>
    <contour>
      <point x="71" y="0" type="line"/>
      <point x="226" y="0" type="line"/>
      <point x="226" y="92" type="line" smooth="yes"/>
      <point x="226" y="131"/>
      <point x="237" y="164"/>
      <point x="260" y="187" type="curve"/>
      <point x="232" y="301" type="line"/>
      <point x="220" y="288"/>
      <point x="211" y="264"/>
      <point x="211" y="244" type="curve" smooth="yes"/>
      <point x="211" y="175"/>
      <point x="251" y="148"/>
      <point x="295" y="148" type="curve" smooth="yes"/>
      <point x="347" y="148"/>
      <point x="384" y="180"/>
      <point x="384" y="244" type="curve" smooth="yes"/>
      <point x="384" y="309"/>
      <point x="345" y="340"/>
      <point x="295" y="340" type="curve" smooth="yes"/>
      <point x="227" y="340"/>
      <point x="182" y="283"/>
      <point x="182" y="139" type="curve"/>
      <point x="216" y="139" type="line"/>
      <point x="216" y="211"/>
      <point x="196" y="228"/>
      <point x="196" y="322" type="curve" smooth="yes"/>
      <point x="196" y="387"/>
      <point x="206" y="431"/>
      <point x="235" y="431" type="curve"/>
      <point x="287" y="386" type="line"/>
      <point x="292" y="386" type="line"/>
      <point x="343" y="431" type="line"/>
      <point x="363" y="431"/>
      <point x="373" y="412"/>
      <point x="373" y="377" type="curve" smooth="yes"/>
      <point x="373" y="0" type="line"/>
      <point x="529" y="0" type="line"/>
      <point x="529" y="352" type="line" smooth="yes"/>
      <point x="529" y="499"/>
      <point x="451" y="571"/>
      <point x="360" y="571" type="curve"/>
      <point x="289" y="509" type="line"/>
      <point x="220" y="571" type="line"/>
      <point x="116" y="571"/>
      <point x="40" y="475"/>
      <point x="40" y="349" type="curve" smooth="yes"/>
      <point x="40" y="225"/>
      <point x="71" y="178"/>
      <point x="71" y="71" type="curve" smooth="yes"/>
    </contour>
    <contour>
      <point x="295" y="201" type="curve" smooth="yes"/>
      <point x="273" y="201"/>
      <point x="261" y="217"/>
      <point x="261" y="244" type="curve" smooth="yes"/>
      <point x="261" y="270"/>
      <point x="273" y="287"/>
      <point x="295" y="287" type="curve" smooth="yes"/>
      <point x="317" y="287"/>
      <point x="329" y="270"/>
      <point x="329" y="244" type="curve" smooth="yes"/>
      <point x="329" y="218"/>
      <point x="317" y="201"/>
    </contour>
    <contour>
      <point x="193" y="269" type="line"/>
      <point x="193" y="261" type="line"/>
      <point x="206" y="261" type="line"/>
      <point x="206" y="269" type="line"/>
    </contour>
  </outline>
</glyph>
<glyph name="khoRakhang-thai" format="2">
  <advance width="576"/>
  <unicode hex="0E06"/>
  <anchor x="286" y="0" name="bottom"/>
  <anchor x="524" y="0" name="bottomright"/>
  <anchor x="317" y="561" name="top"/>
  <anchor x="524" y="561" name="topright"/>
  <outline>
    <contour>
      <point x="151" y="-10" type="curve" smooth="yes"/>
      <point x="238" y="-10"/>
      <point x="279" y="54"/>
      <point x="279" y="123" type="curve" smooth="yes"/>
      <point x="279" y="130"/>
      <point x="278" y="139"/>
      <point x="277" y="146" type="curve"/>
      <point x="235" y="116" type="line"/>
      <point x="297" y="96"/>
      <point x="333" y="71"/>
      <point x="372" y="0" type="curve"/>
      <point x="524" y="0" type="line"/>
      <point x="524" y="561" type="line"/>
      <point x="368" y="561" type="line"/>
      <point x="368" y="108" type="line"/>
      <point x="403" y="139" type="line"/>
      <point x="347" y="206"/>
      <point x="298" y="243"/>
      <point x="216" y="251" type="curve"/>
      <point x="272" y="172" type="line"/>
      <point x="272" y="203"/>
      <point x="265" y="229"/>
      <point x="265" y="256" type="curve" smooth="yes"/>
      <point x="265" y="313"/>
      <point x="321" y="359"/>
      <point x="321" y="447" type="curve" smooth="yes"/>
      <point x="321" y="486"/>
      <point x="318" y="523"/>
      <point x="312" y="561" type="curve"/>
      <point x="222" y="561" type="line"/>
      <point x="222" y="519"/>
      <point x="221" y="477"/>
      <point x="188" y="477" type="curve"/>
      <point x="208" y="448" type="line"/>
      <point x="211" y="456"/>
      <point x="212" y="463"/>
      <point x="212" y="471" type="curve" smooth="yes"/>
      <point x="212" y="526"/>
      <point x="176" y="571"/>
      <point x="119" y="571" type="curve" smooth="yes"/>
      <point x="62" y="571"/>
      <point x="24" y="529"/>
      <point x="24" y="467" type="curve" smooth="yes"/>
      <point x="24" y="400"/>
      <point x="69" y="364"/>
      <point x="126" y="364" type="curve" smooth="yes"/>
      <point x="171" y="364"/>
      <point x="204" y="406"/>
      <point x="204" y="440" type="curve"/>
      <point x="186" y="440" type="line"/>
      <point x="187" y="437"/>
      <point x="188" y="427"/>
      <point x="188" y="421" type="curve" smooth="yes"/>
      <point x="188" y="380"/>
      <point x="109" y="343"/>
      <point x="109" y="258" type="curve" smooth="yes"/>
      <point x="109" y="242"/>
      <point x="115" y="218"/>
      <point x="127" y="203" type="curve"/>
      <point x="161" y="243" type="line"/>
      <point x="155" y="244"/>
      <point x="150" y="244"/>
      <point x="144" y="244" type="curve" smooth="yes"/>
      <point x="74" y="244"/>
      <point x="34" y="185"/>
      <point x="34" y="118" type="curve" smooth="yes"/>
      <point x="34" y="41"/>
      <point x="75" y="-10"/>
    </contour>
    <contour>
      <point x="139" y="64" type="curve" smooth="yes"/>
      <point x="115" y="64"/>
      <point x="104" y="85"/>
      <point x="104" y="118" type="curve" smooth="yes"/>
      <point x="104" y="151"/>
      <point x="116" y="170"/>
      <point x="143" y="170" type="curve" smooth="yes"/>
      <point x="148" y="170"/>
      <point x="156" y="170"/>
      <point x="167" y="168" type="curve"/>
      <point x="171" y="151"/>
      <point x="171" y="134"/>
      <point x="171" y="118" type="curve" smooth="yes"/>
      <point x="171" y="84"/>
      <point x="162" y="64"/>
    </contour>
    <contour>
      <point x="120" y="425" type="curve" smooth="yes"/>
      <point x="99" y="425"/>
      <point x="85" y="440"/>
      <point x="85" y="467" type="curve" smooth="yes"/>
      <point x="85" y="495"/>
      <point x="99" y="510"/>
      <point x="120" y="510" type="curve" smooth="yes"/>
      <point x="141" y="510"/>
      <point x="155" y="495"/>
      <point x="155" y="467" type="curve" smooth="yes"/>
      <point x="155" y="439"/>
      <point x="141" y="425"/>
    </contour>
  </outline>
</glyph>
<glyph name="ngoNgu-thai" format="2">
  <advance width="487"/>
  <unicode hex="0E07"/>
  <note>
uni0E07
</note>
  <anchor x="215" y="0" name="bottom"/>
  <anchor x="431" y="0" name="bottomright"/>
  <anchor x="237" y="561" name="top"/>
  <anchor x="431" y="561" name="topright"/>
  <outline>
    <contour>
      <point x="434" y="160" type="curve" smooth="yes"/>
      <point x="434" y="417" type="line" smooth="yes"/>
      <point x="434" y="525"/>
      <point x="384" y="571"/>
      <point x="315" y="571" type="curve" smooth="yes"/>
      <point x="245" y="571"/>
      <point x="205" y="523"/>
      <point x="205" y="464" type="curve" smooth="yes"/>
      <point x="205" y="406"/>
      <point x="240" y="357"/>
      <point x="294" y="357" type="curve" smooth="yes"/>
      <point x="361" y="357"/>
      <point x="403" y="388"/>
      <point x="403" y="464" type="curve"/>
      <point x="382" y="464" type="line"/>
      <point x="382" y="408"/>
      <point x="340" y="374"/>
      <point x="278" y="374" type="curve"/>
      <point x="278" y="177" type="line" smooth="yes"/>
      <point x="278" y="143"/>
      <point x="272" y="138"/>
      <point x="252" y="138" type="curve" smooth="yes"/>
      <point x="168" y="138" type="line"/>
      <point x="246" y="101" type="line"/>
      <point x="225" y="232"/>
      <point x="193" y="333"/>
      <point x="143" y="438" type="curve"/>
      <point x="7" y="370" type="line"/>
      <point x="59" y="257"/>
      <point x="99" y="131"/>
      <point x="124" y="0" type="curve"/>
      <point x="308" y="0" type="line" smooth="yes"/>
      <point x="382" y="0"/>
      <point x="434" y="64"/>
    </contour>
    <contour>
      <point x="307" y="418" type="curve" smooth="yes"/>
      <point x="282" y="418"/>
      <point x="268" y="435"/>
      <point x="268" y="464" type="curve" smooth="yes"/>
      <point x="268" y="493"/>
      <point x="282" y="510"/>
      <point x="307" y="510" type="curve" smooth="yes"/>
      <point x="332" y="510"/>
      <point x="346" y="493"/>
      <point x="346" y="464" type="curve" smooth="yes"/>
      <point x="346" y="434"/>
      <point x="332" y="418"/>
    </contour>
  </outline>
</glyph>
<glyph name="choChan-thai" format="2">
  <advance width="484"/>
  <unicode hex="0E08"/>
  <anchor x="220" y="0" name="bottom"/>
  <anchor x="436" y="0" name="bottomright"/>
  <anchor x="220" y="561" name="top"/>
  <anchor x="446" y="561" name="topright"/>
  <outline>
    <contour>
      <point x="95" y="0" type="line"/>
      <point x="269" y="0" type="line" smooth="yes"/>
      <point x="407" y="0"/>
      <point x="456" y="127"/>
      <point x="456" y="282" type="curve" smooth="yes"/>
      <point x="456" y="456"/>
      <point x="389" y="576"/>
      <point x="213" y="576" type="curve" smooth="yes"/>
      <point x="137" y="576"/>
      <point x="74" y="560"/>
      <point x="14" y="534" type="curve"/>
      <point x="59" y="404" type="line"/>
      <point x="102" y="425"/>
      <point x="140" y="438"/>
      <point x="186" y="438" type="curve" smooth="yes"/>
      <point x="263" y="438"/>
      <point x="300" y="389"/>
      <point x="300" y="282" type="curve" smooth="yes"/>
      <point x="300" y="173"/>
      <point x="284" y="138"/>
      <point x="257" y="138" type="curve" smooth="yes"/>
      <point x="226" y="138" type="line"/>
      <point x="250" y="98" type="line"/>
      <point x="250" y="218" type="line" smooth="yes"/>
      <point x="250" y="325"/>
      <point x="202" y="372"/>
      <point x="133" y="372" type="curve" smooth="yes"/>
      <point x="63" y="372"/>
      <point x="23" y="323"/>
      <point x="23" y="265" type="curve" smooth="yes"/>
      <point x="23" y="208"/>
      <point x="58" y="158"/>
      <point x="112" y="158" type="curve" smooth="yes"/>
      <point x="179" y="158"/>
      <point x="221" y="189"/>
      <point x="221" y="265" type="curve"/>
      <point x="200" y="265" type="line"/>
      <point x="200" y="209"/>
      <point x="157" y="175"/>
      <point x="95" y="175" type="curve"/>
    </contour>
    <contour>
      <point x="125" y="219" type="curve" smooth="yes"/>
      <point x="100" y="219"/>
      <point x="86" y="237"/>
      <point x="86" y="265" type="curve" smooth="yes"/>
      <point x="86" y="293"/>
      <point x="100" y="311"/>
      <point x="125" y="311" type="curve" smooth="yes"/>
      <point x="150" y="311"/>
      <point x="164" y="293"/>
      <point x="164" y="265" type="curve" smooth="yes"/>
      <point x="164" y="236"/>
      <point x="150" y="219"/>
    </contour>
  </outline>
</glyph>
<glyph name="choChing-thai" format="2">
  <advance width="527"/>
  <unicode hex="0E09"/>
  <anchor x="279" y="0" name="bottom"/>
  <anchor x="490" y="0" name="bottomright"/>
  <anchor x="252" y="561" name="top"/>
  <anchor x="461" y="561" name="topright"/>
  <outline>
    <contour>
      <point x="240" y="185" type="line"/>
      <point x="240" y="178" type="line"/>
      <point x="256" y="178" type="line"/>
      <point x="256" y="185" type="line"/>
    </contour>
    <contour>
      <point x="248" y="98" type="line"/>
      <point x="248" y="216" type="line" smooth="yes"/>
      <point x="248" y="324"/>
      <point x="198" y="370"/>
      <point x="129" y="370" type="curve" smooth="yes"/>
      <point x="59" y="370"/>
      <point x="19" y="322"/>
      <point x="19" y="263" type="curve" smooth="yes"/>
      <point x="19" y="205"/>
      <point x="54" y="156"/>
      <point x="108" y="156" type="curve" smooth="yes"/>
      <point x="175" y="156"/>
      <point x="217" y="187"/>
      <point x="217" y="263" type="curve"/>
      <point x="196" y="263" type="line"/>
      <point x="196" y="207"/>
      <point x="154" y="173"/>
      <point x="92" y="173" type="curve"/>
      <point x="92" y="0" type="line"/>
      <point x="238" y="0" type="line"/>
      <point x="254" y="53"/>
      <point x="292" y="90"/>
      <point x="335" y="90" type="curve"/>
      <point x="298" y="139" type="line"/>
      <point x="295" y="127"/>
      <point x="294" y="116"/>
      <point x="294" y="105" type="curve" smooth="yes"/>
      <point x="294" y="33"/>
      <point x="346" y="-10"/>
      <point x="402" y="-10" type="curve" smooth="yes"/>
      <point x="464" y="-10"/>
      <point x="510" y="40"/>
      <point x="510" y="111" type="curve" smooth="yes"/>
      <point x="510" y="176"/>
      <point x="475" y="230"/>
      <point x="405" y="230" type="curve"/>
      <point x="418" y="203" type="line"/>
      <point x="466" y="214"/>
      <point x="466" y="255"/>
      <point x="466" y="293" type="curve" smooth="yes"/>
      <point x="466" y="376" type="line" smooth="yes"/>
      <point x="466" y="501"/>
      <point x="386" y="576"/>
      <point x="237" y="576" type="curve" smooth="yes"/>
      <point x="155" y="576"/>
      <point x="89" y="555"/>
      <point x="37" y="529" type="curve"/>
      <point x="80" y="403" type="line"/>
      <point x="122" y="424"/>
      <point x="161" y="440"/>
      <point x="213" y="440" type="curve" smooth="yes"/>
      <point x="276" y="440"/>
      <point x="310" y="413"/>
      <point x="310" y="341" type="curve" smooth="yes"/>
      <point x="310" y="254" type="line" smooth="yes"/>
      <point x="310" y="235"/>
      <point x="305" y="228"/>
      <point x="290" y="218" type="curve" smooth="yes"/>
      <point x="264" y="200"/>
      <point x="229" y="171"/>
      <point x="203" y="122" type="curve"/>
    </contour>
    <contour>
      <point x="121" y="217" type="curve" smooth="yes"/>
      <point x="96" y="217"/>
      <point x="82" y="234"/>
      <point x="82" y="263" type="curve" smooth="yes"/>
      <point x="82" y="292"/>
      <point x="96" y="309"/>
      <point x="121" y="309" type="curve" smooth="yes"/>
      <point x="146" y="309"/>
      <point x="160" y="292"/>
      <point x="160" y="263" type="curve" smooth="yes"/>
      <point x="160" y="233"/>
      <point x="146" y="217"/>
    </contour>
    <contour>
      <point x="401" y="54" type="curve" smooth="yes"/>
      <point x="377" y="54"/>
      <point x="362" y="72"/>
      <point x="362" y="104" type="curve" smooth="yes"/>
      <point x="362" y="120"/>
      <point x="365" y="133"/>
      <point x="371" y="146" type="curve"/>
      <point x="380" y="153"/>
      <point x="390" y="155"/>
      <point x="400" y="155" type="curve" smooth="yes"/>
      <point x="427" y="155"/>
      <point x="440" y="136"/>
      <point x="440" y="104" type="curve" smooth="yes"/>
      <point x="440" y="71"/>
      <point x="425" y="54"/>
    </contour>
  </outline>
</glyph>
<glyph name="choChang-thai" format="2">
  <advance width="530"/>
  <unicode hex="0E0A"/>
  <anchor x="271" y="0" name="bottom"/>
  <anchor x="478" y="0" name="bottomright"/>
  <anchor x="271" y="561" name="top"/>
  <anchor x="484" y="561" name="topright"/>
  <outline>
    <contour>
      <point x="272" y="-15" type="curve" smooth="yes"/>
      <point x="407" y="-15"/>
      <point x="483" y="52"/>
      <point x="483" y="182" type="curve" smooth="yes"/>
      <point x="483" y="271" type="line" smooth="yes"/>
      <point x="483" y="331"/>
      <point x="454" y="398"/>
      <point x="403" y="398" type="curve"/>
      <point x="403" y="383" type="line"/>
      <point x="463" y="383"/>
      <point x="479" y="427"/>
      <point x="479" y="485" type="curve" smooth="yes"/>
      <point x="479" y="561" type="line"/>
      <point x="329" y="561" type="line"/>
      <point x="329" y="488" type="line" smooth="yes"/>
      <point x="329" y="459"/>
      <point x="327" y="444"/>
      <point x="291" y="444" type="curve"/>
      <point x="291" y="334" type="line"/>
      <point x="318" y="334"/>
      <point x="327" y="320"/>
      <point x="327" y="291" type="curve" smooth="yes"/>
      <point x="327" y="198" type="line" smooth="yes"/>
      <point x="327" y="148"/>
      <point x="315" y="123"/>
      <point x="272" y="123" type="curve" smooth="yes"/>
      <point x="234" y="123"/>
      <point x="215" y="145"/>
      <point x="215" y="182" type="curve" smooth="yes"/>
      <point x="215" y="232" type="line" smooth="yes"/>
      <point x="215" y="315"/>
      <point x="261" y="339"/>
      <point x="261" y="438" type="curve" smooth="yes"/>
      <point x="261" y="526"/>
      <point x="211" y="571"/>
      <point x="142" y="571" type="curve" smooth="yes"/>
      <point x="72" y="571"/>
      <point x="33" y="523"/>
      <point x="33" y="464" type="curve" smooth="yes"/>
      <point x="33" y="400"/>
      <point x="72" y="358"/>
      <point x="126" y="358" type="curve" smooth="yes"/>
      <point x="186" y="358"/>
      <point x="233" y="397"/>
      <point x="233" y="464" type="curve"/>
      <point x="131" y="401" type="line"/>
      <point x="131" y="351"/>
      <point x="59" y="335"/>
      <point x="59" y="212" type="curve" smooth="yes"/>
      <point x="59" y="172" type="line" smooth="yes"/>
      <point x="59" y="45"/>
      <point x="144" y="-15"/>
    </contour>
    <contour>
      <point x="134" y="419" type="curve" smooth="yes"/>
      <point x="112" y="419"/>
      <point x="96" y="436"/>
      <point x="96" y="464" type="curve" smooth="yes"/>
      <point x="96" y="493"/>
      <point x="112" y="510"/>
      <point x="134" y="510" type="curve" smooth="yes"/>
      <point x="157" y="510"/>
      <point x="173" y="493"/>
      <point x="173" y="464" type="curve" smooth="yes"/>
      <point x="173" y="435"/>
      <point x="157" y="419"/>
    </contour>
    <contour>
      <point x="429" y="396" type="line"/>
      <point x="429" y="379" type="line"/>
      <point x="436" y="379" type="line"/>
      <point x="436" y="396" type="line"/>
    </contour>
  </outline>
</glyph>
<glyph name="soSo-thai" format="2">
  <advance width="557"/>
  <unicode hex="0E0B"/>
  <note>
uni0E0B
</note>
  <anchor x="294" y="0" name="bottom"/>
  <anchor x="505" y="0" name="bottomright"/>
  <anchor x="294" y="561" name="top"/>
  <anchor x="511" y="561" name="topright"/>
  <outline>
    <contour>
      <point x="295" y="-15" type="curve" smooth="yes"/>
      <point x="435" y="-15"/>
      <point x="510" y="60"/>
      <point x="510" y="190" type="curve" smooth="yes"/>
      <point x="510" y="271" type="line" smooth="yes"/>
      <point x="510" y="331"/>
      <point x="481" y="398"/>
      <point x="430" y="398" type="curve"/>
      <point x="430" y="383" type="line"/>
      <point x="490" y="383"/>
      <point x="506" y="427"/>
      <point x="506" y="485" type="curve" smooth="yes"/>
      <point x="506" y="561" type="line"/>
      <point x="356" y="561" type="line"/>
      <point x="356" y="488" type="line" smooth="yes"/>
      <point x="356" y="457"/>
      <point x="351" y="444"/>
      <point x="320" y="444" type="curve"/>
      <point x="320" y="334" type="line"/>
      <point x="344" y="334"/>
      <point x="354" y="320"/>
      <point x="354" y="291" type="curve" smooth="yes"/>
      <point x="354" y="190" type="line" smooth="yes"/>
      <point x="354" y="150"/>
      <point x="337" y="122"/>
      <point x="296" y="122" type="curve" smooth="yes"/>
      <point x="255" y="122"/>
      <point x="234" y="153"/>
      <point x="234" y="190" type="curve" smooth="yes"/>
      <point x="234" y="217" type="line" smooth="yes"/>
      <point x="234" y="300"/>
      <point x="301" y="335"/>
      <point x="301" y="447" type="curve" smooth="yes"/>
      <point x="301" y="486"/>
      <point x="298" y="523"/>
      <point x="292" y="561" type="curve"/>
      <point x="204" y="561" type="line"/>
      <point x="204" y="519"/>
      <point x="203" y="477"/>
      <point x="170" y="477" type="curve"/>
      <point x="190" y="448" type="line"/>
      <point x="193" y="456"/>
      <point x="194" y="463"/>
      <point x="194" y="471" type="curve" smooth="yes"/>
      <point x="194" y="526"/>
      <point x="158" y="571"/>
      <point x="101" y="571" type="curve" smooth="yes"/>
      <point x="44" y="571"/>
      <point x="6" y="529"/>
      <point x="6" y="467" type="curve" smooth="yes"/>
      <point x="6" y="400"/>
      <point x="51" y="364"/>
      <point x="108" y="364" type="curve" smooth="yes"/>
      <point x="153" y="364"/>
      <point x="186" y="406"/>
      <point x="186" y="440" type="curve"/>
      <point x="168" y="440" type="line"/>
      <point x="169" y="437"/>
      <point x="170" y="427"/>
      <point x="170" y="421" type="curve" smooth="yes"/>
      <point x="170" y="371"/>
      <point x="78" y="340"/>
      <point x="78" y="209" type="curve" smooth="yes"/>
      <point x="78" y="180" type="line" smooth="yes"/>
      <point x="78" y="53"/>
      <point x="163" y="-15"/>
    </contour>
    <contour>
      <point x="102" y="425" type="curve" smooth="yes"/>
      <point x="81" y="425"/>
      <point x="67" y="440"/>
      <point x="67" y="467" type="curve" smooth="yes"/>
      <point x="67" y="495"/>
      <point x="81" y="510"/>
      <point x="102" y="510" type="curve" smooth="yes"/>
      <point x="123" y="510"/>
      <point x="137" y="495"/>
      <point x="137" y="467" type="curve" smooth="yes"/>
      <point x="137" y="439"/>
      <point x="123" y="425"/>
    </contour>
    <contour>
      <point x="457" y="397" type="line"/>
      <point x="457" y="380" type="line"/>
      <point x="464" y="380" type="line"/>
      <point x="464" y="397" type="line"/>
    </contour>
  </outline>
</glyph>
<glyph name="choChoe-thai" format="2">
  <advance width="769"/>
  <unicode hex="0E0C"/>
  <anchor x="375" y="0" name="bottom"/>
  <anchor x="717" y="0" name="bottomright"/>
  <anchor x="370" y="561" name="top"/>
  <anchor x="717" y="561" name="topright"/>
  <outline>
    <contour>
      <point x="158" y="-10" type="curve" smooth="yes"/>
      <point x="228" y="-10"/>
      <point x="266" y="38"/>
      <point x="266" y="97" type="curve" smooth="yes"/>
      <point x="266" y="154"/>
      <point x="233" y="203"/>
      <point x="179" y="203" type="curve" smooth="yes"/>
      <point x="112" y="203"/>
      <point x="72" y="173"/>
      <point x="72" y="97" type="curve"/>
      <point x="93" y="97" type="line"/>
      <point x="93" y="153"/>
      <point x="135" y="187"/>
      <point x="197" y="187" type="curve"/>
      <point x="197" y="191" type="line" smooth="yes"/>
      <point x="197" y="228"/>
      <point x="208" y="252"/>
      <point x="261" y="252" type="curve"/>
      <point x="267" y="345" type="line"/>
      <point x="108" y="423" type="line"/>
      <point x="167" y="360" type="line"/>
      <point x="167" y="395"/>
      <point x="186" y="437"/>
      <point x="253" y="437" type="curve" smooth="yes"/>
      <point x="321" y="437"/>
      <point x="343" y="397"/>
      <point x="343" y="338" type="curve" smooth="yes"/>
      <point x="343" y="294" type="line" smooth="yes"/>
      <point x="343" y="253"/>
      <point x="346" y="222"/>
      <point x="358" y="195" type="curve"/>
      <point x="415" y="227" type="line"/>
      <point x="408" y="234"/>
      <point x="397" y="240"/>
      <point x="384" y="240" type="curve" smooth="yes"/>
      <point x="318" y="240"/>
      <point x="285" y="186"/>
      <point x="285" y="116" type="curve" smooth="yes"/>
      <point x="285" y="36"/>
      <point x="324" y="-10"/>
      <point x="392" y="-10" type="curve" smooth="yes"/>
      <point x="468" y="-10"/>
      <point x="504" y="54"/>
      <point x="504" y="121" type="curve" smooth="yes"/>
      <point x="504" y="138"/>
      <point x="502" y="153"/>
      <point x="495" y="167" type="curve"/>
      <point x="468" y="104" type="line"/>
      <point x="504" y="86"/>
      <point x="534" y="60"/>
      <point x="568" y="0" type="curve"/>
      <point x="717" y="0" type="line"/>
      <point x="717" y="561" type="line"/>
      <point x="561" y="561" type="line"/>
      <point x="561" y="115" type="line"/>
      <point x="594" y="144" type="line"/>
      <point x="553" y="202"/>
      <point x="514" y="237"/>
      <point x="450" y="250" type="curve"/>
      <point x="501" y="187" type="line"/>
      <point x="501" y="217"/>
      <point x="495" y="234"/>
      <point x="495" y="280" type="curve" smooth="yes"/>
      <point x="495" y="373" type="line" smooth="yes"/>
      <point x="495" y="505"/>
      <point x="421" y="576"/>
      <point x="256" y="576" type="curve" smooth="yes"/>
      <point x="121" y="576"/>
      <point x="23" y="503"/>
      <point x="23" y="383" type="curve" smooth="yes"/>
      <point x="23" y="333" type="line"/>
      <point x="175" y="264" type="line"/>
      <point x="164" y="300" type="line"/>
      <point x="88" y="300"/>
      <point x="41" y="265"/>
      <point x="41" y="182" type="curve" smooth="yes"/>
      <point x="41" y="144" type="line" smooth="yes"/>
      <point x="41" y="36"/>
      <point x="89" y="-10"/>
    </contour>
    <contour>
      <point x="166" y="51" type="curve" smooth="yes"/>
      <point x="141" y="51"/>
      <point x="129" y="68"/>
      <point x="129" y="97" type="curve" smooth="yes"/>
      <point x="129" y="126"/>
      <point x="141" y="142"/>
      <point x="166" y="142" type="curve" smooth="yes"/>
      <point x="191" y="142"/>
      <point x="203" y="125"/>
      <point x="203" y="97" type="curve" smooth="yes"/>
      <point x="203" y="68"/>
      <point x="191" y="51"/>
    </contour>
    <contour>
      <point x="389" y="62" type="curve" smooth="yes"/>
      <point x="370" y="62"/>
      <point x="358" y="80"/>
      <point x="358" y="116" type="curve" smooth="yes"/>
      <point x="358" y="149"/>
      <point x="370" y="168"/>
      <point x="393" y="168" type="curve" smooth="yes"/>
      <point x="403" y="168"/>
      <point x="410" y="167"/>
      <point x="415" y="164" type="curve"/>
      <point x="417" y="147"/>
      <point x="418" y="133"/>
      <point x="418" y="116" type="curve" smooth="yes"/>
      <point x="418" y="79"/>
      <point x="409" y="62"/>
    </contour>
    <contour>
      <point x="109" y="301" type="line"/>
      <point x="109" y="283" type="line"/>
      <point x="116" y="283" type="line"/>
      <point x="116" y="301" type="line"/>
    </contour>
  </outline>
</glyph>
<glyph name="yoYing-thai" format="2">
  <advance width="768"/>
  <unicode hex="0E0D"/>
  <anchor x="357" y="-265" name="bottom"/>
  <anchor x="713" y="-265" name="bottomright"/>
  <outline>
    <contour>
      <point x="498" y="-265" type="curve" smooth="yes"/>
      <point x="593" y="-265"/>
      <point x="680" y="-216"/>
      <point x="725" y="-122" type="curve"/>
      <point x="627" y="-45" type="line"/>
      <point x="602" y="-111"/>
      <point x="568" y="-157"/>
      <point x="525" y="-157" type="curve" smooth="yes"/>
      <point x="506" y="-157"/>
      <point x="485" y="-155"/>
      <point x="476" y="-152" type="curve"/>
      <point x="496" y="-200" type="line"/>
      <point x="514" y="-186"/>
      <point x="525" y="-163"/>
      <point x="525" y="-132" type="curve" smooth="yes"/>
      <point x="525" y="-75"/>
      <point x="488" y="-33"/>
      <point x="429" y="-33" type="curve" smooth="yes"/>
      <point x="363" y="-33"/>
      <point x="329" y="-78"/>
      <point x="329" y="-135" type="curve" smooth="yes"/>
      <point x="329" y="-220"/>
      <point x="398" y="-265"/>
    </contour>
    <contour>
      <point x="428" y="-169" type="curve" smooth="yes"/>
      <point x="408" y="-169"/>
      <point x="395" y="-154"/>
      <point x="395" y="-131" type="curve" smooth="yes"/>
      <point x="395" y="-107"/>
      <point x="408" y="-91"/>
      <point x="428" y="-91" type="curve" smooth="yes"/>
      <point x="450" y="-91"/>
      <point x="462" y="-106"/>
      <point x="462" y="-131" type="curve" smooth="yes"/>
      <point x="462" y="-154"/>
      <point x="450" y="-169"/>
    </contour>
    <component base="yoYing-thai.less"/>
  </outline>
</glyph>
<glyph name="doChada-thai" format="2">
  <advance width="558"/>
  <unicode hex="0E0E"/>
  <anchor x="260" y="-280" name="bottom"/>
  <anchor x="506" y="-270" name="bottomright"/>
  <anchor x="281" y="561" name="top"/>
  <anchor x="499" y="561" name="topright"/>
  <outline>
    <contour>
      <point x="193" y="-280" type="curve" smooth="yes"/>
      <point x="267" y="-280"/>
      <point x="307" y="-219"/>
      <point x="307" y="-156" type="curve" smooth="yes"/>
      <point x="307" y="-139"/>
      <point x="305" y="-125"/>
      <point x="300" y="-109" type="curve"/>
      <point x="252" y="-188" type="line"/>
      <point x="297" y="-197"/>
      <point x="339" y="-228"/>
      <point x="368" y="-270" type="curve"/>
      <point x="506" y="-270" type="line"/>
      <point x="506" y="373" type="line" smooth="yes"/>
      <point x="506" y="505"/>
      <point x="419" y="576"/>
      <point x="275" y="576" type="curve" smooth="yes"/>
      <point x="143" y="576"/>
      <point x="56" y="499"/>
      <point x="56" y="385" type="curve" smooth="yes"/>
      <point x="56" y="336" type="line"/>
      <point x="208" y="265" type="line"/>
      <point x="193" y="303" type="line"/>
      <point x="135" y="303"/>
      <point x="87" y="275"/>
      <point x="87" y="205" type="curve" smooth="yes"/>
      <point x="87" y="187" type="line"/>
      <point x="149" y="187"/>
      <point x="191" y="153"/>
      <point x="191" y="97" type="curve"/>
      <point x="212" y="97" type="line"/>
      <point x="212" y="173"/>
      <point x="170" y="203"/>
      <point x="103" y="203" type="curve" smooth="yes"/>
      <point x="49" y="203"/>
      <point x="14" y="154"/>
      <point x="14" y="97" type="curve" smooth="yes"/>
      <point x="14" y="38"/>
      <point x="54" y="-10"/>
      <point x="124" y="-10" type="curve" smooth="yes"/>
      <point x="193" y="-10"/>
      <point x="243" y="36"/>
      <point x="243" y="144" type="curve" smooth="yes"/>
      <point x="243" y="187" type="line" smooth="yes"/>
      <point x="243" y="227"/>
      <point x="253" y="250"/>
      <point x="289" y="250" type="curve"/>
      <point x="296" y="347" type="line"/>
      <point x="141" y="425" type="line"/>
      <point x="197" y="351" type="line"/>
      <point x="197" y="400"/>
      <point x="217" y="437"/>
      <point x="275" y="437" type="curve" smooth="yes"/>
      <point x="331" y="437"/>
      <point x="350" y="397"/>
      <point x="350" y="338" type="curve" smooth="yes"/>
      <point x="350" y="-157" type="line"/>
      <point x="373" y="-135" type="line"/>
      <point x="334" y="-84"/>
      <point x="273" y="-54"/>
      <point x="209" y="-54" type="curve" smooth="yes"/>
      <point x="129" y="-54"/>
      <point x="92" y="-103"/>
      <point x="92" y="-170" type="curve" smooth="yes"/>
      <point x="92" y="-240"/>
      <point x="136" y="-280"/>
    </contour>
    <contour>
      <point x="197" y="-213" type="curve" smooth="yes"/>
      <point x="176" y="-213"/>
      <point x="161" y="-198"/>
      <point x="161" y="-170" type="curve" smooth="yes"/>
      <point x="161" y="-142"/>
      <point x="175" y="-124"/>
      <point x="207" y="-124" type="curve" smooth="yes"/>
      <point x="221" y="-124"/>
      <point x="234" y="-127"/>
      <point x="246" y="-134" type="curve"/>
      <point x="248" y="-171"/>
      <point x="230" y="-213"/>
    </contour>
    <contour>
      <point x="116" y="51" type="curve" smooth="yes"/>
      <point x="91" y="51"/>
      <point x="77" y="68"/>
      <point x="77" y="97" type="curve" smooth="yes"/>
      <point x="77" y="125"/>
      <point x="91" y="142"/>
      <point x="116" y="142" type="curve" smooth="yes"/>
      <point x="141" y="142"/>
      <point x="155" y="126"/>
      <point x="155" y="97" type="curve" smooth="yes"/>
      <point x="155" y="68"/>
      <point x="141" y="51"/>
    </contour>
    <contour>
      <point x="141" y="304" type="line"/>
      <point x="141" y="286" type="line"/>
      <point x="148" y="286" type="line"/>
      <point x="148" y="304" type="line"/>
    </contour>
  </outline>
</glyph>
<glyph name="toPatak-thai" format="2">
  <advance width="558"/>
  <unicode hex="0E0F"/>
  <anchor x="260" y="-280" name="bottom"/>
  <anchor x="501" y="-280" name="bottomright"/>
  <anchor x="281" y="561" name="top"/>
  <anchor x="499" y="561" name="topright"/>
  <outline>
    <contour>
      <point x="146" y="-280" type="curve" smooth="yes"/>
      <point x="196" y="-280"/>
      <point x="226" y="-231"/>
      <point x="238" y="-192" type="curve"/>
      <point x="198" y="-192" type="line"/>
      <point x="239" y="-270" type="line"/>
      <point x="282" y="-270" type="line"/>
      <point x="309" y="-167" type="line"/>
      <point x="288" y="-167" type="line"/>
      <point x="288" y="-227"/>
      <point x="327" y="-280"/>
      <point x="391" y="-280" type="curve" smooth="yes"/>
      <point x="463" y="-280"/>
      <point x="506" y="-207"/>
      <point x="506" y="-121" type="curve" smooth="yes"/>
      <point x="506" y="373" type="line" smooth="yes"/>
      <point x="506" y="505"/>
      <point x="418" y="576"/>
      <point x="275" y="576" type="curve" smooth="yes"/>
      <point x="143" y="576"/>
      <point x="56" y="499"/>
      <point x="56" y="385" type="curve" smooth="yes"/>
      <point x="56" y="336" type="line"/>
      <point x="208" y="265" type="line"/>
      <point x="193" y="303" type="line"/>
      <point x="135" y="303"/>
      <point x="87" y="275"/>
      <point x="87" y="205" type="curve" smooth="yes"/>
      <point x="87" y="187" type="line"/>
      <point x="149" y="187"/>
      <point x="191" y="153"/>
      <point x="191" y="97" type="curve"/>
      <point x="212" y="97" type="line"/>
      <point x="212" y="173"/>
      <point x="170" y="203"/>
      <point x="103" y="203" type="curve" smooth="yes"/>
      <point x="49" y="203"/>
      <point x="14" y="154"/>
      <point x="14" y="97" type="curve" smooth="yes"/>
      <point x="14" y="38"/>
      <point x="54" y="-10"/>
      <point x="124" y="-10" type="curve" smooth="yes"/>
      <point x="193" y="-10"/>
      <point x="243" y="36"/>
      <point x="243" y="144" type="curve" smooth="yes"/>
      <point x="243" y="187" type="line" smooth="yes"/>
      <point x="243" y="227"/>
      <point x="253" y="250"/>
      <point x="289" y="250" type="curve"/>
      <point x="296" y="347" type="line"/>
      <point x="141" y="425" type="line"/>
      <point x="197" y="351" type="line"/>
      <point x="197" y="400"/>
      <point x="217" y="437"/>
      <point x="275" y="437" type="curve" smooth="yes"/>
      <point x="328" y="437"/>
      <point x="350" y="397"/>
      <point x="350" y="338" type="curve" smooth="yes"/>
      <point x="350" y="-112" type="line" smooth="yes"/>
      <point x="350" y="-129"/>
      <point x="345" y="-142"/>
      <point x="333" y="-142" type="curve" smooth="yes"/>
      <point x="317" y="-142"/>
      <point x="310" y="-118"/>
      <point x="310" y="-78" type="curve"/>
      <point x="254" y="-78" type="line"/>
      <point x="230" y="-172" type="line"/>
      <point x="257" y="-172" type="line"/>
      <point x="237" y="-132" type="line" smooth="yes"/>
      <point x="220" y="-97"/>
      <point x="190" y="-72"/>
      <point x="146" y="-72" type="curve" smooth="yes"/>
      <point x="98" y="-72"/>
      <point x="55" y="-111"/>
      <point x="55" y="-176" type="curve" smooth="yes"/>
      <point x="55" y="-244"/>
      <point x="99" y="-280"/>
    </contour>
    <contour>
      <point x="149" y="-222" type="curve" smooth="yes"/>
      <point x="130" y="-222"/>
      <point x="116" y="-207"/>
      <point x="116" y="-176" type="curve" smooth="yes"/>
      <point x="116" y="-148"/>
      <point x="128" y="-130"/>
      <point x="148" y="-130" type="curve" smooth="yes"/>
      <point x="164" y="-130"/>
      <point x="177" y="-136"/>
      <point x="192" y="-162" type="curve"/>
      <point x="188" y="-188"/>
      <point x="176" y="-222"/>
    </contour>
    <contour>
      <point x="116" y="51" type="curve" smooth="yes"/>
      <point x="91" y="51"/>
      <point x="77" y="68"/>
      <point x="77" y="97" type="curve" smooth="yes"/>
      <point x="77" y="125"/>
      <point x="91" y="142"/>
      <point x="116" y="142" type="curve" smooth="yes"/>
      <point x="141" y="142"/>
      <point x="155" y="126"/>
      <point x="155" y="97" type="curve" smooth="yes"/>
      <point x="155" y="68"/>
      <point x="141" y="51"/>
    </contour>
    <contour>
      <point x="141" y="304" type="line"/>
      <point x="141" y="286" type="line"/>
      <point x="148" y="286" type="line"/>
      <point x="148" y="304" type="line"/>
    </contour>
  </outline>
</glyph>
<glyph name="thoThan-thai" format="2">
  <advance width="551"/>
  <unicode hex="0E10"/>
  <anchor x="250" y="-280" name="bottom"/>
  <anchor x="473" y="-280" name="bottomright"/>
  <outline>
    <contour>
      <point x="108" y="-280" type="curve" smooth="yes"/>
      <point x="148" y="-280"/>
      <point x="173" y="-244"/>
      <point x="187" y="-212" type="curve"/>
      <point x="165" y="-212" type="line"/>
      <point x="195" y="-270" type="line"/>
      <point x="232" y="-270" type="line"/>
      <point x="270" y="-177" type="line"/>
      <point x="247" y="-177" type="line"/>
      <point x="262" y="-232"/>
      <point x="304" y="-280"/>
      <point x="367" y="-280" type="curve" smooth="yes"/>
      <point x="429" y="-280"/>
      <point x="476" y="-228"/>
      <point x="476" y="-152" type="curve" smooth="yes"/>
      <point x="476" y="-137" type="line" smooth="yes"/>
      <point x="476" y="-78"/>
      <point x="447" y="-33"/>
      <point x="390" y="-33" type="curve" smooth="yes"/>
      <point x="341" y="-33"/>
      <point x="310" y="-71"/>
      <point x="310" y="-119" type="curve" smooth="yes"/>
      <point x="310" y="-171"/>
      <point x="348" y="-204"/>
      <point x="392" y="-204" type="curve" smooth="yes"/>
      <point x="430" y="-204"/>
      <point x="461" y="-175"/>
      <point x="461" y="-119" type="curve"/>
      <point x="439" y="-119" type="line"/>
      <point x="439" y="-151"/>
      <point x="425" y="-169"/>
      <point x="404" y="-169" type="curve"/>
      <point x="404" y="-172" type="line" smooth="yes"/>
      <point x="404" y="-184"/>
      <point x="395" y="-193"/>
      <point x="377" y="-193" type="curve" smooth="yes"/>
      <point x="326" y="-193"/>
      <point x="289" y="-148"/>
      <point x="289" y="-78" type="curve"/>
      <point x="224" y="-78" type="line"/>
      <point x="194" y="-159" type="line"/>
      <point x="212" y="-159" type="line"/>
      <point x="198" y="-133" type="line" smooth="yes"/>
      <point x="182" y="-103"/>
      <point x="155" y="-76"/>
      <point x="108" y="-76" type="curve" smooth="yes"/>
      <point x="57" y="-76"/>
      <point x="17" y="-114"/>
      <point x="17" y="-179" type="curve" smooth="yes"/>
      <point x="17" y="-245"/>
      <point x="61" y="-280"/>
    </contour>
    <contour>
      <point x="392" y="-153" type="curve" smooth="yes"/>
      <point x="374" y="-153"/>
      <point x="362" y="-139"/>
      <point x="362" y="-119" type="curve" smooth="yes"/>
      <point x="362" y="-98"/>
      <point x="374" y="-83"/>
      <point x="392" y="-83" type="curve" smooth="yes"/>
      <point x="409" y="-83"/>
      <point x="422" y="-98"/>
      <point x="422" y="-119" type="curve" smooth="yes"/>
      <point x="422" y="-140"/>
      <point x="410" y="-153"/>
    </contour>
    <contour>
      <point x="109" y="-218" type="curve" smooth="yes"/>
      <point x="91" y="-218"/>
      <point x="77" y="-204"/>
      <point x="77" y="-177" type="curve" smooth="yes"/>
      <point x="77" y="-154"/>
      <point x="88" y="-138"/>
      <point x="109" y="-138" type="curve" smooth="yes"/>
      <point x="127" y="-138"/>
      <point x="142" y="-148"/>
      <point x="150" y="-166" type="curve"/>
      <point x="147" y="-191"/>
      <point x="134" y="-218"/>
    </contour>
    <component base="thoThan-thai.less"/>
  </outline>
</glyph>
<glyph name="thoNangmontho-thai" format="2">
  <advance width="565"/>
  <unicode hex="0E11"/>
  <anchor x="300" y="0" name="bottom"/>
  <anchor x="519" y="0" name="bottomright"/>
  <anchor x="309" y="561" name="top"/>
  <anchor x="514" y="561" name="topright"/>
  <outline>
    <contour>
      <point x="80" y="0" type="line"/>
      <point x="236" y="0" type="line"/>
      <point x="236" y="158" type="line" smooth="yes"/>
      <point x="236" y="314"/>
      <point x="288" y="437"/>
      <point x="334" y="437" type="curve" smooth="yes"/>
      <point x="358" y="437"/>
      <point x="363" y="419"/>
      <point x="363" y="385" type="curve" smooth="yes"/>
      <point x="363" y="0" type="line"/>
      <point x="519" y="0" type="line"/>
      <point x="519" y="420" type="line" smooth="yes"/>
      <point x="519" y="510"/>
      <point x="487" y="576"/>
      <point x="406" y="576" type="curve" smooth="yes"/>
      <point x="344" y="576"/>
      <point x="297" y="525"/>
      <point x="268" y="450" type="curve"/>
      <point x="281" y="443" type="line"/>
      <point x="286" y="459"/>
      <point x="289" y="477"/>
      <point x="289" y="493" type="curve" smooth="yes"/>
      <point x="289" y="520"/>
      <point x="285" y="543"/>
      <point x="282" y="561" type="curve"/>
      <point x="210" y="561" type="line"/>
      <point x="210" y="507"/>
      <point x="206" y="473"/>
      <point x="175" y="473" type="curve"/>
      <point x="195" y="415" type="line"/>
      <point x="202" y="427"/>
      <point x="205" y="443"/>
      <point x="205" y="457" type="curve" smooth="yes"/>
      <point x="205" y="516"/>
      <point x="174" y="571"/>
      <point x="109" y="571" type="curve" smooth="yes"/>
      <point x="47" y="571"/>
      <point x="14" y="528"/>
      <point x="14" y="468" type="curve" smooth="yes"/>
      <point x="14" y="406"/>
      <point x="54" y="366"/>
      <point x="112" y="366" type="curve" smooth="yes"/>
      <point x="144" y="366"/>
      <point x="170" y="388"/>
      <point x="170" y="415" type="curve"/>
      <point x="152" y="415" type="line"/>
      <point x="152" y="358"/>
      <point x="80" y="341"/>
      <point x="80" y="189" type="curve" smooth="yes"/>
    </contour>
    <contour>
      <point x="110" y="420" type="curve" smooth="yes"/>
      <point x="86" y="420"/>
      <point x="72" y="440"/>
      <point x="72" y="468" type="curve" smooth="yes"/>
      <point x="72" y="497"/>
      <point x="86" y="516"/>
      <point x="110" y="516" type="curve" smooth="yes"/>
      <point x="133" y="516"/>
      <point x="147" y="497"/>
      <point x="147" y="468" type="curve" smooth="yes"/>
      <point x="147" y="439"/>
      <point x="133" y="420"/>
    </contour>
    <contour>
      <point x="283" y="500" type="line"/>
      <point x="283" y="492" type="line"/>
      <point x="295" y="488" type="line"/>
      <point x="295" y="496" type="line"/>
    </contour>
  </outline>
</glyph>
<glyph name="thoPhuthao-thai" format="2">
  <advance width="798"/>
  <unicode hex="0E12"/>
  <anchor x="388" y="0" name="bottom"/>
  <anchor x="746" y="0" name="bottomright"/>
  <anchor x="388" y="561" name="top"/>
  <anchor x="746" y="561" name="topright"/>
  <outline>
    <contour>
      <point x="426" y="-10" type="curve" smooth="yes"/>
      <point x="501" y="-10"/>
      <point x="540" y="52"/>
      <point x="540" y="120" type="curve" smooth="yes"/>
      <point x="540" y="143"/>
      <point x="536" y="169"/>
      <point x="517" y="194" type="curve"/>
      <point x="505" y="98" type="line"/>
      <point x="535" y="82"/>
      <point x="567" y="55"/>
      <point x="597" y="0" type="curve"/>
      <point x="746" y="0" type="line"/>
      <point x="746" y="561" type="line"/>
      <point x="586" y="561" type="line"/>
      <point x="586" y="118" type="line"/>
      <point x="617" y="145" type="line"/>
      <point x="586" y="202"/>
      <point x="541" y="229"/>
      <point x="494" y="253" type="curve"/>
      <point x="536" y="190" type="line"/>
      <point x="534" y="218"/>
      <point x="532" y="247"/>
      <point x="532" y="283" type="curve" smooth="yes"/>
      <point x="532" y="357" type="line" smooth="yes"/>
      <point x="532" y="504"/>
      <point x="455" y="571"/>
      <point x="364" y="571" type="curve"/>
      <point x="289" y="509" type="line"/>
      <point x="214" y="571" type="line"/>
      <point x="107" y="571"/>
      <point x="28" y="479"/>
      <point x="28" y="342" type="curve" smooth="yes"/>
      <point x="28" y="213"/>
      <point x="51" y="177"/>
      <point x="51" y="60" type="curve" smooth="yes"/>
      <point x="51" y="0" type="line"/>
      <point x="241" y="0" type="line"/>
      <point x="338" y="123" type="line" smooth="yes"/>
      <point x="369" y="162"/>
      <point x="389" y="199"/>
      <point x="389" y="247" type="curve" smooth="yes"/>
      <point x="389" y="308"/>
      <point x="355" y="353"/>
      <point x="297" y="353" type="curve" smooth="yes"/>
      <point x="240" y="353"/>
      <point x="204" y="313"/>
      <point x="204" y="252" type="curve" smooth="yes"/>
      <point x="204" y="199"/>
      <point x="241" y="154"/>
      <point x="284" y="154" type="curve" smooth="yes"/>
      <point x="335" y="154"/>
      <point x="376" y="190"/>
      <point x="376" y="255" type="curve"/>
      <point x="356" y="254" type="line"/>
      <point x="356" y="204"/>
      <point x="322" y="179"/>
      <point x="252" y="179" type="curve"/>
      <point x="152" y="62" type="line"/>
      <point x="196" y="52" type="line"/>
      <point x="196" y="87" type="line" smooth="yes"/>
      <point x="196" y="189"/>
      <point x="179" y="201"/>
      <point x="179" y="315" type="curve" smooth="yes"/>
      <point x="179" y="386"/>
      <point x="197" y="429"/>
      <point x="229" y="429" type="curve"/>
      <point x="287" y="384" type="line"/>
      <point x="292" y="384" type="line"/>
      <point x="347" y="429" type="line"/>
      <point x="367" y="429"/>
      <point x="380" y="415"/>
      <point x="380" y="379" type="curve" smooth="yes"/>
      <point x="380" y="294" type="line" smooth="yes"/>
      <point x="380" y="259"/>
      <point x="383" y="225"/>
      <point x="390" y="195" type="curve"/>
      <point x="465" y="234" type="line"/>
      <point x="455" y="239"/>
      <point x="440" y="244"/>
      <point x="424" y="244" type="curve" smooth="yes"/>
      <point x="355" y="244"/>
      <point x="322" y="187"/>
      <point x="322" y="118" type="curve" smooth="yes"/>
      <point x="322" y="41"/>
      <point x="361" y="-10"/>
    </contour>
    <contour>
      <point x="420" y="66" type="curve" smooth="yes"/>
      <point x="401" y="66"/>
      <point x="389" y="85"/>
      <point x="389" y="118" type="curve" smooth="yes"/>
      <point x="389" y="151"/>
      <point x="401" y="168"/>
      <point x="424" y="168" type="curve" smooth="yes"/>
      <point x="433" y="168"/>
      <point x="438" y="167"/>
      <point x="444" y="164" type="curve"/>
      <point x="447" y="147"/>
      <point x="448" y="135"/>
      <point x="448" y="118" type="curve" smooth="yes"/>
      <point x="448" y="84"/>
      <point x="439" y="66"/>
    </contour>
    <contour>
      <point x="296" y="210" type="curve" smooth="yes"/>
      <point x="274" y="210"/>
      <point x="260" y="228"/>
      <point x="260" y="254" type="curve" smooth="yes"/>
      <point x="260" y="280"/>
      <point x="273" y="298"/>
      <point x="296" y="298" type="curve" smooth="yes"/>
      <point x="319" y="298"/>
      <point x="332" y="280"/>
      <point x="332" y="254" type="curve" smooth="yes"/>
      <point x="332" y="227"/>
      <point x="319" y="210"/>
    </contour>
  </outline>
</glyph>
<glyph name="noNen-thai" format="2">
  <advance width="773"/>
  <unicode hex="0E13"/>
  <anchor x="398" y="0" name="bottom"/>
  <anchor x="726" y="0" name="bottomright"/>
  <anchor x="363" y="561" name="top"/>
  <anchor x="702" y="561" name="topright"/>
  <outline>
    <contour>
      <point x="160" y="-10" type="curve" smooth="yes"/>
      <point x="230" y="-10"/>
      <point x="270" y="38"/>
      <point x="270" y="97" type="curve" smooth="yes"/>
      <point x="270" y="154"/>
      <point x="235" y="203"/>
      <point x="181" y="203" type="curve" smooth="yes"/>
      <point x="114" y="203"/>
      <point x="72" y="173"/>
      <point x="72" y="97" type="curve"/>
      <point x="93" y="97" type="line"/>
      <point x="93" y="153"/>
      <point x="135" y="187"/>
      <point x="197" y="187" type="curve"/>
      <point x="197" y="191" type="line" smooth="yes"/>
      <point x="197" y="228"/>
      <point x="208" y="252"/>
      <point x="261" y="252" type="curve"/>
      <point x="267" y="345" type="line"/>
      <point x="108" y="423" type="line"/>
      <point x="167" y="360" type="line"/>
      <point x="167" y="395"/>
      <point x="181" y="437"/>
      <point x="241" y="437" type="curve" smooth="yes"/>
      <point x="303" y="437"/>
      <point x="321" y="397"/>
      <point x="321" y="338" type="curve" smooth="yes"/>
      <point x="321" y="0" type="line"/>
      <point x="466" y="0" type="line"/>
      <point x="483" y="53"/>
      <point x="526" y="94"/>
      <point x="569" y="94" type="curve"/>
      <point x="534" y="145" type="line"/>
      <point x="531" y="132"/>
      <point x="530" y="120"/>
      <point x="530" y="108" type="curve" smooth="yes"/>
      <point x="530" y="35"/>
      <point x="581" y="-10"/>
      <point x="638" y="-10" type="curve" smooth="yes"/>
      <point x="700" y="-10"/>
      <point x="746" y="40"/>
      <point x="746" y="111" type="curve" smooth="yes"/>
      <point x="746" y="175"/>
      <point x="705" y="236"/>
      <point x="641" y="236" type="curve"/>
      <point x="654" y="194" type="line"/>
      <point x="702" y="211"/>
      <point x="702" y="254"/>
      <point x="702" y="292" type="curve" smooth="yes"/>
      <point x="702" y="561" type="line"/>
      <point x="546" y="561" type="line"/>
      <point x="546" y="258" type="line" smooth="yes"/>
      <point x="546" y="238"/>
      <point x="541" y="230"/>
      <point x="526" y="223" type="curve" smooth="yes"/>
      <point x="498" y="209"/>
      <point x="462" y="178"/>
      <point x="439" y="145" type="curve"/>
      <point x="473" y="113" type="line"/>
      <point x="473" y="373" type="line" smooth="yes"/>
      <point x="473" y="505"/>
      <point x="404" y="576"/>
      <point x="243" y="576" type="curve" smooth="yes"/>
      <point x="115" y="576"/>
      <point x="23" y="503"/>
      <point x="23" y="383" type="curve" smooth="yes"/>
      <point x="23" y="333" type="line"/>
      <point x="175" y="264" type="line"/>
      <point x="164" y="300" type="line"/>
      <point x="88" y="300"/>
      <point x="41" y="265"/>
      <point x="41" y="182" type="curve" smooth="yes"/>
      <point x="41" y="144" type="line" smooth="yes"/>
      <point x="41" y="36"/>
      <point x="91" y="-10"/>
    </contour>
    <contour>
      <point x="168" y="51" type="curve" smooth="yes"/>
      <point x="143" y="51"/>
      <point x="129" y="68"/>
      <point x="129" y="97" type="curve" smooth="yes"/>
      <point x="129" y="126"/>
      <point x="143" y="142"/>
      <point x="168" y="142" type="curve" smooth="yes"/>
      <point x="193" y="142"/>
      <point x="207" y="125"/>
      <point x="207" y="97" type="curve" smooth="yes"/>
      <point x="207" y="68"/>
      <point x="193" y="51"/>
    </contour>
    <contour>
      <point x="108" y="282" type="line"/>
      <point x="115" y="282" type="line"/>
      <point x="115" y="300" type="line"/>
      <point x="108" y="300" type="line"/>
    </contour>
    <contour>
      <point x="468" y="186" type="line"/>
      <point x="468" y="177" type="line"/>
      <point x="483" y="177" type="line"/>
      <point x="483" y="186" type="line"/>
    </contour>
    <contour>
      <point x="637" y="54" type="curve" smooth="yes"/>
      <point x="613" y="54"/>
      <point x="598" y="72"/>
      <point x="598" y="104" type="curve" smooth="yes"/>
      <point x="598" y="120"/>
      <point x="601" y="133"/>
      <point x="607" y="146" type="curve"/>
      <point x="614" y="152"/>
      <point x="624" y="155"/>
      <point x="636" y="155" type="curve" smooth="yes"/>
      <point x="663" y="155"/>
      <point x="676" y="136"/>
      <point x="676" y="104" type="curve" smooth="yes"/>
      <point x="676" y="71"/>
      <point x="661" y="54"/>
    </contour>
  </outline>
</glyph>
<glyph name="doDek-thai" format="2">
  <advance width="568"/>
  <unicode hex="0E14"/>
  <anchor x="284" y="0" name="bottom"/>
  <anchor x="516" y="0" name="bottomright"/>
  <anchor x="272" y="561" name="top"/>
  <anchor x="511" y="561" name="topright"/>
  <outline>
    <contour>
      <point x="52" y="0" type="line"/>
      <point x="240" y="0" type="line"/>
      <point x="338" y="132" type="line" smooth="yes"/>
      <point x="366" y="169"/>
      <point x="387" y="205"/>
      <point x="387" y="254" type="curve" smooth="yes"/>
      <point x="387" y="315"/>
      <point x="352" y="359"/>
      <point x="294" y="359" type="curve" smooth="yes"/>
      <point x="236" y="359"/>
      <point x="203" y="320"/>
      <point x="203" y="259" type="curve" smooth="yes"/>
      <point x="203" y="204"/>
      <point x="236" y="159"/>
      <point x="288" y="159" type="curve" smooth="yes"/>
      <point x="340" y="159"/>
      <point x="372" y="198"/>
      <point x="372" y="261" type="curve"/>
      <point x="353" y="261" type="line"/>
      <point x="353" y="212"/>
      <point x="325" y="183"/>
      <point x="245" y="183" type="curve"/>
      <point x="160" y="78" type="line"/>
      <point x="198" y="36" type="line"/>
      <point x="198" y="109" type="line" smooth="yes"/>
      <point x="198" y="192"/>
      <point x="183" y="212"/>
      <point x="183" y="308" type="curve" smooth="yes"/>
      <point x="183" y="393"/>
      <point x="209" y="437"/>
      <point x="273" y="437" type="curve" smooth="yes"/>
      <point x="333" y="437"/>
      <point x="361" y="394"/>
      <point x="361" y="326" type="curve" smooth="yes"/>
      <point x="361" y="0" type="line"/>
      <point x="516" y="0" type="line"/>
      <point x="516" y="358" type="line" smooth="yes"/>
      <point x="516" y="507"/>
      <point x="414" y="576"/>
      <point x="277" y="576" type="curve" smooth="yes"/>
      <point x="127" y="576"/>
      <point x="28" y="502"/>
      <point x="28" y="335" type="curve" smooth="yes"/>
      <point x="28" y="216"/>
      <point x="52" y="167"/>
      <point x="52" y="60" type="curve" smooth="yes"/>
    </contour>
    <contour>
      <point x="297" y="218" type="curve" smooth="yes"/>
      <point x="274" y="218"/>
      <point x="261" y="235"/>
      <point x="261" y="261" type="curve" smooth="yes"/>
      <point x="261" y="287"/>
      <point x="274" y="304"/>
      <point x="297" y="304" type="curve" smooth="yes"/>
      <point x="319" y="304"/>
      <point x="333" y="287"/>
      <point x="333" y="261" type="curve" smooth="yes"/>
      <point x="333" y="234"/>
      <point x="319" y="218"/>
    </contour>
  </outline>
</glyph>
<glyph name="toTao-thai" format="2">
  <advance width="574"/>
  <unicode hex="0E15"/>
  <note>
uni0E15
</note>
  <anchor x="287" y="0" name="bottom"/>
  <anchor x="522" y="0" name="bottomright"/>
  <anchor x="282" y="561" name="top"/>
  <anchor x="517" y="561" name="topright"/>
  <outline>
    <contour>
      <point x="51" y="0" type="line"/>
      <point x="242" y="0" type="line"/>
      <point x="340" y="125" type="line" smooth="yes"/>
      <point x="369" y="162"/>
      <point x="389" y="198"/>
      <point x="389" y="248" type="curve" smooth="yes"/>
      <point x="389" y="309"/>
      <point x="354" y="353"/>
      <point x="296" y="353" type="curve" smooth="yes"/>
      <point x="238" y="353"/>
      <point x="205" y="314"/>
      <point x="205" y="253" type="curve" smooth="yes"/>
      <point x="205" y="198"/>
      <point x="238" y="153"/>
      <point x="290" y="153" type="curve" smooth="yes"/>
      <point x="342" y="153"/>
      <point x="374" y="192"/>
      <point x="374" y="255" type="curve"/>
      <point x="355" y="255" type="line"/>
      <point x="355" y="206"/>
      <point x="327" y="177"/>
      <point x="247" y="177" type="curve"/>
      <point x="162" y="72" type="line"/>
      <point x="194" y="36" type="line"/>
      <point x="194" y="109" type="line" smooth="yes"/>
      <point x="194" y="192"/>
      <point x="181" y="209"/>
      <point x="181" y="315" type="curve" smooth="yes"/>
      <point x="181" y="386"/>
      <point x="198" y="429"/>
      <point x="227" y="429" type="curve"/>
      <point x="279" y="384" type="line"/>
      <point x="284" y="384" type="line"/>
      <point x="334" y="429" type="line"/>
      <point x="354" y="429"/>
      <point x="369" y="414"/>
      <point x="369" y="378" type="curve" smooth="yes"/>
      <point x="369" y="0" type="line"/>
      <point x="522" y="0" type="line"/>
      <point x="522" y="357" type="line" smooth="yes"/>
      <point x="522" y="504"/>
      <point x="445" y="571"/>
      <point x="354" y="571" type="curve"/>
      <point x="281" y="509" type="line"/>
      <point x="209" y="571" type="line"/>
      <point x="105" y="571"/>
      <point x="28" y="479"/>
      <point x="28" y="342" type="curve" smooth="yes"/>
      <point x="28" y="213"/>
      <point x="51" y="177"/>
      <point x="51" y="60" type="curve" smooth="yes"/>
    </contour>
    <contour>
      <point x="299" y="212" type="curve" smooth="yes"/>
      <point x="276" y="212"/>
      <point x="263" y="229"/>
      <point x="263" y="255" type="curve" smooth="yes"/>
      <point x="263" y="281"/>
      <point x="276" y="298"/>
      <point x="299" y="298" type="curve" smooth="yes"/>
      <point x="321" y="298"/>
      <point x="335" y="281"/>
      <point x="335" y="255" type="curve" smooth="yes"/>
      <point x="335" y="228"/>
      <point x="321" y="212"/>
    </contour>
  </outline>
</glyph>
<glyph name="thoThahan-thai" format="2">
  <advance width="567"/>
  <unicode hex="0E17"/>
  <anchor x="301" y="0" name="bottom"/>
  <anchor x="521" y="0" name="bottomright"/>
  <anchor x="301" y="561" name="top"/>
  <anchor x="513" y="561" name="topright"/>
  <outline>
    <contour>
      <point x="85" y="0" type="line"/>
      <point x="241" y="0" type="line"/>
      <point x="241" y="174" type="line" smooth="yes"/>
      <point x="241" y="320"/>
      <point x="275" y="437"/>
      <point x="330" y="437" type="curve" smooth="yes"/>
      <point x="358" y="437"/>
      <point x="365" y="412"/>
      <point x="365" y="377" type="curve" smooth="yes"/>
      <point x="365" y="0" type="line"/>
      <point x="521" y="0" type="line"/>
      <point x="521" y="412" type="line" smooth="yes"/>
      <point x="521" y="511"/>
      <point x="478" y="576"/>
      <point x="386" y="576" type="curve" smooth="yes"/>
      <point x="290" y="576"/>
      <point x="223" y="476"/>
      <point x="212" y="364" type="curve"/>
      <point x="238" y="355" type="line"/>
      <point x="238" y="417" type="line" smooth="yes"/>
      <point x="238" y="525"/>
      <point x="188" y="571"/>
      <point x="122" y="571" type="curve" smooth="yes"/>
      <point x="52" y="571"/>
      <point x="12" y="523"/>
      <point x="12" y="464" type="curve" smooth="yes"/>
      <point x="12" y="407"/>
      <point x="47" y="358"/>
      <point x="101" y="358" type="curve" smooth="yes"/>
      <point x="168" y="358"/>
      <point x="210" y="388"/>
      <point x="210" y="464" type="curve"/>
      <point x="189" y="464" type="line"/>
      <point x="189" y="408"/>
      <point x="147" y="374"/>
      <point x="85" y="374" type="curve"/>
    </contour>
    <contour>
      <point x="113" y="419" type="curve" smooth="yes"/>
      <point x="88" y="419"/>
      <point x="74" y="436"/>
      <point x="74" y="464" type="curve" smooth="yes"/>
      <point x="74" y="493"/>
      <point x="88" y="510"/>
      <point x="113" y="510" type="curve" smooth="yes"/>
      <point x="138" y="510"/>
      <point x="152" y="493"/>
      <point x="152" y="464" type="curve" smooth="yes"/>
      <point x="152" y="435"/>
      <point x="138" y="419"/>
    </contour>
    <contour>
      <point x="231" y="462" type="line"/>
      <point x="231" y="453" type="line"/>
      <point x="245" y="453" type="line"/>
      <point x="245" y="462" type="line"/>
    </contour>
  </outline>
</glyph>
<glyph name="thoThong-thai" format="2">
  <advance width="493"/>
  <unicode hex="0E18"/>
  <anchor x="254" y="0" name="bottom"/>
  <anchor x="459" y="0" name="bottomright"/>
  <anchor x="243" y="561" name="top"/>
  <anchor x="446" y="561" name="topright"/>
  <outline>
    <contour>
      <point x="43" y="0" type="line"/>
      <point x="306" y="0" type="line" smooth="yes"/>
      <point x="437" y="0"/>
      <point x="464" y="74"/>
      <point x="464" y="173" type="curve" smooth="yes"/>
      <point x="464" y="220" type="line" smooth="yes"/>
      <point x="464" y="316"/>
      <point x="429" y="345"/>
      <point x="349" y="360" type="curve" smooth="yes"/>
      <point x="194" y="389" type="line"/>
      <point x="194" y="405" type="line" smooth="yes"/>
      <point x="194" y="427"/>
      <point x="210" y="437"/>
      <point x="245" y="437" type="curve" smooth="yes"/>
      <point x="289" y="437"/>
      <point x="334" y="424"/>
      <point x="382" y="424" type="curve" smooth="yes"/>
      <point x="411" y="424"/>
      <point x="431" y="425"/>
      <point x="455" y="432" type="curve"/>
      <point x="443" y="565" type="line"/>
      <point x="421" y="560"/>
      <point x="397" y="558"/>
      <point x="374" y="558" type="curve" smooth="yes"/>
      <point x="317" y="558"/>
      <point x="297" y="571"/>
      <point x="226" y="571" type="curve" smooth="yes"/>
      <point x="110" y="571"/>
      <point x="42" y="522"/>
      <point x="42" y="395" type="curve" smooth="yes"/>
      <point x="42" y="290" type="line"/>
      <point x="276" y="253" type="line" smooth="yes"/>
      <point x="301" y="249"/>
      <point x="310" y="234"/>
      <point x="310" y="209" type="curve" smooth="yes"/>
      <point x="310" y="173" type="line" smooth="yes"/>
      <point x="310" y="137"/>
      <point x="298" y="130"/>
      <point x="269" y="130" type="curve" smooth="yes"/>
      <point x="197" y="130" type="line"/>
      <point x="197" y="226" type="line"/>
      <point x="43" y="226" type="line"/>
    </contour>
  </outline>
</glyph>
<glyph name="noNu-thai" format="2">
  <advance width="553"/>
  <unicode hex="0E19"/>
  <note>
uni0E19
</note>
  <anchor x="267" y="0" name="bottom"/>
  <anchor x="506" y="0" name="bottomright"/>
  <anchor x="287" y="561" name="top"/>
  <anchor x="482" y="561" name="topright"/>
  <outline>
    <contour>
      <point x="418" y="-10" type="curve" smooth="yes"/>
      <point x="480" y="-10"/>
      <point x="526" y="40"/>
      <point x="526" y="111" type="curve" smooth="yes"/>
      <point x="526" y="175"/>
      <point x="485" y="236"/>
      <point x="421" y="236" type="curve"/>
      <point x="434" y="194" type="line"/>
      <point x="482" y="211"/>
      <point x="482" y="254"/>
      <point x="482" y="292" type="curve" smooth="yes"/>
      <point x="482" y="561" type="line"/>
      <point x="326" y="561" type="line"/>
      <point x="326" y="259" type="line" smooth="yes"/>
      <point x="326" y="241"/>
      <point x="321" y="232"/>
      <point x="306" y="225" type="curve" smooth="yes"/>
      <point x="269" y="207"/>
      <point x="230" y="177"/>
      <point x="213" y="149" type="curve"/>
      <point x="241" y="112" type="line"/>
      <point x="241" y="417" type="line" smooth="yes"/>
      <point x="241" y="525"/>
      <point x="191" y="571"/>
      <point x="122" y="571" type="curve" smooth="yes"/>
      <point x="52" y="571"/>
      <point x="12" y="523"/>
      <point x="12" y="464" type="curve" smooth="yes"/>
      <point x="12" y="406"/>
      <point x="47" y="357"/>
      <point x="101" y="357" type="curve" smooth="yes"/>
      <point x="168" y="357"/>
      <point x="210" y="388"/>
      <point x="210" y="464" type="curve"/>
      <point x="189" y="464" type="line"/>
      <point x="189" y="408"/>
      <point x="147" y="374"/>
      <point x="85" y="374" type="curve"/>
      <point x="85" y="0" type="line"/>
      <point x="234" y="0" type="line"/>
      <point x="251" y="53"/>
      <point x="307" y="94"/>
      <point x="349" y="94" type="curve"/>
      <point x="314" y="145" type="line"/>
      <point x="311" y="132"/>
      <point x="310" y="120"/>
      <point x="310" y="108" type="curve" smooth="yes"/>
      <point x="310" y="35"/>
      <point x="361" y="-10"/>
    </contour>
    <contour>
      <point x="232" y="176" type="line"/>
      <point x="247" y="176" type="line"/>
      <point x="247" y="185" type="line"/>
      <point x="232" y="185" type="line"/>
    </contour>
    <contour>
      <point x="114" y="418" type="curve" smooth="yes"/>
      <point x="89" y="418"/>
      <point x="75" y="435"/>
      <point x="75" y="464" type="curve" smooth="yes"/>
      <point x="75" y="493"/>
      <point x="89" y="510"/>
      <point x="114" y="510" type="curve" smooth="yes"/>
      <point x="139" y="510"/>
      <point x="153" y="493"/>
      <point x="153" y="464" type="curve" smooth="yes"/>
      <point x="153" y="434"/>
      <point x="139" y="418"/>
    </contour>
    <contour>
      <point x="417" y="54" type="curve" smooth="yes"/>
      <point x="393" y="54"/>
      <point x="378" y="72"/>
      <point x="378" y="104" type="curve" smooth="yes"/>
      <point x="378" y="120"/>
      <point x="381" y="133"/>
      <point x="386" y="145" type="curve"/>
      <point x="394" y="152"/>
      <point x="404" y="155"/>
      <point x="416" y="155" type="curve" smooth="yes"/>
      <point x="443" y="155"/>
      <point x="456" y="136"/>
      <point x="456" y="104" type="curve" smooth="yes"/>
      <point x="456" y="71"/>
      <point x="441" y="54"/>
    </contour>
  </outline>
</glyph>
<glyph name="poPla-thai" format="2">
  <advance width="549"/>
  <unicode hex="0E1B"/>
  <note>
uni0E1B
</note>
  <anchor x="290" y="0" name="bottom"/>
  <anchor x="490" y="0" name="bottomright"/>
  <anchor x="142" y="562" name="top"/>
  <anchor x="304" y="562" name="topright"/>
  <outline>
    <contour>
      <point x="495" y="753" type="line"/>
      <point x="339" y="753" type="line"/>
      <point x="339" y="185" type="line" smooth="yes"/>
      <point x="339" y="146"/>
      <point x="327" y="139"/>
      <point x="299" y="139" type="curve" smooth="yes"/>
      <point x="217" y="139" type="line"/>
      <point x="241" y="90" type="line"/>
      <point x="241" y="417" type="line" smooth="yes"/>
      <point x="241" y="525"/>
      <point x="191" y="571"/>
      <point x="122" y="571" type="curve" smooth="yes"/>
      <point x="52" y="571"/>
      <point x="12" y="523"/>
      <point x="12" y="464" type="curve" smooth="yes"/>
      <point x="12" y="406"/>
      <point x="47" y="357"/>
      <point x="101" y="357" type="curve" smooth="yes"/>
      <point x="168" y="357"/>
      <point x="210" y="388"/>
      <point x="210" y="464" type="curve"/>
      <point x="189" y="464" type="line"/>
      <point x="189" y="408"/>
      <point x="147" y="374"/>
      <point x="85" y="374" type="curve"/>
      <point x="85" y="0" type="line"/>
      <point x="364" y="0" type="line" smooth="yes"/>
      <point x="446" y="0"/>
      <point x="495" y="61"/>
      <point x="495" y="167" type="curve" smooth="yes"/>
    </contour>
    <contour>
      <point x="114" y="418" type="curve" smooth="yes"/>
      <point x="89" y="418"/>
      <point x="75" y="435"/>
      <point x="75" y="464" type="curve" smooth="yes"/>
      <point x="75" y="493"/>
      <point x="89" y="510"/>
      <point x="114" y="510" type="curve" smooth="yes"/>
      <point x="139" y="510"/>
      <point x="153" y="493"/>
      <point x="153" y="464" type="curve" smooth="yes"/>
      <point x="153" y="434"/>
      <point x="139" y="418"/>
    </contour>
  </outline>
</glyph>
<glyph name="phoPhung-thai" format="2">
  <advance width="573"/>
  <unicode hex="0E1C"/>
  <anchor x="286" y="0" name="bottom"/>
  <anchor x="521" y="0" name="bottomright"/>
  <anchor x="287" y="561" name="top"/>
  <anchor x="521" y="561" name="topright"/>
  <outline>
    <contour>
      <point x="52" y="417" type="curve" smooth="yes"/>
      <point x="52" y="0" type="line"/>
      <point x="219" y="0" type="line"/>
      <point x="284" y="121" type="line"/>
      <point x="354" y="0" type="line"/>
      <point x="521" y="0" type="line"/>
      <point x="521" y="561" type="line"/>
      <point x="365" y="561" type="line"/>
      <point x="365" y="125" type="line"/>
      <point x="385" y="132" type="line"/>
      <point x="311" y="273" type="line"/>
      <point x="258" y="273" type="line"/>
      <point x="188" y="132" type="line"/>
      <point x="208" y="125" type="line"/>
      <point x="208" y="374" type="line"/>
      <point x="146" y="374"/>
      <point x="104" y="408"/>
      <point x="104" y="464" type="curve"/>
      <point x="83" y="464" type="line"/>
      <point x="83" y="388"/>
      <point x="125" y="357"/>
      <point x="192" y="357" type="curve" smooth="yes"/>
      <point x="246" y="357"/>
      <point x="281" y="406"/>
      <point x="281" y="464" type="curve" smooth="yes"/>
      <point x="281" y="523"/>
      <point x="241" y="571"/>
      <point x="171" y="571" type="curve" smooth="yes"/>
      <point x="102" y="571"/>
      <point x="52" y="525"/>
    </contour>
    <contour>
      <point x="179" y="418" type="curve" smooth="yes"/>
      <point x="154" y="418"/>
      <point x="140" y="434"/>
      <point x="140" y="464" type="curve" smooth="yes"/>
      <point x="140" y="493"/>
      <point x="154" y="510"/>
      <point x="179" y="510" type="curve" smooth="yes"/>
      <point x="204" y="510"/>
      <point x="218" y="493"/>
      <point x="218" y="464" type="curve" smooth="yes"/>
      <point x="218" y="435"/>
      <point x="204" y="418"/>
    </contour>
    <contour>
      <point x="200" y="168" type="line"/>
      <point x="214" y="168" type="line"/>
      <point x="214" y="176" type="line"/>
      <point x="200" y="176" type="line"/>
    </contour>
    <contour>
      <point x="277" y="117" type="line"/>
      <point x="291" y="117" type="line"/>
      <point x="291" y="125" type="line"/>
      <point x="277" y="125" type="line"/>
    </contour>
    <contour>
      <point x="359" y="168" type="line"/>
      <point x="373" y="168" type="line"/>
      <point x="373" y="176" type="line"/>
      <point x="359" y="176" type="line"/>
    </contour>
  </outline>
</glyph>
<glyph name="phoPhan-thai" format="2">
  <advance width="640"/>
  <unicode hex="0E1E"/>
  <note>
uni0E1E
</note>
  <anchor x="337" y="0" name="bottom"/>
  <anchor x="588" y="0" name="bottomright"/>
  <anchor x="335" y="561" name="top"/>
  <anchor x="588" y="561" name="topright"/>
  <outline>
    <contour>
      <point x="85" y="0" type="line"/>
      <point x="263" y="0" type="line"/>
      <point x="353" y="338" type="line"/>
      <point x="317" y="338" type="line"/>
      <point x="411" y="0" type="line"/>
      <point x="588" y="0" type="line"/>
      <point x="588" y="561" type="line"/>
      <point x="438" y="561" type="line"/>
      <point x="438" y="299" type="line" smooth="yes"/>
      <point x="438" y="258"/>
      <point x="440" y="210"/>
      <point x="442" y="175" type="curve"/>
      <point x="451" y="175" type="line"/>
      <point x="362" y="531" type="line"/>
      <point x="308" y="531" type="line"/>
      <point x="222" y="175" type="line"/>
      <point x="230" y="175" type="line"/>
      <point x="233" y="210"/>
      <point x="235" y="258"/>
      <point x="235" y="299" type="curve" smooth="yes"/>
      <point x="235" y="417" type="line" smooth="yes"/>
      <point x="235" y="525"/>
      <point x="191" y="571"/>
      <point x="122" y="571" type="curve" smooth="yes"/>
      <point x="52" y="571"/>
      <point x="12" y="523"/>
      <point x="12" y="464" type="curve" smooth="yes"/>
      <point x="12" y="407"/>
      <point x="47" y="358"/>
      <point x="101" y="358" type="curve" smooth="yes"/>
      <point x="168" y="358"/>
      <point x="210" y="388"/>
      <point x="210" y="464" type="curve"/>
      <point x="189" y="464" type="line"/>
      <point x="189" y="408"/>
      <point x="147" y="374"/>
      <point x="85" y="374" type="curve"/>
    </contour>
    <contour>
      <point x="112" y="419" type="curve" smooth="yes"/>
      <point x="87" y="419"/>
      <point x="73" y="436"/>
      <point x="73" y="464" type="curve" smooth="yes"/>
      <point x="73" y="493"/>
      <point x="87" y="510"/>
      <point x="112" y="510" type="curve" smooth="yes"/>
      <point x="137" y="510"/>
      <point x="151" y="493"/>
      <point x="151" y="464" type="curve" smooth="yes"/>
      <point x="151" y="435"/>
      <point x="137" y="419"/>
    </contour>
    <contour>
      <point x="325" y="282" type="line"/>
      <point x="325" y="267" type="line"/>
      <point x="345" y="267" type="line"/>
      <point x="345" y="282" type="line"/>
    </contour>
    <contour>
      <point x="225" y="231" type="line"/>
      <point x="225" y="216" type="line"/>
      <point x="245" y="216" type="line"/>
      <point x="245" y="231" type="line"/>
    </contour>
    <contour>
      <point x="431" y="232" type="line"/>
      <point x="431" y="217" type="line"/>
      <point x="451" y="217" type="line"/>
      <point x="451" y="232" type="line"/>
    </contour>
  </outline>
</glyph>
<glyph name="foFan-thai" format="2">
  <advance width="640"/>
  <unicode hex="0E1F"/>
  <anchor x="336" y="0" name="bottom"/>
  <anchor x="588" y="0" name="bottomright"/>
  <anchor x="243" y="562" name="top"/>
  <anchor x="403" y="562" name="topright"/>
  <outline>
    <contour>
      <point x="85" y="0" type="line"/>
      <point x="263" y="0" type="line"/>
      <point x="353" y="338" type="line"/>
      <point x="317" y="338" type="line"/>
      <point x="411" y="0" type="line"/>
      <point x="588" y="0" type="line"/>
      <point x="588" y="753" type="line"/>
      <point x="438" y="753" type="line"/>
      <point x="438" y="299" type="line" smooth="yes"/>
      <point x="438" y="258"/>
      <point x="440" y="210"/>
      <point x="442" y="175" type="curve"/>
      <point x="451" y="175" type="line"/>
      <point x="362" y="531" type="line"/>
      <point x="308" y="531" type="line"/>
      <point x="222" y="175" type="line"/>
      <point x="230" y="175" type="line"/>
      <point x="233" y="210"/>
      <point x="235" y="258"/>
      <point x="235" y="299" type="curve" smooth="yes"/>
      <point x="235" y="417" type="line" smooth="yes"/>
      <point x="235" y="524"/>
      <point x="191" y="571"/>
      <point x="122" y="571" type="curve" smooth="yes"/>
      <point x="52" y="571"/>
      <point x="12" y="522"/>
      <point x="12" y="464" type="curve" smooth="yes"/>
      <point x="12" y="407"/>
      <point x="47" y="358"/>
      <point x="101" y="358" type="curve" smooth="yes"/>
      <point x="168" y="358"/>
      <point x="210" y="388"/>
      <point x="210" y="464" type="curve"/>
      <point x="189" y="464" type="line"/>
      <point x="189" y="408"/>
      <point x="147" y="374"/>
      <point x="85" y="374" type="curve"/>
    </contour>
    <contour>
      <point x="112" y="419" type="curve" smooth="yes"/>
      <point x="87" y="419"/>
      <point x="73" y="436"/>
      <point x="73" y="464" type="curve" smooth="yes"/>
      <point x="73" y="492"/>
      <point x="87" y="510"/>
      <point x="112" y="510" type="curve" smooth="yes"/>
      <point x="137" y="510"/>
      <point x="151" y="492"/>
      <point x="151" y="464" type="curve" smooth="yes"/>
      <point x="151" y="435"/>
      <point x="137" y="419"/>
    </contour>
    <contour>
      <point x="325" y="282" type="line"/>
      <point x="325" y="267" type="line"/>
      <point x="345" y="267" type="line"/>
      <point x="345" y="282" type="line"/>
    </contour>
    <contour>
      <point x="225" y="231" type="line"/>
      <point x="225" y="216" type="line"/>
      <point x="245" y="216" type="line"/>
      <point x="245" y="231" type="line"/>
    </contour>
    <contour>
      <point x="431" y="232" type="line"/>
      <point x="431" y="217" type="line"/>
      <point x="451" y="217" type="line"/>
      <point x="451" y="232" type="line"/>
    </contour>
  </outline>
</glyph>
<glyph name="moMa-thai" format="2">
  <advance width="557"/>
  <unicode hex="0E21"/>
  <note>
uni0E21
</note>
  <anchor x="287" y="0" name="bottom"/>
  <anchor x="505" y="0" name="bottomright"/>
  <anchor x="287" y="561" name="top"/>
  <anchor x="505" y="561" name="topright"/>
  <outline>
    <contour>
      <point x="109" y="374" type="curve"/>
      <point x="109" y="291" type="line" smooth="yes"/>
      <point x="109" y="256"/>
      <point x="113" y="229"/>
      <point x="127" y="194" type="curve"/>
      <point x="189" y="235" type="line"/>
      <point x="179" y="240"/>
      <point x="163" y="245"/>
      <point x="147" y="245" type="curve" smooth="yes"/>
      <point x="79" y="245"/>
      <point x="35" y="189"/>
      <point x="35" y="118" type="curve" smooth="yes"/>
      <point x="35" y="41"/>
      <point x="76" y="-10"/>
      <point x="152" y="-10" type="curve" smooth="yes"/>
      <point x="239" y="-10"/>
      <point x="279" y="54"/>
      <point x="279" y="121" type="curve" smooth="yes"/>
      <point x="279" y="140"/>
      <point x="274" y="164"/>
      <point x="263" y="181" type="curve"/>
      <point x="240" y="104" type="line"/>
      <point x="282" y="85"/>
      <point x="321" y="57"/>
      <point x="354" y="0" type="curve"/>
      <point x="505" y="0" type="line"/>
      <point x="505" y="561" type="line"/>
      <point x="349" y="561" type="line"/>
      <point x="349" y="108" type="line"/>
      <point x="383" y="142" type="line"/>
      <point x="340" y="193"/>
      <point x="282" y="236"/>
      <point x="226" y="247" type="curve"/>
      <point x="269" y="193" type="line"/>
      <point x="269" y="220"/>
      <point x="265" y="246"/>
      <point x="265" y="280" type="curve" smooth="yes"/>
      <point x="265" y="417" type="line" smooth="yes"/>
      <point x="265" y="525"/>
      <point x="215" y="571"/>
      <point x="146" y="571" type="curve" smooth="yes"/>
      <point x="76" y="571"/>
      <point x="36" y="523"/>
      <point x="36" y="464" type="curve" smooth="yes"/>
      <point x="36" y="406"/>
      <point x="71" y="357"/>
      <point x="125" y="357" type="curve" smooth="yes"/>
      <point x="192" y="357"/>
      <point x="234" y="388"/>
      <point x="234" y="464" type="curve"/>
      <point x="213" y="464" type="line"/>
      <point x="213" y="408"/>
      <point x="171" y="374"/>
    </contour>
    <contour>
      <point x="138" y="418" type="curve" smooth="yes"/>
      <point x="113" y="418"/>
      <point x="99" y="435"/>
      <point x="99" y="464" type="curve" smooth="yes"/>
      <point x="99" y="493"/>
      <point x="113" y="510"/>
      <point x="138" y="510" type="curve" smooth="yes"/>
      <point x="163" y="510"/>
      <point x="177" y="493"/>
      <point x="177" y="464" type="curve" smooth="yes"/>
      <point x="177" y="434"/>
      <point x="163" y="418"/>
    </contour>
    <contour>
      <point x="140" y="64" type="curve" smooth="yes"/>
      <point x="116" y="64"/>
      <point x="105" y="85"/>
      <point x="105" y="118" type="curve" smooth="yes"/>
      <point x="105" y="151"/>
      <point x="117" y="170"/>
      <point x="144" y="170" type="curve" smooth="yes"/>
      <point x="154" y="170"/>
      <point x="161" y="169"/>
      <point x="168" y="167" type="curve"/>
      <point x="172" y="150"/>
      <point x="172" y="134"/>
      <point x="172" y="118" type="curve" smooth="yes"/>
      <point x="172" y="84"/>
      <point x="163" y="64"/>
    </contour>
    <contour>
      <point x="343" y="179" type="line"/>
      <point x="343" y="171" type="line"/>
      <point x="356" y="175" type="line"/>
      <point x="356" y="183" type="line"/>
    </contour>
  </outline>
</glyph>
<glyph name="yoYak-thai" format="2">
  <advance width="534"/>
  <unicode hex="0E22"/>
  <note>
uni0E22
</note>
  <anchor x="267" y="0" name="bottom"/>
  <anchor x="475" y="0" name="bottomright"/>
  <anchor x="261" y="561" name="top"/>
  <anchor x="480" y="561" name="topright"/>
  <outline>
    <contour>
      <point x="48" y="0" type="line"/>
      <point x="307" y="0" type="line" smooth="yes"/>
      <point x="450" y="0"/>
      <point x="480" y="80"/>
      <point x="480" y="188" type="curve" smooth="yes"/>
      <point x="480" y="561" type="line"/>
      <point x="324" y="561" type="line"/>
      <point x="324" y="207" type="line" smooth="yes"/>
      <point x="324" y="145"/>
      <point x="307" y="136"/>
      <point x="271" y="136" type="curve" smooth="yes"/>
      <point x="134" y="136" type="line"/>
      <point x="204" y="67" type="line"/>
      <point x="204" y="175" type="line" smooth="yes"/>
      <point x="204" y="199"/>
      <point x="216" y="208"/>
      <point x="236" y="208" type="curve" smooth="yes"/>
      <point x="280" y="208" type="line"/>
      <point x="280" y="325" type="line"/>
      <point x="228" y="325" type="line" smooth="yes"/>
      <point x="208" y="325"/>
      <point x="198" y="335"/>
      <point x="198" y="352" type="curve" smooth="yes"/>
      <point x="198" y="360"/>
      <point x="200" y="368"/>
      <point x="204" y="376" type="curve"/>
      <point x="119" y="376"/>
      <point x="89" y="409"/>
      <point x="89" y="464" type="curve"/>
      <point x="72" y="464" type="line"/>
      <point x="72" y="392"/>
      <point x="110" y="358"/>
      <point x="178" y="358" type="curve" smooth="yes"/>
      <point x="232" y="358"/>
      <point x="266" y="407"/>
      <point x="266" y="464" type="curve" smooth="yes"/>
      <point x="266" y="523"/>
      <point x="228" y="571"/>
      <point x="161" y="571" type="curve" smooth="yes"/>
      <point x="92" y="571"/>
      <point x="41" y="520"/>
      <point x="41" y="416" type="curve" smooth="yes"/>
      <point x="41" y="331"/>
      <point x="81" y="259"/>
      <point x="153" y="259" type="curve"/>
      <point x="153" y="271" type="line"/>
      <point x="71" y="271"/>
      <point x="48" y="215"/>
      <point x="48" y="152" type="curve" smooth="yes"/>
    </contour>
    <contour>
      <point x="165" y="418" type="curve" smooth="yes"/>
      <point x="140" y="418"/>
      <point x="126" y="435"/>
      <point x="126" y="464" type="curve" smooth="yes"/>
      <point x="126" y="493"/>
      <point x="140" y="511"/>
      <point x="165" y="511" type="curve" smooth="yes"/>
      <point x="190" y="511"/>
      <point x="203" y="493"/>
      <point x="203" y="464" type="curve" smooth="yes"/>
      <point x="203" y="436"/>
      <point x="190" y="418"/>
    </contour>
    <contour>
      <point x="113" y="276" type="line"/>
      <point x="113" y="257" type="line"/>
      <point x="125" y="257" type="line"/>
      <point x="125" y="276" type="line"/>
    </contour>
  </outline>
</glyph>
<glyph name="roRua-thai" format="2">
  <advance width="426"/>
  <unicode hex="0E23"/>
  <note>
uni0E23
</note>
  <anchor x="191" y="0" name="bottom"/>
  <anchor x="369" y="0" name="bottomright"/>
  <anchor x="216" y="561" name="top"/>
  <anchor x="384" y="561" name="topright"/>
  <outline>
    <contour>
      <point x="372" y="234" type="line" smooth="yes"/>
      <point x="372" y="322"/>
      <point x="344" y="361"/>
      <point x="250" y="373" type="curve" smooth="yes"/>
      <point x="166" y="384" type="line"/>
      <point x="166" y="396" type="line" smooth="yes"/>
      <point x="166" y="417"/>
      <point x="178" y="434"/>
      <point x="209" y="434" type="curve" smooth="yes"/>
      <point x="245" y="434"/>
      <point x="286" y="421"/>
      <point x="328" y="421" type="curve" smooth="yes"/>
      <point x="357" y="421"/>
      <point x="373" y="424"/>
      <point x="393" y="430" type="curve"/>
      <point x="381" y="565" type="line"/>
      <point x="365" y="561"/>
      <point x="343" y="558"/>
      <point x="320" y="558" type="curve" smooth="yes"/>
      <point x="277" y="558"/>
      <point x="240" y="571"/>
      <point x="185" y="571" type="curve" smooth="yes"/>
      <point x="79" y="571"/>
      <point x="10" y="505"/>
      <point x="10" y="378" type="curve" smooth="yes"/>
      <point x="10" y="274" type="line"/>
      <point x="192" y="254" type="line" smooth="yes"/>
      <point x="212" y="252"/>
      <point x="216" y="242"/>
      <point x="216" y="226" type="curve" smooth="yes"/>
      <point x="216" y="185" type="line"/>
      <point x="278" y="185"/>
      <point x="320" y="151"/>
      <point x="320" y="95" type="curve"/>
      <point x="341" y="95" type="line"/>
      <point x="341" y="171"/>
      <point x="299" y="202"/>
      <point x="232" y="202" type="curve" smooth="yes"/>
      <point x="178" y="202"/>
      <point x="143" y="153"/>
      <point x="143" y="95" type="curve" smooth="yes"/>
      <point x="143" y="36"/>
      <point x="183" y="-12"/>
      <point x="253" y="-12" type="curve" smooth="yes"/>
      <point x="322" y="-12"/>
      <point x="372" y="34"/>
      <point x="372" y="142" type="curve" smooth="yes"/>
    </contour>
    <contour>
      <point x="245" y="141" type="curve" smooth="yes"/>
      <point x="270" y="141"/>
      <point x="284" y="125"/>
      <point x="284" y="95" type="curve" smooth="yes"/>
      <point x="284" y="66"/>
      <point x="270" y="49"/>
      <point x="245" y="49" type="curve" smooth="yes"/>
      <point x="220" y="49"/>
      <point x="206" y="66"/>
      <point x="206" y="95" type="curve" smooth="yes"/>
      <point x="206" y="124"/>
      <point x="220" y="141"/>
    </contour>
  </outline>
</glyph>
<glyph name="ru-thai" format="2">
  <advance width="539"/>
  <unicode hex="0E24"/>
  <anchor x="186" y="0" name="bottom"/>
  <anchor x="296" y="0" name="bottomright"/>
  <anchor x="255" y="561" name="top"/>
  <anchor x="482" y="561" name="topright"/>
  <outline>
    <contour>
      <point x="331" y="-260" type="line"/>
      <point x="487" y="-260" type="line"/>
      <point x="487" y="373" type="line" smooth="yes"/>
      <point x="487" y="505"/>
      <point x="397" y="576"/>
      <point x="250" y="576" type="curve" smooth="yes"/>
      <point x="116" y="576"/>
      <point x="23" y="503"/>
      <point x="23" y="383" type="curve" smooth="yes"/>
      <point x="23" y="333" type="line"/>
      <point x="175" y="264" type="line"/>
      <point x="164" y="300" type="line"/>
      <point x="88" y="300"/>
      <point x="41" y="265"/>
      <point x="41" y="182" type="curve" smooth="yes"/>
      <point x="41" y="144" type="line" smooth="yes"/>
      <point x="41" y="36"/>
      <point x="91" y="-10"/>
      <point x="160" y="-10" type="curve" smooth="yes"/>
      <point x="230" y="-10"/>
      <point x="270" y="38"/>
      <point x="270" y="97" type="curve" smooth="yes"/>
      <point x="270" y="154"/>
      <point x="235" y="203"/>
      <point x="181" y="203" type="curve" smooth="yes"/>
      <point x="114" y="203"/>
      <point x="72" y="173"/>
      <point x="72" y="97" type="curve"/>
      <point x="93" y="97" type="line"/>
      <point x="93" y="153"/>
      <point x="135" y="187"/>
      <point x="197" y="187" type="curve"/>
      <point x="197" y="191" type="line" smooth="yes"/>
      <point x="197" y="228"/>
      <point x="208" y="252"/>
      <point x="261" y="252" type="curve"/>
      <point x="267" y="345" type="line"/>
      <point x="108" y="423" type="line"/>
      <point x="167" y="360" type="line"/>
      <point x="167" y="395"/>
      <point x="181" y="437"/>
      <point x="247" y="437" type="curve" smooth="yes"/>
      <point x="308" y="437"/>
      <point x="331" y="397"/>
      <point x="331" y="338" type="curve" smooth="yes"/>
    </contour>
    <contour>
      <point x="168" y="51" type="curve" smooth="yes"/>
      <point x="143" y="51"/>
      <point x="129" y="68"/>
      <point x="129" y="97" type="curve" smooth="yes"/>
      <point x="129" y="126"/>
      <point x="143" y="142"/>
      <point x="168" y="142" type="curve" smooth="yes"/>
      <point x="193" y="142"/>
      <point x="207" y="125"/>
      <point x="207" y="97" type="curve" smooth="yes"/>
      <point x="207" y="68"/>
      <point x="193" y="51"/>
    </contour>
    <contour>
      <point x="108" y="282" type="line"/>
      <point x="115" y="282" type="line"/>
      <point x="115" y="300" type="line"/>
      <point x="108" y="300" type="line"/>
    </contour>
  </outline>
</glyph>
<glyph name="loLing-thai" format="2">
  <advance width="512"/>
  <unicode hex="0E25"/>
  <anchor x="248" y="0" name="bottom"/>
  <anchor x="460" y="0" name="bottomright"/>
  <anchor x="249" y="561" name="top"/>
  <anchor x="455" y="561" name="topright"/>
  <outline>
    <contour>
      <point x="155" y="-10" type="curve" smooth="yes"/>
      <point x="225" y="-10"/>
      <point x="265" y="38"/>
      <point x="265" y="97" type="curve" smooth="yes"/>
      <point x="265" y="154"/>
      <point x="230" y="203"/>
      <point x="176" y="203" type="curve" smooth="yes"/>
      <point x="109" y="203"/>
      <point x="67" y="173"/>
      <point x="67" y="97" type="curve"/>
      <point x="88" y="97" type="line"/>
      <point x="88" y="153"/>
      <point x="129" y="168"/>
      <point x="170" y="168" type="curve"/>
      <point x="170" y="180" type="line" smooth="yes"/>
      <point x="170" y="212"/>
      <point x="191" y="230"/>
      <point x="227" y="230" type="curve" smooth="yes"/>
      <point x="276" y="230"/>
      <point x="304" y="199"/>
      <point x="304" y="129" type="curve" smooth="yes"/>
      <point x="304" y="0" type="line"/>
      <point x="460" y="0" type="line"/>
      <point x="460" y="377" type="line" smooth="yes"/>
      <point x="460" y="502"/>
      <point x="377" y="576"/>
      <point x="240" y="576" type="curve" smooth="yes"/>
      <point x="164" y="576"/>
      <point x="90" y="555"/>
      <point x="38" y="529" type="curve"/>
      <point x="83" y="400" type="line"/>
      <point x="123" y="421"/>
      <point x="169" y="439"/>
      <point x="214" y="439" type="curve" smooth="yes"/>
      <point x="268" y="439"/>
      <point x="304" y="414"/>
      <point x="304" y="342" type="curve" smooth="yes"/>
      <point x="304" y="216" type="line"/>
      <point x="353" y="129" type="line"/>
      <point x="353" y="288"/>
      <point x="297" y="361"/>
      <point x="191" y="361" type="curve" smooth="yes"/>
      <point x="100" y="361"/>
      <point x="36" y="304"/>
      <point x="36" y="195" type="curve" smooth="yes"/>
      <point x="36" y="144" type="line" smooth="yes"/>
      <point x="36" y="36"/>
      <point x="86" y="-10"/>
    </contour>
    <contour>
      <point x="163" y="51" type="curve" smooth="yes"/>
      <point x="138" y="51"/>
      <point x="124" y="68"/>
      <point x="124" y="97" type="curve" smooth="yes"/>
      <point x="124" y="126"/>
      <point x="138" y="142"/>
      <point x="163" y="142" type="curve" smooth="yes"/>
      <point x="188" y="142"/>
      <point x="202" y="125"/>
      <point x="202" y="97" type="curve" smooth="yes"/>
      <point x="202" y="68"/>
      <point x="188" y="51"/>
    </contour>
    <contour>
      <point x="295" y="318" type="line"/>
      <point x="295" y="307" type="line"/>
      <point x="314" y="307" type="line"/>
      <point x="314" y="318" type="line"/>
    </contour>
  </outline>
</glyph>
<glyph name="lu-thai" format="2">
  <advance width="556"/>
  <unicode hex="0E26"/>
  <anchor x="269" y="0" name="bottom"/>
  <anchor x="313" y="0" name="bottomright"/>
  <anchor x="280" y="561" name="top"/>
  <anchor x="498" y="561" name="topright"/>
  <outline>
    <contour>
      <point x="348" y="-260" type="line"/>
      <point x="504" y="-260" type="line"/>
      <point x="504" y="373" type="line" smooth="yes"/>
      <point x="504" y="505"/>
      <point x="420" y="576"/>
      <point x="275" y="576" type="curve" smooth="yes"/>
      <point x="143" y="576"/>
      <point x="56" y="499"/>
      <point x="56" y="385" type="curve" smooth="yes"/>
      <point x="56" y="336" type="line"/>
      <point x="208" y="265" type="line"/>
      <point x="193" y="303" type="line"/>
      <point x="135" y="303"/>
      <point x="87" y="275"/>
      <point x="87" y="205" type="curve" smooth="yes"/>
      <point x="87" y="187" type="line"/>
      <point x="149" y="187"/>
      <point x="191" y="153"/>
      <point x="191" y="97" type="curve"/>
      <point x="212" y="97" type="line"/>
      <point x="212" y="173"/>
      <point x="170" y="203"/>
      <point x="103" y="203" type="curve" smooth="yes"/>
      <point x="49" y="203"/>
      <point x="14" y="154"/>
      <point x="14" y="97" type="curve" smooth="yes"/>
      <point x="14" y="38"/>
      <point x="54" y="-10"/>
      <point x="124" y="-10" type="curve" smooth="yes"/>
      <point x="193" y="-10"/>
      <point x="243" y="36"/>
      <point x="243" y="144" type="curve" smooth="yes"/>
      <point x="243" y="187" type="line" smooth="yes"/>
      <point x="243" y="227"/>
      <point x="249" y="250"/>
      <point x="285" y="250" type="curve"/>
      <point x="292" y="347" type="line"/>
      <point x="141" y="425" type="line"/>
      <point x="197" y="351" type="line"/>
      <point x="197" y="400"/>
      <point x="217" y="437"/>
      <point x="275" y="437" type="curve" smooth="yes"/>
      <point x="330" y="437"/>
      <point x="348" y="397"/>
      <point x="348" y="338" type="curve" smooth="yes"/>
    </contour>
    <contour>
      <point x="116" y="51" type="curve" smooth="yes"/>
      <point x="91" y="51"/>
      <point x="77" y="68"/>
      <point x="77" y="97" type="curve" smooth="yes"/>
      <point x="77" y="125"/>
      <point x="91" y="142"/>
      <point x="116" y="142" type="curve" smooth="yes"/>
      <point x="141" y="142"/>
      <point x="155" y="126"/>
      <point x="155" y="97" type="curve" smooth="yes"/>
      <point x="155" y="68"/>
      <point x="141" y="51"/>
    </contour>
    <contour>
      <point x="141" y="286" type="line"/>
      <point x="148" y="286" type="line"/>
      <point x="148" y="304" type="line"/>
      <point x="141" y="304" type="line"/>
    </contour>
  </outline>
</glyph>
<glyph name="woWaen-thai" format="2">
  <advance width="428"/>
  <unicode hex="0E27"/>
  <anchor x="186" y="0" name="bottom"/>
  <anchor x="373" y="0" name="bottomright"/>
  <anchor x="203" y="561" name="top"/>
  <anchor x="371" y="561" name="topright"/>
  <outline>
    <contour>
      <point x="376" y="386" type="line" smooth="yes"/>
      <point x="376" y="500"/>
      <point x="312" y="575"/>
      <point x="174" y="575" type="curve" smooth="yes"/>
      <point x="114" y="575"/>
      <point x="52" y="557"/>
      <point x="10" y="536" type="curve"/>
      <point x="53" y="410" type="line"/>
      <point x="89" y="426"/>
      <point x="116" y="438"/>
      <point x="151" y="438" type="curve" smooth="yes"/>
      <point x="204" y="438"/>
      <point x="220" y="404"/>
      <point x="220" y="351" type="curve" smooth="yes"/>
      <point x="220" y="187" type="line"/>
      <point x="282" y="187"/>
      <point x="324" y="153"/>
      <point x="324" y="97" type="curve"/>
      <point x="345" y="97" type="line"/>
      <point x="345" y="173"/>
      <point x="303" y="204"/>
      <point x="236" y="204" type="curve" smooth="yes"/>
      <point x="182" y="204"/>
      <point x="147" y="155"/>
      <point x="147" y="97" type="curve" smooth="yes"/>
      <point x="147" y="38"/>
      <point x="187" y="-10"/>
      <point x="257" y="-10" type="curve" smooth="yes"/>
      <point x="326" y="-10"/>
      <point x="376" y="36"/>
      <point x="376" y="144" type="curve" smooth="yes"/>
    </contour>
    <contour>
      <point x="249" y="143" type="curve" smooth="yes"/>
      <point x="274" y="143"/>
      <point x="288" y="127"/>
      <point x="288" y="97" type="curve" smooth="yes"/>
      <point x="288" y="68"/>
      <point x="274" y="51"/>
      <point x="249" y="51" type="curve" smooth="yes"/>
      <point x="224" y="51"/>
      <point x="210" y="68"/>
      <point x="210" y="97" type="curve" smooth="yes"/>
      <point x="210" y="126"/>
      <point x="224" y="143"/>
    </contour>
  </outline>
</glyph>
<glyph name="soSala-thai" format="2">
  <advance width="596"/>
  <unicode hex="0E28"/>
  <anchor x="286" y="0" name="bottom"/>
  <anchor x="509" y="0" name="bottomright"/>
  <anchor x="271" y="561" name="top"/>
  <anchor x="509" y="561" name="topright"/>
  <outline>
    <contour>
      <point x="63" y="0" type="line"/>
      <point x="219" y="0" type="line"/>
      <point x="219" y="108" type="line" smooth="yes"/>
      <point x="219" y="147"/>
      <point x="224" y="167"/>
      <point x="244" y="194" type="curve"/>
      <point x="209" y="299" type="line"/>
      <point x="199" y="287"/>
      <point x="193" y="269"/>
      <point x="193" y="251" type="curve" smooth="yes"/>
      <point x="193" y="189"/>
      <point x="226" y="155"/>
      <point x="275" y="155" type="curve" smooth="yes"/>
      <point x="327" y="155"/>
      <point x="364" y="187"/>
      <point x="364" y="251" type="curve" smooth="yes"/>
      <point x="364" y="316"/>
      <point x="325" y="347"/>
      <point x="275" y="347" type="curve" smooth="yes"/>
      <point x="208" y="347"/>
      <point x="160" y="279"/>
      <point x="160" y="139" type="curve"/>
      <point x="205" y="139" type="line"/>
      <point x="205" y="211"/>
      <point x="188" y="243"/>
      <point x="188" y="337" type="curve" smooth="yes"/>
      <point x="188" y="406"/>
      <point x="213" y="437"/>
      <point x="269" y="437" type="curve" smooth="yes"/>
      <point x="333" y="437"/>
      <point x="353" y="396"/>
      <point x="353" y="336" type="curve" smooth="yes"/>
      <point x="353" y="0" type="line"/>
      <point x="509" y="0" type="line"/>
      <point x="509" y="371" type="line" smooth="yes"/>
      <point x="509" y="411"/>
      <point x="501" y="440"/>
      <point x="487" y="468" type="curve"/>
      <point x="476" y="478" type="line"/>
      <point x="476" y="451"/>
      <point x="505" y="438"/>
      <point x="531" y="438" type="curve" smooth="yes"/>
      <point x="550" y="438"/>
      <point x="571" y="442"/>
      <point x="589" y="454" type="curve"/>
      <point x="553" y="604" type="line"/>
      <point x="522" y="576"/>
      <point x="480" y="556"/>
      <point x="434" y="556" type="curve" smooth="yes"/>
      <point x="399" y="556"/>
      <point x="355" y="576"/>
      <point x="276" y="576" type="curve" smooth="yes"/>
      <point x="128" y="576"/>
      <point x="32" y="507"/>
      <point x="32" y="357" type="curve" smooth="yes"/>
      <point x="32" y="233"/>
      <point x="63" y="178"/>
      <point x="63" y="71" type="curve" smooth="yes"/>
    </contour>
    <contour>
      <point x="275" y="208" type="curve" smooth="yes"/>
      <point x="253" y="208"/>
      <point x="241" y="224"/>
      <point x="241" y="251" type="curve" smooth="yes"/>
      <point x="241" y="277"/>
      <point x="253" y="294"/>
      <point x="275" y="294" type="curve" smooth="yes"/>
      <point x="297" y="294"/>
      <point x="309" y="277"/>
      <point x="309" y="251" type="curve" smooth="yes"/>
      <point x="309" y="225"/>
      <point x="297" y="208"/>
    </contour>
    <contour>
      <point x="185" y="293" type="line"/>
      <point x="185" y="285" type="line"/>
      <point x="198" y="285" type="line"/>
      <point x="198" y="293" type="line"/>
    </contour>
    <contour>
      <point x="496" y="455" type="line"/>
      <point x="488" y="437" type="line"/>
      <point x="495" y="437" type="line"/>
      <point x="503" y="455" type="line"/>
    </contour>
  </outline>
</glyph>
<glyph name="soRusi-thai" format="2">
  <advance width="620"/>
  <unicode hex="0E29"/>
  <anchor x="301" y="0" name="bottom"/>
  <anchor x="511" y="0" name="bottomright"/>
  <anchor x="294" y="561" name="top"/>
  <anchor x="516" y="561" name="topright"/>
  <outline>
    <contour>
      <point x="241" y="88" type="line"/>
      <point x="241" y="417" type="line" smooth="yes"/>
      <point x="241" y="525"/>
      <point x="191" y="571"/>
      <point x="122" y="571" type="curve" smooth="yes"/>
      <point x="52" y="571"/>
      <point x="12" y="523"/>
      <point x="12" y="464" type="curve" smooth="yes"/>
      <point x="12" y="406"/>
      <point x="47" y="357"/>
      <point x="101" y="357" type="curve" smooth="yes"/>
      <point x="168" y="357"/>
      <point x="210" y="388"/>
      <point x="210" y="464" type="curve"/>
      <point x="189" y="464" type="line"/>
      <point x="189" y="408"/>
      <point x="147" y="374"/>
      <point x="85" y="374" type="curve"/>
      <point x="85" y="0" type="line"/>
      <point x="390" y="0" type="line" smooth="yes"/>
      <point x="472" y="0"/>
      <point x="516" y="61"/>
      <point x="516" y="167" type="curve" smooth="yes"/>
      <point x="516" y="561" type="line"/>
      <point x="367" y="561" type="line"/>
      <point x="367" y="186" type="line" smooth="yes"/>
      <point x="367" y="145"/>
      <point x="349" y="140"/>
      <point x="324" y="140" type="curve" smooth="yes"/>
      <point x="207" y="140" type="line"/>
    </contour>
    <contour>
      <point x="114" y="418" type="curve" smooth="yes"/>
      <point x="89" y="418"/>
      <point x="75" y="435"/>
      <point x="75" y="464" type="curve" smooth="yes"/>
      <point x="75" y="493"/>
      <point x="89" y="510"/>
      <point x="114" y="510" type="curve" smooth="yes"/>
      <point x="139" y="510"/>
      <point x="153" y="493"/>
      <point x="153" y="464" type="curve" smooth="yes"/>
      <point x="153" y="434"/>
      <point x="139" y="418"/>
    </contour>
    <contour>
      <point x="385" y="206" type="curve" smooth="yes"/>
      <point x="481" y="206"/>
      <point x="580" y="234"/>
      <point x="645" y="330" type="curve"/>
      <point x="562" y="406" type="line"/>
      <point x="521" y="344"/>
      <point x="462" y="308"/>
      <point x="409" y="308" type="curve" smooth="yes"/>
      <point x="400" y="308"/>
      <point x="387" y="309"/>
      <point x="376" y="313" type="curve"/>
      <point x="341" y="237" type="line"/>
      <point x="384" y="237"/>
      <point x="418" y="281"/>
      <point x="418" y="324" type="curve" smooth="yes"/>
      <point x="418" y="383"/>
      <point x="375" y="425"/>
      <point x="322" y="425" type="curve" smooth="yes"/>
      <point x="254" y="425"/>
      <point x="222" y="378"/>
      <point x="222" y="324" type="curve" smooth="yes"/>
      <point x="222" y="242"/>
      <point x="294" y="206"/>
    </contour>
    <contour>
      <point x="319" y="283" type="curve" smooth="yes"/>
      <point x="299" y="283"/>
      <point x="285" y="299"/>
      <point x="285" y="323" type="curve" smooth="yes"/>
      <point x="285" y="346"/>
      <point x="299" y="364"/>
      <point x="319" y="364" type="curve" smooth="yes"/>
      <point x="339" y="364"/>
      <point x="353" y="347"/>
      <point x="353" y="323" type="curve" smooth="yes"/>
      <point x="353" y="299"/>
      <point x="339" y="283"/>
    </contour>
  </outline>
</glyph>
<glyph name="soSua-thai" format="2">
  <advance width="540"/>
  <unicode hex="0E2A"/>
  <note>
uni0E2A
</note>
  <anchor x="248" y="0" name="bottom"/>
  <anchor x="460" y="0" name="bottomright"/>
  <anchor x="251" y="561" name="top"/>
  <anchor x="460" y="561" name="topright"/>
  <outline>
    <contour>
      <point x="155" y="-10" type="curve" smooth="yes"/>
      <point x="225" y="-10"/>
      <point x="265" y="38"/>
      <point x="265" y="97" type="curve" smooth="yes"/>
      <point x="265" y="154"/>
      <point x="230" y="203"/>
      <point x="176" y="203" type="curve" smooth="yes"/>
      <point x="109" y="203"/>
      <point x="67" y="173"/>
      <point x="67" y="97" type="curve"/>
      <point x="88" y="97" type="line"/>
      <point x="88" y="153"/>
      <point x="129" y="169"/>
      <point x="170" y="169" type="curve"/>
      <point x="170" y="180" type="line" smooth="yes"/>
      <point x="170" y="212"/>
      <point x="191" y="230"/>
      <point x="227" y="230" type="curve" smooth="yes"/>
      <point x="276" y="230"/>
      <point x="304" y="199"/>
      <point x="304" y="129" type="curve" smooth="yes"/>
      <point x="304" y="0" type="line"/>
      <point x="460" y="0" type="line"/>
      <point x="460" y="387" type="line" smooth="yes"/>
      <point x="460" y="422"/>
      <point x="452" y="460"/>
      <point x="430" y="490" type="curve"/>
      <point x="405" y="499" type="line"/>
      <point x="405" y="468"/>
      <point x="439" y="448"/>
      <point x="469" y="448" type="curve" smooth="yes"/>
      <point x="488" y="448"/>
      <point x="512" y="450"/>
      <point x="533" y="458" type="curve"/>
      <point x="496" y="604" type="line"/>
      <point x="461" y="581"/>
      <point x="428" y="566"/>
      <point x="383" y="566" type="curve" smooth="yes"/>
      <point x="350" y="566"/>
      <point x="305" y="586"/>
      <point x="242" y="586" type="curve" smooth="yes"/>
      <point x="166" y="586"/>
      <point x="94" y="565"/>
      <point x="42" y="539" type="curve"/>
      <point x="87" y="400" type="line"/>
      <point x="127" y="431"/>
      <point x="171" y="449"/>
      <point x="216" y="449" type="curve" smooth="yes"/>
      <point x="277" y="449"/>
      <point x="304" y="416"/>
      <point x="304" y="352" type="curve" smooth="yes"/>
      <point x="304" y="216" type="line"/>
      <point x="353" y="129" type="line"/>
      <point x="353" y="288"/>
      <point x="297" y="361"/>
      <point x="191" y="361" type="curve" smooth="yes"/>
      <point x="100" y="361"/>
      <point x="36" y="304"/>
      <point x="36" y="195" type="curve" smooth="yes"/>
      <point x="36" y="144" type="line" smooth="yes"/>
      <point x="36" y="36"/>
      <point x="86" y="-10"/>
    </contour>
    <contour>
      <point x="163" y="51" type="curve" smooth="yes"/>
      <point x="138" y="51"/>
      <point x="124" y="68"/>
      <point x="124" y="97" type="curve" smooth="yes"/>
      <point x="124" y="126"/>
      <point x="138" y="143"/>
      <point x="163" y="143" type="curve" smooth="yes"/>
      <point x="188" y="143"/>
      <point x="202" y="125"/>
      <point x="202" y="97" type="curve" smooth="yes"/>
      <point x="202" y="68"/>
      <point x="188" y="51"/>
    </contour>
    <contour>
      <point x="295" y="318" type="line"/>
      <point x="295" y="307" type="line"/>
      <point x="314" y="307" type="line"/>
      <point x="314" y="318" type="line"/>
    </contour>
    <contour>
      <point x="450" y="462" type="line"/>
      <point x="442" y="444" type="line"/>
      <point x="449" y="444" type="line"/>
      <point x="457" y="462" type="line"/>
    </contour>
  </outline>
</glyph>
<glyph name="hoHip-thai" format="2">
  <advance width="563"/>
  <unicode hex="0E2B"/>
  <note>
uni0E2B
</note>
  <anchor x="300" y="0" name="bottom"/>
  <anchor x="514" y="0" name="bottomright"/>
  <anchor x="297" y="561" name="top"/>
  <anchor x="514" y="561" name="topright"/>
  <outline>
    <contour>
      <point x="236" y="280" type="line"/>
      <point x="236" y="269" type="line"/>
      <point x="253" y="269" type="line"/>
      <point x="253" y="280" type="line"/>
    </contour>
    <contour>
      <point x="241" y="306" type="curve" smooth="yes"/>
      <point x="241" y="417" type="line" smooth="yes"/>
      <point x="241" y="525"/>
      <point x="191" y="571"/>
      <point x="122" y="571" type="curve" smooth="yes"/>
      <point x="52" y="571"/>
      <point x="12" y="523"/>
      <point x="12" y="464" type="curve" smooth="yes"/>
      <point x="12" y="406"/>
      <point x="47" y="357"/>
      <point x="101" y="357" type="curve" smooth="yes"/>
      <point x="168" y="357"/>
      <point x="210" y="388"/>
      <point x="210" y="464" type="curve"/>
      <point x="189" y="464" type="line"/>
      <point x="189" y="408"/>
      <point x="147" y="374"/>
      <point x="85" y="374" type="curve"/>
      <point x="85" y="0" type="line"/>
      <point x="233" y="0" type="line"/>
      <point x="267" y="172"/>
      <point x="315" y="252"/>
      <point x="345" y="252" type="curve" smooth="yes"/>
      <point x="354" y="252"/>
      <point x="358" y="244"/>
      <point x="358" y="233" type="curve" smooth="yes"/>
      <point x="358" y="0" type="line"/>
      <point x="514" y="0" type="line"/>
      <point x="514" y="262" type="line" smooth="yes"/>
      <point x="514" y="328"/>
      <point x="478" y="387"/>
      <point x="412" y="387" type="curve"/>
      <point x="412" y="340" type="line"/>
      <point x="469" y="340"/>
      <point x="519" y="400"/>
      <point x="519" y="457" type="curve" smooth="yes"/>
      <point x="519" y="524"/>
      <point x="478" y="571"/>
      <point x="410" y="571" type="curve" smooth="yes"/>
      <point x="341" y="571"/>
      <point x="300" y="524"/>
      <point x="300" y="457" type="curve" smooth="yes"/>
      <point x="300" y="409"/>
      <point x="337" y="355"/>
      <point x="381" y="355" type="curve"/>
      <point x="381" y="392" type="line"/>
      <point x="293" y="392"/>
      <point x="224" y="288"/>
      <point x="220" y="175" type="curve"/>
      <point x="232" y="175" type="line"/>
      <point x="235" y="210"/>
      <point x="241" y="265"/>
    </contour>
    <contour>
      <point x="114" y="418" type="curve" smooth="yes"/>
      <point x="89" y="418"/>
      <point x="75" y="435"/>
      <point x="75" y="464" type="curve" smooth="yes"/>
      <point x="75" y="493"/>
      <point x="89" y="510"/>
      <point x="114" y="510" type="curve" smooth="yes"/>
      <point x="139" y="510"/>
      <point x="153" y="493"/>
      <point x="153" y="464" type="curve" smooth="yes"/>
      <point x="153" y="434"/>
      <point x="139" y="418"/>
    </contour>
    <contour>
      <point x="367" y="457" type="curve" smooth="yes"/>
      <point x="367" y="486"/>
      <point x="384" y="503"/>
      <point x="410" y="503" type="curve" smooth="yes"/>
      <point x="435" y="503"/>
      <point x="452" y="486"/>
      <point x="452" y="457" type="curve" smooth="yes"/>
      <point x="452" y="429"/>
      <point x="435" y="410"/>
      <point x="410" y="402" type="curve"/>
      <point x="383" y="410"/>
      <point x="367" y="430"/>
    </contour>
  </outline>
</glyph>
<glyph name="loChula-thai" format="2">
  <advance width="641"/>
  <unicode hex="0E2C"/>
  <anchor x="334" y="0" name="bottom"/>
  <anchor x="582" y="0" name="bottomright"/>
  <outline>
    <contour>
      <point x="85" y="0" type="line"/>
      <point x="263" y="0" type="line"/>
      <point x="351" y="293" type="line"/>
      <point x="310" y="293" type="line"/>
      <point x="405" y="0" type="line"/>
      <point x="582" y="0" type="line"/>
      <point x="582" y="517" type="line" smooth="yes"/>
      <point x="582" y="530"/>
      <point x="581" y="542"/>
      <point x="581" y="553" type="curve"/>
      <point x="622" y="596"/>
      <point x="654" y="655"/>
      <point x="672" y="745" type="curve"/>
      <point x="533" y="787" type="line"/>
      <point x="523" y="730"/>
      <point x="509" y="689"/>
      <point x="493" y="657" type="curve"/>
      <point x="537" y="613" type="line"/>
      <point x="537" y="688"/>
      <point x="481" y="723"/>
      <point x="421" y="723" type="curve" smooth="yes"/>
      <point x="355" y="723"/>
      <point x="308" y="682"/>
      <point x="308" y="614" type="curve" smooth="yes"/>
      <point x="308" y="548"/>
      <point x="356" y="502"/>
      <point x="422" y="502" type="curve" smooth="yes"/>
      <point x="480" y="502"/>
      <point x="528" y="542"/>
      <point x="528" y="615" type="curve"/>
      <point x="432" y="516" type="line"/>
      <point x="432" y="294" type="line" smooth="yes"/>
      <point x="432" y="249"/>
      <point x="434" y="196"/>
      <point x="439" y="159" type="curve"/>
      <point x="448" y="159" type="line"/>
      <point x="358" y="446" type="line"/>
      <point x="305" y="446" type="line"/>
      <point x="220" y="162" type="line"/>
      <point x="228" y="162" type="line"/>
      <point x="233" y="197"/>
      <point x="235" y="247"/>
      <point x="235" y="294" type="curve" smooth="yes"/>
      <point x="235" y="417" type="line" smooth="yes"/>
      <point x="235" y="524"/>
      <point x="191" y="571"/>
      <point x="122" y="571" type="curve" smooth="yes"/>
      <point x="52" y="571"/>
      <point x="12" y="522"/>
      <point x="12" y="464" type="curve" smooth="yes"/>
      <point x="12" y="406"/>
      <point x="47" y="357"/>
      <point x="101" y="357" type="curve" smooth="yes"/>
      <point x="168" y="357"/>
      <point x="210" y="388"/>
      <point x="210" y="464" type="curve"/>
      <point x="189" y="464" type="line"/>
      <point x="189" y="408"/>
      <point x="147" y="374"/>
      <point x="85" y="374" type="curve"/>
    </contour>
    <contour>
      <point x="112" y="418" type="curve" smooth="yes"/>
      <point x="87" y="418"/>
      <point x="73" y="435"/>
      <point x="73" y="464" type="curve" smooth="yes"/>
      <point x="73" y="492"/>
      <point x="87" y="510"/>
      <point x="112" y="510" type="curve" smooth="yes"/>
      <point x="137" y="510"/>
      <point x="151" y="492"/>
      <point x="151" y="464" type="curve" smooth="yes"/>
      <point x="151" y="434"/>
      <point x="137" y="418"/>
    </contour>
    <contour>
      <point x="425" y="570" type="curve" smooth="yes"/>
      <point x="398" y="570"/>
      <point x="381" y="587"/>
      <point x="381" y="614" type="curve" smooth="yes"/>
      <point x="381" y="639"/>
      <point x="397" y="658"/>
      <point x="420" y="658" type="curve" smooth="yes"/>
      <point x="454" y="658"/>
      <point x="465" y="629"/>
      <point x="465" y="578" type="curve"/>
      <point x="452" y="571"/>
      <point x="437" y="570"/>
    </contour>
    <contour>
      <point x="219" y="213" type="line"/>
      <point x="219" y="197" type="line"/>
      <point x="249" y="197" type="line"/>
      <point x="249" y="213" type="line"/>
    </contour>
    <contour>
      <point x="316" y="238" type="line"/>
      <point x="316" y="222" type="line"/>
      <point x="346" y="222" type="line"/>
      <point x="346" y="238" type="line"/>
    </contour>
    <contour>
      <point x="417" y="213" type="line"/>
      <point x="417" y="197" type="line"/>
      <point x="447" y="197" type="line"/>
      <point x="447" y="213" type="line"/>
    </contour>
  </outline>
</glyph>
<glyph name="oAng-thai" format="2">
  <advance width="508"/>
  <unicode hex="0E2D"/>
  <note>
uni0E2D
</note>
  <anchor x="251" y="0" name="bottom"/>
  <anchor x="458" y="0" name="bottomright"/>
  <anchor x="251" y="561" name="top"/>
  <anchor x="458" y="561" name="topright"/>
  <outline>
    <contour>
      <point x="463" y="367" type="line" smooth="yes"/>
      <point x="463" y="492"/>
      <point x="384" y="576"/>
      <point x="232" y="576" type="curve" smooth="yes"/>
      <point x="159" y="576"/>
      <point x="92" y="562"/>
      <point x="38" y="538" type="curve"/>
      <point x="82" y="409" type="line"/>
      <point x="122" y="427"/>
      <point x="168" y="439"/>
      <point x="215" y="439" type="curve" smooth="yes"/>
      <point x="293" y="439"/>
      <point x="307" y="397"/>
      <point x="307" y="332" type="curve" smooth="yes"/>
      <point x="307" y="208" type="line" smooth="yes"/>
      <point x="307" y="146"/>
      <point x="290" y="135"/>
      <point x="254" y="135" type="curve" smooth="yes"/>
      <point x="194" y="135" type="line"/>
      <point x="194" y="189" type="line"/>
      <point x="132" y="189"/>
      <point x="90" y="223"/>
      <point x="90" y="279" type="curve"/>
      <point x="69" y="279" type="line"/>
      <point x="69" y="203"/>
      <point x="111" y="172"/>
      <point x="178" y="172" type="curve" smooth="yes"/>
      <point x="232" y="172"/>
      <point x="267" y="221"/>
      <point x="267" y="279" type="curve" smooth="yes"/>
      <point x="267" y="338"/>
      <point x="227" y="386"/>
      <point x="157" y="386" type="curve" smooth="yes"/>
      <point x="88" y="386"/>
      <point x="38" y="340"/>
      <point x="38" y="232" type="curve" smooth="yes"/>
      <point x="38" y="0" type="line"/>
      <point x="290" y="0" type="line" smooth="yes"/>
      <point x="433" y="0"/>
      <point x="463" y="80"/>
      <point x="463" y="188" type="curve" smooth="yes"/>
    </contour>
    <contour>
      <point x="165" y="233" type="curve" smooth="yes"/>
      <point x="140" y="233"/>
      <point x="126" y="249"/>
      <point x="126" y="279" type="curve" smooth="yes"/>
      <point x="126" y="308"/>
      <point x="140" y="325"/>
      <point x="165" y="325" type="curve" smooth="yes"/>
      <point x="190" y="325"/>
      <point x="204" y="308"/>
      <point x="204" y="279" type="curve" smooth="yes"/>
      <point x="204" y="250"/>
      <point x="190" y="233"/>
    </contour>
  </outline>
</glyph>
<glyph name="hoNokhuk-thai" format="2">
  <advance width="538"/>
  <unicode hex="0E2E"/>
  <anchor x="251" y="0" name="bottom"/>
  <anchor x="458" y="0" name="bottomright"/>
  <anchor x="251" y="561" name="top"/>
  <anchor x="463" y="561" name="topright"/>
  <outline>
    <contour>
      <point x="463" y="367" type="line" smooth="yes"/>
      <point x="463" y="402"/>
      <point x="450" y="445"/>
      <point x="429" y="466" type="curve"/>
      <point x="384" y="484" type="line"/>
      <point x="384" y="456"/>
      <point x="454" y="438"/>
      <point x="475" y="438" type="curve" smooth="yes"/>
      <point x="496" y="438"/>
      <point x="517" y="442"/>
      <point x="535" y="454" type="curve"/>
      <point x="499" y="604" type="line"/>
      <point x="464" y="581"/>
      <point x="426" y="556"/>
      <point x="380" y="556" type="curve" smooth="yes"/>
      <point x="343" y="556"/>
      <point x="299" y="576"/>
      <point x="232" y="576" type="curve" smooth="yes"/>
      <point x="158" y="576"/>
      <point x="92" y="562"/>
      <point x="38" y="538" type="curve"/>
      <point x="82" y="409" type="line"/>
      <point x="122" y="427"/>
      <point x="168" y="439"/>
      <point x="215" y="439" type="curve" smooth="yes"/>
      <point x="293" y="439"/>
      <point x="307" y="397"/>
      <point x="307" y="332" type="curve" smooth="yes"/>
      <point x="307" y="208" type="line" smooth="yes"/>
      <point x="307" y="146"/>
      <point x="290" y="135"/>
      <point x="254" y="135" type="curve" smooth="yes"/>
      <point x="194" y="135" type="line"/>
      <point x="194" y="189" type="line"/>
      <point x="132" y="189"/>
      <point x="90" y="223"/>
      <point x="90" y="279" type="curve"/>
      <point x="69" y="279" type="line"/>
      <point x="69" y="203"/>
      <point x="111" y="172"/>
      <point x="178" y="172" type="curve" smooth="yes"/>
      <point x="232" y="172"/>
      <point x="267" y="221"/>
      <point x="267" y="279" type="curve" smooth="yes"/>
      <point x="267" y="338"/>
      <point x="227" y="386"/>
      <point x="157" y="386" type="curve" smooth="yes"/>
      <point x="88" y="386"/>
      <point x="38" y="340"/>
      <point x="38" y="232" type="curve" smooth="yes"/>
      <point x="38" y="0" type="line"/>
      <point x="290" y="0" type="line" smooth="yes"/>
      <point x="433" y="0"/>
      <point x="463" y="80"/>
      <point x="463" y="188" type="curve" smooth="yes"/>
    </contour>
    <contour>
      <point x="165" y="233" type="curve" smooth="yes"/>
      <point x="140" y="233"/>
      <point x="126" y="249"/>
      <point x="126" y="279" type="curve" smooth="yes"/>
      <point x="126" y="308"/>
      <point x="140" y="325"/>
      <point x="165" y="325" type="curve" smooth="yes"/>
      <point x="190" y="325"/>
      <point x="204" y="308"/>
      <point x="204" y="279" type="curve" smooth="yes"/>
      <point x="204" y="250"/>
      <point x="190" y="233"/>
    </contour>
    <contour>
      <point x="446" y="452" type="line"/>
      <point x="438" y="434" type="line"/>
      <point x="445" y="434" type="line"/>
      <point x="453" y="452" type="line"/>
    </contour>
  </outline>
</glyph>
<glyph name="saraA-thai" format="2">
  <advance width="397"/>
  <unicode hex="0E30"/>
  <anchor x="278" y="0" name="bottomright"/>
  <anchor x="267" y="561" name="topright"/>
  <outline>
    <contour>
      <point x="181" y="314" type="curve" smooth="yes"/>
      <point x="265" y="314"/>
      <point x="341" y="364"/>
      <point x="386" y="457" type="curve"/>
      <point x="288" y="531" type="line"/>
      <point x="263" y="464"/>
      <point x="234" y="422"/>
      <point x="200" y="422" type="curve" smooth="yes"/>
      <point x="190" y="422"/>
      <point x="174" y="423"/>
      <point x="161" y="427" type="curve"/>
      <point x="133" y="363" type="line"/>
      <point x="175" y="363"/>
      <point x="209" y="411"/>
      <point x="209" y="454" type="curve" smooth="yes"/>
      <point x="209" y="516"/>
      <point x="176" y="556"/>
      <point x="114" y="556" type="curve" smooth="yes"/>
      <point x="46" y="556"/>
      <point x="13" y="508"/>
      <point x="13" y="451" type="curve" smooth="yes"/>
      <point x="13" y="353"/>
      <point x="90" y="314"/>
    </contour>
    <contour>
      <point x="113" y="421" type="curve" smooth="yes"/>
      <point x="93" y="421"/>
      <point x="80" y="435"/>
      <point x="80" y="458" type="curve" smooth="yes"/>
      <point x="80" y="482"/>
      <point x="93" y="497"/>
      <point x="113" y="497" type="curve" smooth="yes"/>
      <point x="133" y="497"/>
      <point x="146" y="483"/>
      <point x="146" y="458" type="curve" smooth="yes"/>
      <point x="146" y="435"/>
      <point x="133" y="421"/>
    </contour>
    <contour>
      <point x="181" y="15" type="curve" smooth="yes"/>
      <point x="264" y="15"/>
      <point x="340" y="64"/>
      <point x="386" y="158" type="curve"/>
      <point x="288" y="232" type="line"/>
      <point x="263" y="166"/>
      <point x="235" y="123"/>
      <point x="200" y="123" type="curve" smooth="yes"/>
      <point x="190" y="123"/>
      <point x="174" y="124"/>
      <point x="161" y="128" type="curve"/>
      <point x="133" y="64" type="line"/>
      <point x="176" y="64"/>
      <point x="209" y="113"/>
      <point x="209" y="155" type="curve" smooth="yes"/>
      <point x="209" y="217"/>
      <point x="176" y="257"/>
      <point x="114" y="257" type="curve" smooth="yes"/>
      <point x="46" y="257"/>
      <point x="13" y="209"/>
      <point x="13" y="152" type="curve" smooth="yes"/>
      <point x="13" y="54"/>
      <point x="90" y="15"/>
    </contour>
    <contour>
      <point x="113" y="122" type="curve" smooth="yes"/>
      <point x="93" y="122"/>
      <point x="80" y="136"/>
      <point x="80" y="160" type="curve" smooth="yes"/>
      <point x="80" y="183"/>
      <point x="93" y="198"/>
      <point x="113" y="198" type="curve" smooth="yes"/>
      <point x="133" y="198"/>
      <point x="146" y="184"/>
      <point x="146" y="160" type="curve" smooth="yes"/>
      <point x="146" y="136"/>
      <point x="133" y="122"/>
    </contour>
  </outline>
</glyph>
<glyph name="maiHanaKat-thai" format="2">
  <unicode hex="0E31"/>
  <anchor x="337" y="561" name="_topright"/>
  <anchor x="326" y="882" name="topright"/>
  <outline>
    <contour>
      <point x="224" y="630" type="curve" smooth="yes"/>
      <point x="342" y="630"/>
      <point x="413" y="687"/>
      <point x="458" y="789" type="curve"/>
      <point x="351" y="853" type="line"/>
      <point x="329" y="791"/>
      <point x="293" y="734"/>
      <point x="250" y="734" type="curve" smooth="yes"/>
      <point x="241" y="734"/>
      <point x="211" y="735"/>
      <point x="203" y="739" type="curve"/>
      <point x="178" y="679" type="line"/>
      <point x="221" y="679"/>
      <point x="256" y="720"/>
      <point x="256" y="778" type="curve" smooth="yes"/>
      <point x="256" y="845"/>
      <point x="219" y="887"/>
      <point x="154" y="887" type="curve" smooth="yes"/>
      <point x="86" y="887"/>
      <point x="50" y="836"/>
      <point x="50" y="774" type="curve" smooth="yes"/>
      <point x="50" y="677"/>
      <point x="129" y="630"/>
    </contour>
    <contour>
      <point x="157" y="736" type="curve" smooth="yes"/>
      <point x="136" y="736"/>
      <point x="124" y="754"/>
      <point x="124" y="780" type="curve" smooth="yes"/>
      <point x="124" y="806"/>
      <point x="136" y="825"/>
      <point x="157" y="825" type="curve" smooth="yes"/>
      <point x="180" y="825"/>
      <point x="190" y="807"/>
      <point x="190" y="780" type="curve" smooth="yes"/>
      <point x="190" y="754"/>
      <point x="180" y="736"/>
    </contour>
  </outline>
</glyph>
<glyph name="saraI-thai" format="2">
  <unicode hex="0E34"/>
  <anchor x="441" y="561" name="_topright"/>
  <anchor x="441" y="862" name="topright"/>
  <outline>
    <contour>
      <point x="55" y="635" type="line"/>
      <point x="431" y="635" type="line"/>
      <point x="441" y="700" type="line"/>
      <point x="414" y="781"/>
      <point x="333" y="867"/>
      <point x="228" y="867" type="curve" smooth="yes"/>
      <point x="101" y="867"/>
      <point x="50" y="790"/>
      <point x="50" y="683" type="curve"/>
    </contour>
    <contour>
      <point x="176" y="709" type="line"/>
      <point x="176" y="753"/>
      <point x="195" y="781"/>
      <point x="231" y="781" type="curve" smooth="yes"/>
      <point x="270" y="781"/>
      <point x="298" y="750"/>
      <point x="315" y="709" type="curve"/>
    </contour>
  </outline>
</glyph>
<glyph name="saraIi-thai" format="2">
  <unicode hex="0E35"/>
  <anchor x="447" y="561" name="_topright"/>
  <anchor x="447" y="867" name="topright"/>
  <outline>
    <contour>
      <point x="55" y="635" type="line"/>
      <point x="447" y="635" type="line"/>
      <point x="447" y="867" type="line"/>
      <point x="350" y="867" type="line"/>
      <point x="350" y="752" type="line"/>
      <point x="361" y="741" type="line"/>
      <point x="341" y="804"/>
      <point x="279" y="867"/>
      <point x="201" y="867" type="curve" smooth="yes"/>
      <point x="87" y="867"/>
      <point x="50" y="790"/>
      <point x="50" y="683" type="curve"/>
    </contour>
    <contour>
      <point x="176" y="709" type="line"/>
      <point x="176" y="753"/>
      <point x="187" y="781"/>
      <point x="218" y="781" type="curve" smooth="yes"/>
      <point x="253" y="781"/>
      <point x="281" y="746"/>
      <point x="294" y="709" type="curve"/>
    </contour>
  </outline>
</glyph>
<glyph name="saraUe-thai" format="2">
  <unicode hex="0E36"/>
  <anchor x="503" y="561" name="_topright"/>
  <anchor x="513" y="879" name="topright"/>
  <outline>
    <contour>
      <point x="55" y="635" type="line"/>
      <point x="405" y="635" type="line" smooth="yes"/>
      <point x="486" y="635"/>
      <point x="518" y="694"/>
      <point x="518" y="759" type="curve" smooth="yes"/>
      <point x="518" y="824"/>
      <point x="485" y="884"/>
      <point x="415" y="884" type="curve" smooth="yes"/>
      <point x="349" y="884"/>
      <point x="313" y="823"/>
      <point x="313" y="748" type="curve"/>
      <point x="350" y="758" type="line"/>
      <point x="319" y="817"/>
      <point x="265" y="867"/>
      <point x="193" y="867" type="curve" smooth="yes"/>
      <point x="93" y="867"/>
      <point x="50" y="790"/>
      <point x="50" y="683" type="curve"/>
    </contour>
    <contour>
      <point x="171" y="709" type="line"/>
      <point x="171" y="753"/>
      <point x="180" y="781"/>
      <point x="211" y="781" type="curve" smooth="yes"/>
      <point x="248" y="781"/>
      <point x="277" y="743"/>
      <point x="292" y="709" type="curve"/>
    </contour>
    <contour>
      <point x="414" y="708" type="curve" smooth="yes"/>
      <point x="391" y="708"/>
      <point x="380" y="730"/>
      <point x="380" y="759" type="curve" smooth="yes"/>
      <point x="380" y="788"/>
      <point x="391" y="810"/>
      <point x="414" y="810" type="curve" smooth="yes"/>
      <point x="438" y="810"/>
      <point x="448" y="787"/>
      <point x="448" y="759" type="curve" smooth="yes"/>
      <point x="448" y="730"/>
      <point x="438" y="708"/>
    </contour>
  </outline>
</glyph>
<glyph name="saraUee-thai" format="2">
  <unicode hex="0E37"/>
  <anchor x="501" y="561" name="_topright"/>
  <anchor x="501" y="866" name="topright"/>
  <outline>
    <contour>
      <point x="55" y="635" type="line"/>
      <point x="501" y="635" type="line"/>
      <point x="501" y="867" type="line"/>
      <point x="419" y="867" type="line"/>
      <point x="419" y="726" type="line"/>
      <point x="392" y="726" type="line"/>
      <point x="392" y="867" type="line"/>
      <point x="310" y="867" type="line"/>
      <point x="310" y="725" type="line"/>
      <point x="330" y="751" type="line"/>
      <point x="311" y="812"/>
      <point x="259" y="867"/>
      <point x="190" y="867" type="curve" smooth="yes"/>
      <point x="89" y="867"/>
      <point x="50" y="790"/>
      <point x="50" y="683" type="curve"/>
    </contour>
    <contour>
      <point x="169" y="709" type="line"/>
      <point x="169" y="753"/>
      <point x="179" y="781"/>
      <point x="211" y="781" type="curve" smooth="yes"/>
      <point x="244" y="781"/>
      <point x="267" y="744"/>
      <point x="277" y="709" type="curve"/>
    </contour>
  </outline>
</glyph>
<glyph name="saraU-thai" format="2">
  <unicode hex="0E38"/>
  <anchor x="241" y="0" name="_bottomright"/>
  <anchor x="246" y="-328" name="bottomright"/>
  <outline>
    <contour>
      <point x="105" y="-328" type="line"/>
      <point x="246" y="-328" type="line"/>
      <point x="246" y="-171" type="line" smooth="yes"/>
      <point x="246" y="-112"/>
      <point x="216" y="-55"/>
      <point x="147" y="-55" type="curve" smooth="yes"/>
      <point x="87" y="-55"/>
      <point x="50" y="-92"/>
      <point x="50" y="-155" type="curve" smooth="yes"/>
      <point x="50" y="-217"/>
      <point x="90" y="-253"/>
      <point x="147" y="-253" type="curve"/>
      <point x="202" y="-253"/>
      <point x="234" y="-216"/>
      <point x="234" y="-155" type="curve"/>
      <point x="211" y="-155" type="line"/>
      <point x="211" y="-206"/>
      <point x="176" y="-233"/>
      <point x="105" y="-233" type="curve"/>
    </contour>
    <contour>
      <point x="145" y="-196" type="curve" smooth="yes"/>
      <point x="122" y="-196"/>
      <point x="110" y="-179"/>
      <point x="110" y="-155" type="curve" smooth="yes"/>
      <point x="110" y="-131"/>
      <point x="122" y="-113"/>
      <point x="145" y="-113" type="curve" smooth="yes"/>
      <point x="169" y="-113"/>
      <point x="181" y="-131"/>
      <point x="181" y="-155" type="curve" smooth="yes"/>
      <point x="181" y="-180"/>
      <point x="170" y="-196"/>
    </contour>
  </outline>
</glyph>
<glyph name="saraUu-thai" format="2">
  <unicode hex="0E39"/>
  <anchor x="376" y="0" name="_bottomright"/>
  <anchor x="373" y="-318" name="bottomright"/>
  <outline>
    <contour>
      <point x="238" y="-318" type="curve" smooth="yes"/>
      <point x="334" y="-318"/>
      <point x="376" y="-267"/>
      <point x="376" y="-195" type="curve" smooth="yes"/>
      <point x="376" y="-60" type="line"/>
      <point x="254" y="-60" type="line"/>
      <point x="254" y="-207" type="line" smooth="yes"/>
      <point x="254" y="-219"/>
      <point x="249" y="-228"/>
      <point x="237" y="-228" type="curve" smooth="yes"/>
      <point x="226" y="-228"/>
      <point x="220" y="-219"/>
      <point x="220" y="-207" type="curve" smooth="yes"/>
      <point x="220" y="-153" type="line" smooth="yes"/>
      <point x="220" y="-104"/>
      <point x="197" y="-55"/>
      <point x="133" y="-55" type="curve" smooth="yes"/>
      <point x="78" y="-55"/>
      <point x="48" y="-94"/>
      <point x="48" y="-146" type="curve" smooth="yes"/>
      <point x="48" y="-203"/>
      <point x="89" y="-238"/>
      <point x="136" y="-238" type="curve" smooth="yes"/>
      <point x="186" y="-238"/>
      <point x="215" y="-199"/>
      <point x="215" y="-146" type="curve"/>
      <point x="188" y="-146" type="line"/>
      <point x="188" y="-193"/>
      <point x="158" y="-216"/>
      <point x="105" y="-216" type="curve"/>
      <point x="105" y="-231" type="line" smooth="yes"/>
      <point x="105" y="-270"/>
      <point x="143" y="-318"/>
    </contour>
    <contour>
      <point x="134" y="-182" type="curve" smooth="yes"/>
      <point x="114" y="-182"/>
      <point x="104" y="-168"/>
      <point x="104" y="-146" type="curve" smooth="yes"/>
      <point x="104" y="-124"/>
      <point x="114" y="-109"/>
      <point x="134" y="-109" type="curve" smooth="yes"/>
      <point x="154" y="-109"/>
      <point x="164" y="-124"/>
      <point x="164" y="-146" type="curve" smooth="yes"/>
      <point x="164" y="-168"/>
      <point x="154" y="-182"/>
    </contour>
  </outline>
</glyph>
<glyph name="phinthu-thai" format="2">
  <unicode hex="0E3A"/>
  <anchor x="218" y="0" name="_bottomright"/>
  <anchor x="218" y="-255" name="bottomright"/>
  <outline>
    <contour>
      <point x="137" y="-254" type="curve" smooth="yes"/>
      <point x="184" y="-254"/>
      <point x="223" y="-212"/>
      <point x="223" y="-155" type="curve" smooth="yes"/>
      <point x="223" y="-97"/>
      <point x="184" y="-55"/>
      <point x="137" y="-55" type="curve" smooth="yes"/>
      <point x="88" y="-55"/>
      <point x="50" y="-97"/>
      <point x="50" y="-155" type="curve" smooth="yes"/>
      <point x="50" y="-212"/>
      <point x="88" y="-254"/>
    </contour>
  </outline>
</glyph>
<glyph name="saraE-thai" format="2">
  <advance width="296"/>
  <unicode hex="0E40"/>
  <anchor x="261" y="0" name="bottomright"/>
  <anchor x="229" y="561" name="topright"/>
  <outline>
    <contour>
      <point x="209" y="561" type="line"/>
      <point x="53" y="561" type="line"/>
      <point x="53" y="144" type="line" smooth="yes"/>
      <point x="53" y="36"/>
      <point x="103" y="-10"/>
      <point x="172" y="-10" type="curve" smooth="yes"/>
      <point x="242" y="-10"/>
      <point x="282" y="38"/>
      <point x="282" y="97" type="curve" smooth="yes"/>
      <point x="282" y="155"/>
      <point x="247" y="204"/>
      <point x="193" y="204" type="curve" smooth="yes"/>
      <point x="126" y="204"/>
      <point x="84" y="173"/>
      <point x="84" y="97" type="curve"/>
      <point x="105" y="97" type="line"/>
      <point x="105" y="153"/>
      <point x="147" y="187"/>
      <point x="209" y="187" type="curve"/>
    </contour>
    <contour>
      <point x="180" y="143" type="curve" smooth="yes"/>
      <point x="205" y="143"/>
      <point x="219" y="126"/>
      <point x="219" y="97" type="curve" smooth="yes"/>
      <point x="219" y="68"/>
      <point x="205" y="51"/>
      <point x="180" y="51" type="curve" smooth="yes"/>
      <point x="155" y="51"/>
      <point x="141" y="68"/>
      <point x="141" y="97" type="curve" smooth="yes"/>
      <point x="141" y="127"/>
      <point x="155" y="143"/>
    </contour>
  </outline>
</glyph>
<glyph name="saraAe-thai" format="2">
  <advance width="557"/>
  <unicode hex="0E41"/>
  <anchor x="380" y="0" name="bottomright"/>
  <anchor x="334" y="561" name="topright"/>
  <outline>
    <contour>
      <point x="172" y="-10" type="curve" smooth="yes"/>
      <point x="242" y="-10"/>
      <point x="282" y="38"/>
      <point x="282" y="97" type="curve" smooth="yes"/>
      <point x="282" y="155"/>
      <point x="247" y="204"/>
      <point x="193" y="204" type="curve" smooth="yes"/>
      <point x="126" y="204"/>
      <point x="84" y="173"/>
      <point x="84" y="97" type="curve"/>
      <point x="105" y="97" type="line"/>
      <point x="105" y="153"/>
      <point x="147" y="187"/>
      <point x="209" y="187" type="curve"/>
      <point x="209" y="561" type="line"/>
      <point x="53" y="561" type="line"/>
      <point x="53" y="144" type="line"/>
      <point x="53" y="36"/>
      <point x="103" y="-10"/>
    </contour>
    <contour>
      <point x="180" y="51" type="curve" smooth="yes"/>
      <point x="155" y="51"/>
      <point x="141" y="68"/>
      <point x="141" y="97" type="curve" smooth="yes"/>
      <point x="141" y="127"/>
      <point x="155" y="143"/>
      <point x="180" y="143" type="curve" smooth="yes"/>
      <point x="205" y="143"/>
      <point x="219" y="126"/>
      <point x="219" y="97" type="curve" smooth="yes"/>
      <point x="219" y="68"/>
      <point x="205" y="51"/>
    </contour>
    <contour>
      <point x="433" y="-10" type="curve" smooth="yes"/>
      <point x="503" y="-10"/>
      <point x="543" y="38"/>
      <point x="543" y="97" type="curve" smooth="yes"/>
      <point x="543" y="155"/>
      <point x="508" y="204"/>
      <point x="454" y="204" type="curve" smooth="yes"/>
      <point x="387" y="204"/>
      <point x="345" y="173"/>
      <point x="345" y="97" type="curve"/>
      <point x="366" y="97" type="line"/>
      <point x="366" y="153"/>
      <point x="408" y="187"/>
      <point x="470" y="187" type="curve"/>
      <point x="470" y="561" type="line"/>
      <point x="314" y="561" type="line"/>
      <point x="314" y="144" type="line"/>
      <point x="314" y="36"/>
      <point x="364" y="-10"/>
    </contour>
    <contour>
      <point x="441" y="51" type="curve" smooth="yes"/>
      <point x="416" y="51"/>
      <point x="402" y="68"/>
      <point x="402" y="97" type="curve" smooth="yes"/>
      <point x="402" y="127"/>
      <point x="416" y="143"/>
      <point x="441" y="143" type="curve" smooth="yes"/>
      <point x="466" y="143"/>
      <point x="480" y="126"/>
      <point x="480" y="97" type="curve" smooth="yes"/>
      <point x="480" y="68"/>
      <point x="466" y="51"/>
    </contour>
  </outline>
</glyph>
<glyph name="saraO-thai" format="2">
  <advance width="366"/>
  <unicode hex="0E42"/>
  <anchor x="326" y="0" name="bottomright"/>
  <anchor x="298" y="918" name="topright"/>
  <outline>
    <contour>
      <point x="358" y="918" type="line"/>
      <point x="341" y="914"/>
      <point x="316" y="912"/>
      <point x="296" y="912" type="curve" smooth="yes"/>
      <point x="253" y="912"/>
      <point x="225" y="928"/>
      <point x="170" y="928" type="curve" smooth="yes"/>
      <point x="62" y="928"/>
      <point x="-5" y="871"/>
      <point x="-5" y="740" type="curve" smooth="yes"/>
      <point x="-5" y="672" type="line"/>
      <point x="86" y="666"/>
      <point x="118" y="630"/>
      <point x="118" y="550" type="curve" smooth="yes"/>
      <point x="118" y="144" type="line" smooth="yes"/>
      <point x="118" y="36"/>
      <point x="168" y="-10"/>
      <point x="237" y="-10" type="curve" smooth="yes"/>
      <point x="307" y="-10"/>
      <point x="347" y="38"/>
      <point x="347" y="97" type="curve" smooth="yes"/>
      <point x="347" y="155"/>
      <point x="312" y="204"/>
      <point x="258" y="204" type="curve" smooth="yes"/>
      <point x="191" y="204"/>
      <point x="149" y="173"/>
      <point x="149" y="97" type="curve"/>
      <point x="170" y="97" type="line"/>
      <point x="170" y="153"/>
      <point x="212" y="187"/>
      <point x="274" y="187" type="curve"/>
      <point x="274" y="545" type="line" smooth="yes"/>
      <point x="274" y="645"/>
      <point x="261" y="714"/>
      <point x="146" y="748" type="curve"/>
      <point x="146" y="759" type="line" smooth="yes"/>
      <point x="146" y="780"/>
      <point x="159" y="791"/>
      <point x="187" y="791" type="curve" smooth="yes"/>
      <point x="230" y="791"/>
      <point x="265" y="775"/>
      <point x="304" y="775" type="curve" smooth="yes"/>
      <point x="327" y="775"/>
      <point x="349" y="777"/>
      <point x="367" y="782" type="curve"/>
    </contour>
    <contour>
      <point x="245" y="143" type="curve" smooth="yes"/>
      <point x="270" y="143"/>
      <point x="284" y="126"/>
      <point x="284" y="97" type="curve" smooth="yes"/>
      <point x="284" y="68"/>
      <point x="270" y="51"/>
      <point x="245" y="51" type="curve" smooth="yes"/>
      <point x="220" y="51"/>
      <point x="206" y="68"/>
      <point x="206" y="97" type="curve" smooth="yes"/>
      <point x="206" y="127"/>
      <point x="220" y="143"/>
    </contour>
  </outline>
</glyph>
<glyph name="saraAiMaimuan-thai" format="2">
  <advance width="365"/>
  <unicode hex="0E43"/>
  <anchor x="310" y="0" name="bottomright"/>
  <anchor x="295" y="918" name="topright"/>
  <outline>
    <contour>
      <point x="171" y="933" type="curve" smooth="yes"/>
      <point x="68" y="933"/>
      <point x="-8" y="869"/>
      <point x="-8" y="756" type="curve" smooth="yes"/>
      <point x="-8" y="682"/>
      <point x="32" y="637"/>
      <point x="92" y="637" type="curve" smooth="yes"/>
      <point x="148" y="637"/>
      <point x="185" y="676"/>
      <point x="185" y="736" type="curve" smooth="yes"/>
      <point x="185" y="784"/>
      <point x="161" y="831"/>
      <point x="110" y="831" type="curve" smooth="yes"/>
      <point x="97" y="831"/>
      <point x="81" y="826"/>
      <point x="69" y="817" type="curve"/>
      <point x="113" y="781" type="line"/>
      <point x="113" y="797"/>
      <point x="130" y="816"/>
      <point x="158" y="816" type="curve" smooth="yes"/>
      <point x="195" y="816"/>
      <point x="215" y="779"/>
      <point x="215" y="729" type="curve" smooth="yes"/>
      <point x="215" y="653"/>
      <point x="179" y="605"/>
      <point x="102" y="566" type="curve"/>
      <point x="102" y="144" type="line" smooth="yes"/>
      <point x="102" y="36"/>
      <point x="152" y="-10"/>
      <point x="221" y="-10" type="curve" smooth="yes"/>
      <point x="291" y="-10"/>
      <point x="331" y="38"/>
      <point x="331" y="97" type="curve" smooth="yes"/>
      <point x="331" y="155"/>
      <point x="296" y="204"/>
      <point x="242" y="204" type="curve" smooth="yes"/>
      <point x="175" y="204"/>
      <point x="133" y="173"/>
      <point x="133" y="97" type="curve"/>
      <point x="154" y="97" type="line"/>
      <point x="154" y="153"/>
      <point x="196" y="187"/>
      <point x="258" y="187" type="curve"/>
      <point x="258" y="515" type="line"/>
      <point x="323" y="566"/>
      <point x="360" y="626"/>
      <point x="360" y="735" type="curve" smooth="yes"/>
      <point x="360" y="839"/>
      <point x="294" y="933"/>
    </contour>
    <contour>
      <point x="229" y="143" type="curve" smooth="yes"/>
      <point x="254" y="143"/>
      <point x="268" y="126"/>
      <point x="268" y="97" type="curve" smooth="yes"/>
      <point x="268" y="68"/>
      <point x="254" y="51"/>
      <point x="229" y="51" type="curve" smooth="yes"/>
      <point x="204" y="51"/>
      <point x="190" y="68"/>
      <point x="190" y="97" type="curve" smooth="yes"/>
      <point x="190" y="127"/>
      <point x="204" y="143"/>
    </contour>
    <contour>
      <point x="91" y="692" type="curve" smooth="yes"/>
      <point x="69" y="692"/>
      <point x="55" y="710"/>
      <point x="55" y="737" type="curve" smooth="yes"/>
      <point x="55" y="764"/>
      <point x="69" y="782"/>
      <point x="91" y="782" type="curve" smooth="yes"/>
      <point x="112" y="782"/>
      <point x="126" y="764"/>
      <point x="126" y="737" type="curve" smooth="yes"/>
      <point x="126" y="710"/>
      <point x="112" y="692"/>
    </contour>
  </outline>
</glyph>
<glyph name="saraAiMaimalai-thai" format="2">
  <advance width="362"/>
  <unicode hex="0E44"/>
  <anchor x="316" y="0" name="bottomright"/>
  <anchor x="304" y="918" name="topright"/>
  <outline>
    <contour>
      <point x="373" y="746" type="curve" smooth="yes"/>
      <point x="373" y="857"/>
      <point x="311" y="928"/>
      <point x="180" y="928" type="curve"/>
      <point x="77" y="760" type="line"/>
      <point x="117" y="760" type="line"/>
      <point x="111" y="823"/>
      <point x="89" y="881"/>
      <point x="56" y="928" type="curve"/>
      <point x="-59" y="870" type="line"/>
      <point x="-9" y="814"/>
      <point x="34" y="749"/>
      <point x="61" y="670" type="curve"/>
      <point x="131" y="670" type="line"/>
      <point x="232" y="829" type="line"/>
      <point x="150" y="808" type="line"/>
      <point x="193" y="808"/>
      <point x="219" y="779"/>
      <point x="219" y="737" type="curve" smooth="yes"/>
      <point x="219" y="673"/>
      <point x="166" y="617"/>
      <point x="108" y="575" type="curve"/>
      <point x="108" y="144" type="line" smooth="yes"/>
      <point x="108" y="36"/>
      <point x="158" y="-10"/>
      <point x="227" y="-10" type="curve" smooth="yes"/>
      <point x="297" y="-10"/>
      <point x="337" y="38"/>
      <point x="337" y="97" type="curve" smooth="yes"/>
      <point x="337" y="155"/>
      <point x="302" y="204"/>
      <point x="248" y="204" type="curve" smooth="yes"/>
      <point x="181" y="204"/>
      <point x="139" y="173"/>
      <point x="139" y="97" type="curve"/>
      <point x="160" y="97" type="line"/>
      <point x="160" y="153"/>
      <point x="202" y="187"/>
      <point x="264" y="187" type="curve"/>
      <point x="264" y="524" type="line"/>
      <point x="325" y="577"/>
      <point x="373" y="637"/>
    </contour>
    <contour>
      <point x="235" y="143" type="curve" smooth="yes"/>
      <point x="260" y="143"/>
      <point x="274" y="126"/>
      <point x="274" y="97" type="curve" smooth="yes"/>
      <point x="274" y="68"/>
      <point x="260" y="51"/>
      <point x="235" y="51" type="curve" smooth="yes"/>
      <point x="210" y="51"/>
      <point x="196" y="68"/>
      <point x="196" y="97" type="curve" smooth="yes"/>
      <point x="196" y="127"/>
      <point x="210" y="143"/>
    </contour>
    <contour>
      <point x="95" y="816" type="line"/>
      <point x="95" y="804" type="line"/>
      <point x="124" y="804" type="line"/>
      <point x="124" y="816" type="line"/>
    </contour>
  </outline>
</glyph>
<glyph name="lakkhangyao-thai" format="2">
  <advance width="424"/>
  <unicode hex="0E45"/>
  <anchor x="181" y="0" name="bottomright"/>
  <anchor x="367" y="561" name="topright"/>
  <outline>
    <contour>
      <point x="53" y="405" type="line"/>
      <point x="85" y="422"/>
      <point x="119" y="437"/>
      <point x="153" y="437" type="curve" smooth="yes"/>
      <point x="200" y="437"/>
      <point x="216" y="410"/>
      <point x="216" y="359" type="curve" smooth="yes"/>
      <point x="216" y="-258" type="line"/>
      <point x="372" y="-258" type="line"/>
      <point x="372" y="394" type="line" smooth="yes"/>
      <point x="372" y="519"/>
      <point x="299" y="576"/>
      <point x="184" y="576" type="curve" smooth="yes"/>
      <point x="119" y="576"/>
      <point x="59" y="561"/>
      <point x="8" y="536" type="curve"/>
    </contour>
  </outline>
</glyph>
<glyph name="maiyamok-thai" format="2">
  <advance width="495"/>
  <unicode hex="0E46"/>
  <outline>
    <contour>
      <point x="371" y="-117" type="line"/>
      <point x="419" y="-37"/>
      <point x="440" y="32"/>
      <point x="440" y="141" type="curve" smooth="yes"/>
      <point x="440" y="415" type="line" smooth="yes"/>
      <point x="440" y="507"/>
      <point x="384" y="576"/>
      <point x="281" y="576" type="curve"/>
      <point x="214" y="513" type="line"/>
      <point x="138" y="578" type="line"/>
      <point x="63" y="553"/>
      <point x="7" y="481"/>
      <point x="7" y="372" type="curve" smooth="yes"/>
      <point x="7" y="262"/>
      <point x="64" y="203"/>
      <point x="142" y="203" type="curve" smooth="yes"/>
      <point x="209" y="203"/>
      <point x="243" y="249"/>
      <point x="243" y="310" type="curve" smooth="yes"/>
      <point x="243" y="369"/>
      <point x="209" y="413"/>
      <point x="157" y="413" type="curve" smooth="yes"/>
      <point x="123" y="413"/>
      <point x="72" y="393"/>
      <point x="72" y="310" type="curve"/>
      <point x="134" y="376" type="line"/>
      <point x="134" y="422"/>
      <point x="141" y="448"/>
      <point x="159" y="461" type="curve"/>
      <point x="208" y="420" type="line"/>
      <point x="220" y="420" type="line"/>
      <point x="265" y="461" type="line"/>
      <point x="279" y="450"/>
      <point x="283" y="433"/>
      <point x="283" y="406" type="curve" smooth="yes"/>
      <point x="283" y="149" type="line" smooth="yes"/>
      <point x="283" y="64"/>
      <point x="273" y="18"/>
      <point x="224" y="-66" type="curve"/>
    </contour>
    <contour>
      <point x="142" y="264" type="curve" smooth="yes"/>
      <point x="118" y="264"/>
      <point x="103" y="281"/>
      <point x="103" y="310" type="curve" smooth="yes"/>
      <point x="103" y="339"/>
      <point x="118" y="356"/>
      <point x="142" y="356" type="curve" smooth="yes"/>
      <point x="165" y="356"/>
      <point x="180" y="338"/>
      <point x="180" y="310" type="curve" smooth="yes"/>
      <point x="180" y="281"/>
      <point x="165" y="264"/>
    </contour>
  </outline>
</glyph>
<glyph name="maitaikhu-thai" format="2">
  <unicode hex="0E47"/>
  <anchor x="437" y="561" name="_topright"/>
  <anchor x="428" y="988" name="topright"/>
  <outline>
    <contour>
      <point x="335" y="630" type="curve" smooth="yes"/>
      <point x="402" y="630"/>
      <point x="442" y="681"/>
      <point x="442" y="749" type="curve" smooth="yes"/>
      <point x="442" y="801"/>
      <point x="412" y="843"/>
      <point x="361" y="843" type="curve" smooth="yes"/>
      <point x="312" y="843"/>
      <point x="283" y="810"/>
      <point x="283" y="760" type="curve" smooth="yes"/>
      <point x="283" y="710"/>
      <point x="318" y="681"/>
      <point x="359" y="681" type="curve" smooth="yes"/>
      <point x="369" y="681"/>
      <point x="374" y="684"/>
      <point x="378" y="687" type="curve"/>
      <point x="322" y="736" type="line"/>
      <point x="316" y="731"/>
      <point x="310" y="729"/>
      <point x="300" y="729" type="curve" smooth="yes"/>
      <point x="271" y="729"/>
      <point x="259" y="765"/>
      <point x="259" y="810" type="curve"/>
      <point x="206" y="810" type="line"/>
      <point x="143" y="681" type="line"/>
      <point x="198" y="718" type="line"/>
      <point x="166" y="718"/>
      <point x="151" y="760"/>
      <point x="151" y="800" type="curve" smooth="yes"/>
      <point x="151" y="846"/>
      <point x="176" y="873"/>
      <point x="234" y="873" type="curve" smooth="yes"/>
      <point x="322" y="873"/>
      <point x="387" y="873"/>
      <point x="428" y="900" type="curve"/>
      <point x="402" y="988" type="line"/>
      <point x="359" y="961"/>
      <point x="306" y="961"/>
      <point x="228" y="961" type="curve" smooth="yes"/>
      <point x="116" y="961"/>
      <point x="50" y="913"/>
      <point x="50" y="797" type="curve" smooth="yes"/>
      <point x="50" y="727"/>
      <point x="90" y="665"/>
      <point x="139" y="635" type="curve"/>
      <point x="199" y="635" type="line"/>
      <point x="249" y="730" type="line"/>
      <point x="221" y="729" type="line"/>
      <point x="221" y="686"/>
      <point x="269" y="630"/>
    </contour>
    <contour>
      <point x="360" y="724" type="curve" smooth="yes"/>
      <point x="341" y="724"/>
      <point x="332" y="738"/>
      <point x="332" y="760" type="curve" smooth="yes"/>
      <point x="332" y="782"/>
      <point x="341" y="797"/>
      <point x="360" y="797" type="curve" smooth="yes"/>
      <point x="378" y="797"/>
      <point x="388" y="782"/>
      <point x="388" y="760" type="curve" smooth="yes"/>
      <point x="388" y="738"/>
      <point x="378" y="724"/>
    </contour>
  </outline>
</glyph>
<glyph name="maiTri-thai" format="2">
  <unicode hex="0E4A"/>
  <anchor x="428" y="561" name="_topright"/>
  <anchor x="428" y="913" name="topright"/>
  <outline>
    <contour>
      <point x="136" y="750" type="curve" smooth="yes"/>
      <point x="118" y="750"/>
      <point x="108" y="736"/>
      <point x="108" y="714" type="curve" smooth="yes"/>
      <point x="108" y="692"/>
      <point x="118" y="677"/>
      <point x="136" y="677" type="curve" smooth="yes"/>
      <point x="155" y="677"/>
      <point x="165" y="692"/>
      <point x="165" y="714" type="curve" smooth="yes"/>
      <point x="165" y="736"/>
      <point x="155" y="750"/>
    </contour>
    <contour>
      <point x="540" y="901" type="line"/>
      <point x="540" y="747"/>
      <point x="494" y="633"/>
      <point x="363" y="633" type="curve" smooth="yes"/>
      <point x="331" y="633"/>
      <point x="310" y="635"/>
      <point x="283" y="641" type="curve"/>
      <point x="283" y="665" type="line"/>
      <point x="292" y="683"/>
      <point x="299" y="713"/>
      <point x="299" y="739" type="curve" smooth="yes"/>
      <point x="299" y="765"/>
      <point x="296" y="783"/>
      <point x="285" y="801" type="curve"/>
      <point x="248" y="751" type="line"/>
      <point x="230" y="751" type="line"/>
      <point x="187" y="801" type="line"/>
      <point x="181" y="795"/>
      <point x="177" y="786"/>
      <point x="177" y="776" type="curve" smooth="yes"/>
      <point x="177" y="767"/>
      <point x="178" y="758"/>
      <point x="179" y="754" type="curve"/>
      <point x="112" y="797" type="line"/>
      <point x="120" y="799"/>
      <point x="127" y="800"/>
      <point x="135" y="800" type="curve" smooth="yes"/>
      <point x="178" y="800"/>
      <point x="216" y="764"/>
      <point x="216" y="715" type="curve" smooth="yes"/>
      <point x="216" y="667"/>
      <point x="188" y="630"/>
      <point x="138" y="630" type="curve" smooth="yes"/>
      <point x="79" y="630"/>
      <point x="50" y="674"/>
      <point x="50" y="746" type="curve" smooth="yes"/>
      <point x="50" y="826"/>
      <point x="97" y="895"/>
      <point x="179" y="913" type="curve"/>
      <point x="240" y="850" type="line"/>
      <point x="298" y="913" type="line"/>
      <point x="374" y="891"/>
      <point x="399" y="833"/>
      <point x="399" y="769" type="curve" smooth="yes"/>
      <point x="399" y="735"/>
      <point x="385" y="695"/>
      <point x="374" y="672" type="curve"/>
      <point x="331" y="723" type="line"/>
      <point x="341" y="720"/>
      <point x="350" y="718"/>
      <point x="360" y="718" type="curve" smooth="yes"/>
      <point x="428" y="718"/>
      <point x="424" y="796"/>
      <point x="424" y="905" type="curve"/>
    </contour>
  </outline>
</glyph>
<glyph name="maiChattawa-thai" format="2">
  <unicode hex="0E4B"/>
  <anchor x="332" y="561" name="_topright"/>
  <anchor x="332" y="885" name="topright"/>
  <outline>
    <contour>
      <point x="138" y="885" type="line"/>
      <point x="141" y="760" type="line"/>
      <point x="138" y="635" type="line"/>
      <point x="251" y="635" type="line"/>
      <point x="249" y="760" type="line"/>
      <point x="251" y="885" type="line"/>
    </contour>
    <contour>
      <point x="54" y="814" type="line"/>
      <point x="54" y="706" type="line"/>
      <point x="193" y="711" type="line"/>
      <point x="332" y="706" type="line"/>
      <point x="332" y="814" type="line"/>
      <point x="193" y="809" type="line"/>
    </contour>
  </outline>
</glyph>
<glyph name="nikhahit-thai" format="2">
  <unicode hex="0E4D"/>
  <anchor x="242" y="561" name="_topright"/>
  <anchor x="223" y="877" name="topright"/>
  <outline>
    <contour>
      <point x="166" y="630" type="curve" smooth="yes"/>
      <point x="236" y="630"/>
      <point x="281" y="681"/>
      <point x="281" y="756" type="curve" smooth="yes"/>
      <point x="281" y="831"/>
      <point x="236" y="882"/>
      <point x="166" y="882" type="curve" smooth="yes"/>
      <point x="95" y="882"/>
      <point x="50" y="831"/>
      <point x="50" y="756" type="curve" smooth="yes"/>
      <point x="50" y="681"/>
      <point x="95" y="630"/>
    </contour>
    <contour>
      <point x="166" y="700" type="curve" smooth="yes"/>
      <point x="140" y="700"/>
      <point x="128" y="723"/>
      <point x="128" y="756" type="curve" smooth="yes"/>
      <point x="128" y="789"/>
      <point x="140" y="812"/>
      <point x="166" y="812" type="curve" smooth="yes"/>
      <point x="191" y="812"/>
      <point x="203" y="789"/>
      <point x="203" y="756" type="curve" smooth="yes"/>
      <point x="203" y="723"/>
      <point x="191" y="700"/>
    </contour>
  </outline>
</glyph>
<glyph name="yamakkan-thai" format="2">
  <unicode hex="0E4E"/>
  <anchor x="286" y="561" name="_topright"/>
  <anchor x="325" y="1019" name="topright"/>
  <outline>
    <contour>
      <point x="189" y="630" type="curve" smooth="yes"/>
      <point x="230" y="630"/>
      <point x="257" y="635"/>
      <point x="286" y="647" type="curve"/>
      <point x="264" y="743" type="line"/>
      <point x="243" y="731"/>
      <point x="225" y="725"/>
      <point x="204" y="725" type="curve" smooth="yes"/>
      <point x="177" y="725"/>
      <point x="162" y="738"/>
      <point x="162" y="759" type="curve" smooth="yes"/>
      <point x="162" y="779"/>
      <point x="176" y="791"/>
      <point x="202" y="791" type="curve" smooth="yes"/>
      <point x="216" y="791"/>
      <point x="233" y="790"/>
      <point x="253" y="788" type="curve"/>
      <point x="253" y="860" type="line"/>
      <point x="223" y="860"/>
      <point x="202" y="874"/>
      <point x="202" y="895" type="curve" smooth="yes"/>
      <point x="202" y="914"/>
      <point x="214" y="924"/>
      <point x="238" y="924" type="curve" smooth="yes"/>
      <point x="260" y="924"/>
      <point x="284" y="918"/>
      <point x="309" y="906" type="curve"/>
      <point x="325" y="998" type="line"/>
      <point x="287" y="1012"/>
      <point x="258" y="1019"/>
      <point x="213" y="1019" type="curve" smooth="yes"/>
      <point x="146" y="1019"/>
      <point x="92" y="992"/>
      <point x="92" y="922" type="curve" smooth="yes"/>
      <point x="92" y="879"/>
      <point x="131" y="833"/>
      <point x="168" y="833" type="curve"/>
      <point x="168" y="844" type="line"/>
      <point x="163" y="846"/>
      <point x="154" y="848"/>
      <point x="144" y="848" type="curve" smooth="yes"/>
      <point x="97" y="848"/>
      <point x="50" y="809"/>
      <point x="50" y="751" type="curve" smooth="yes"/>
      <point x="50" y="672"/>
      <point x="110" y="630"/>
    </contour>
  </outline>
</glyph>
<glyph name="fongman-thai" format="2">
  <advance width="435"/>
  <unicode hex="0E4F"/>
  <outline>
    <contour>
      <point x="217" y="30" type="curve" smooth="yes"/>
      <point x="329" y="30"/>
      <point x="403" y="134"/>
      <point x="403" y="261" type="curve" smooth="yes"/>
      <point x="403" y="388"/>
      <point x="329" y="492"/>
      <point x="217" y="492" type="curve" smooth="yes"/>
      <point x="106" y="492"/>
      <point x="32" y="389"/>
      <point x="32" y="261" type="curve" smooth="yes"/>
      <point x="32" y="133"/>
      <point x="106" y="30"/>
    </contour>
    <contour>
      <point x="217" y="81" type="curve" smooth="yes"/>
      <point x="134" y="81"/>
      <point x="81" y="162"/>
      <point x="81" y="261" type="curve" smooth="yes"/>
      <point x="81" y="360"/>
      <point x="134" y="441"/>
      <point x="217" y="441" type="curve" smooth="yes"/>
      <point x="301" y="441"/>
      <point x="354" y="359"/>
      <point x="354" y="261" type="curve" smooth="yes"/>
      <point x="354" y="163"/>
      <point x="301" y="81"/>
    </contour>
    <contour>
      <point x="217" y="131" type="curve" smooth="yes"/>
      <point x="282" y="131"/>
      <point x="320" y="187"/>
      <point x="320" y="261" type="curve" smooth="yes"/>
      <point x="320" y="335"/>
      <point x="282" y="391"/>
      <point x="217" y="391" type="curve" smooth="yes"/>
      <point x="152" y="391"/>
      <point x="115" y="334"/>
      <point x="115" y="261" type="curve" smooth="yes"/>
      <point x="115" y="188"/>
      <point x="152" y="131"/>
    </contour>
  </outline>
</glyph>
<glyph name="zero-thai" format="2">
  <advance width="529"/>
  <unicode hex="0E50"/>
  <outline>
    <contour>
      <point x="264" y="-15" type="curve" smooth="yes"/>
      <point x="419" y="-15"/>
      <point x="507" y="101"/>
      <point x="507" y="261" type="curve" smooth="yes"/>
      <point x="507" y="420"/>
      <point x="419" y="538"/>
      <point x="264" y="538" type="curve" smooth="yes"/>
      <point x="110" y="538"/>
      <point x="22" y="420"/>
      <point x="22" y="261" type="curve" smooth="yes"/>
      <point x="22" y="101"/>
      <point x="110" y="-15"/>
    </contour>
    <contour>
      <point x="264" y="122" type="curve" smooth="yes"/>
      <point x="203" y="122"/>
      <point x="177" y="174"/>
      <point x="177" y="261" type="curve" smooth="yes"/>
      <point x="177" y="347"/>
      <point x="203" y="401"/>
      <point x="264" y="401" type="curve" smooth="yes"/>
      <point x="326" y="401"/>
      <point x="352" y="347"/>
      <point x="352" y="261" type="curve" smooth="yes"/>
      <point x="352" y="174"/>
      <point x="326" y="122"/>
    </contour>
  </outline>
</glyph>
<glyph name="one-thai" format="2">
  <advance width="507"/>
  <unicode hex="0E51"/>
  <outline>
    <contour>
      <point x="247" y="-117" type="line"/>
      <point x="397" y="-40"/>
      <point x="489" y="80"/>
      <point x="489" y="256" type="curve" smooth="yes"/>
      <point x="489" y="408"/>
      <point x="416" y="536"/>
      <point x="245" y="536" type="curve" smooth="yes"/>
      <point x="94" y="536"/>
      <point x="14" y="433"/>
      <point x="14" y="311" type="curve" smooth="yes"/>
      <point x="14" y="193"/>
      <point x="83" y="114"/>
      <point x="183" y="114" type="curve" smooth="yes"/>
      <point x="249" y="114"/>
      <point x="290" y="159"/>
      <point x="290" y="220" type="curve" smooth="yes"/>
      <point x="290" y="278"/>
      <point x="257" y="323"/>
      <point x="195" y="323" type="curve" smooth="yes"/>
      <point x="133" y="323"/>
      <point x="95" y="278"/>
      <point x="95" y="220" type="curve" smooth="yes"/>
      <point x="95" y="195"/>
      <point x="103" y="179"/>
      <point x="111" y="167" type="curve"/>
      <point x="169" y="274" type="line"/>
      <point x="166" y="289"/>
      <point x="165" y="298"/>
      <point x="165" y="313" type="curve" smooth="yes"/>
      <point x="165" y="354"/>
      <point x="185" y="399"/>
      <point x="243" y="399" type="curve" smooth="yes"/>
      <point x="305" y="399"/>
      <point x="334" y="341"/>
      <point x="334" y="256" type="curve" smooth="yes"/>
      <point x="334" y="149"/>
      <point x="266" y="72"/>
      <point x="166" y="28" type="curve"/>
    </contour>
    <contour>
      <point x="192" y="176" type="curve" smooth="yes"/>
      <point x="170" y="176"/>
      <point x="155" y="192"/>
      <point x="155" y="220" type="curve" smooth="yes"/>
      <point x="155" y="250"/>
      <point x="170" y="265"/>
      <point x="192" y="265" type="curve" smooth="yes"/>
      <point x="214" y="265"/>
      <point x="230" y="249"/>
      <point x="230" y="220" type="curve" smooth="yes"/>
      <point x="230" y="192"/>
      <point x="214" y="176"/>
    </contour>
  </outline>
</glyph>
<glyph name="two-thai" format="2">
  <advance width="684"/>
  <unicode hex="0E52"/>
  <outline>
    <contour>
      <point x="57" y="0" type="line"/>
      <point x="504" y="0" type="line" smooth="yes"/>
      <point x="586" y="0"/>
      <point x="647" y="63"/>
      <point x="647" y="169" type="curve" smooth="yes"/>
      <point x="647" y="374" type="line" smooth="yes"/>
      <point x="647" y="465"/>
      <point x="594" y="536"/>
      <point x="491" y="536" type="curve"/>
      <point x="426" y="482" type="line"/>
      <point x="352" y="536" type="line"/>
      <point x="279" y="508"/>
      <point x="233" y="437"/>
      <point x="233" y="339" type="curve" smooth="yes"/>
      <point x="233" y="235"/>
      <point x="283" y="173"/>
      <point x="358" y="173" type="curve" smooth="yes"/>
      <point x="421" y="173"/>
      <point x="456" y="213"/>
      <point x="456" y="273" type="curve" smooth="yes"/>
      <point x="456" y="332"/>
      <point x="414" y="370"/>
      <point x="365" y="370" type="curve" smooth="yes"/>
      <point x="309" y="370"/>
      <point x="268" y="332"/>
      <point x="268" y="270" type="curve"/>
      <point x="352" y="333" type="line"/>
      <point x="350" y="342"/>
      <point x="349" y="351"/>
      <point x="349" y="360" type="curve" smooth="yes"/>
      <point x="349" y="388"/>
      <point x="360" y="411"/>
      <point x="372" y="422" type="curve"/>
      <point x="422" y="382" type="line"/>
      <point x="431" y="382" type="line"/>
      <point x="474" y="422" type="line"/>
      <point x="492" y="411"/>
      <point x="495" y="390"/>
      <point x="495" y="367" type="curve" smooth="yes"/>
      <point x="495" y="185" type="line" smooth="yes"/>
      <point x="495" y="141"/>
      <point x="474" y="133"/>
      <point x="446" y="133" type="curve" smooth="yes"/>
      <point x="209" y="133" type="line"/>
      <point x="209" y="436" type="line" smooth="yes"/>
      <point x="209" y="511"/>
      <point x="204" y="562"/>
      <point x="184" y="625" type="curve"/>
      <point x="33" y="585" type="line"/>
      <point x="54" y="521"/>
      <point x="57" y="469"/>
      <point x="57" y="416" type="curve" smooth="yes"/>
    </contour>
    <contour>
      <point x="359" y="231" type="curve" smooth="yes"/>
      <point x="336" y="231"/>
      <point x="323" y="247"/>
      <point x="323" y="273" type="curve" smooth="yes"/>
      <point x="323" y="301"/>
      <point x="336" y="315"/>
      <point x="359" y="315" type="curve" smooth="yes"/>
      <point x="383" y="315"/>
      <point x="396" y="300"/>
      <point x="396" y="273" type="curve" smooth="yes"/>
      <point x="396" y="247"/>
      <point x="383" y="231"/>
    </contour>
  </outline>
</glyph>
<glyph name="three-thai" format="2">
  <advance width="697"/>
  <unicode hex="0E53"/>
  <outline>
    <contour>
      <point x="167" y="-10" type="curve" smooth="yes"/>
      <point x="238" y="-10"/>
      <point x="272" y="38"/>
      <point x="272" y="97" type="curve" smooth="yes"/>
      <point x="272" y="154"/>
      <point x="239" y="203"/>
      <point x="179" y="203" type="curve" smooth="yes"/>
      <point x="117" y="203"/>
      <point x="80" y="164"/>
      <point x="80" y="97" type="curve"/>
      <point x="101" y="97" type="line"/>
      <point x="101" y="153"/>
      <point x="139" y="186"/>
      <point x="201" y="186" type="curve"/>
      <point x="201" y="337" type="line" smooth="yes"/>
      <point x="201" y="376"/>
      <point x="215" y="399"/>
      <point x="249" y="399" type="curve" smooth="yes"/>
      <point x="283" y="399"/>
      <point x="299" y="373"/>
      <point x="299" y="332" type="curve" smooth="yes"/>
      <point x="299" y="0" type="line"/>
      <point x="428" y="0" type="line"/>
      <point x="428" y="341" type="line" smooth="yes"/>
      <point x="428" y="375"/>
      <point x="437" y="399"/>
      <point x="464" y="399" type="curve" smooth="yes"/>
      <point x="487" y="399"/>
      <point x="498" y="382"/>
      <point x="498" y="349" type="curve" smooth="yes"/>
      <point x="498" y="0" type="line"/>
      <point x="651" y="0" type="line"/>
      <point x="651" y="351" type="line" smooth="yes"/>
      <point x="651" y="469"/>
      <point x="588" y="536"/>
      <point x="498" y="536" type="curve" smooth="yes"/>
      <point x="412" y="536"/>
      <point x="356" y="469"/>
      <point x="351" y="400" type="curve"/>
      <point x="375" y="400" type="line"/>
      <point x="365" y="469"/>
      <point x="310" y="536"/>
      <point x="218" y="536" type="curve" smooth="yes"/>
      <point x="111" y="536"/>
      <point x="49" y="459"/>
      <point x="49" y="341" type="curve" smooth="yes"/>
      <point x="49" y="144" type="line" smooth="yes"/>
      <point x="49" y="36"/>
      <point x="98" y="-10"/>
    </contour>
    <contour>
      <point x="172" y="51" type="curve" smooth="yes"/>
      <point x="148" y="51"/>
      <point x="135" y="69"/>
      <point x="135" y="97" type="curve" smooth="yes"/>
      <point x="135" y="125"/>
      <point x="148" y="142"/>
      <point x="172" y="142" type="curve" smooth="yes"/>
      <point x="196" y="142"/>
      <point x="209" y="124"/>
      <point x="209" y="97" type="curve" smooth="yes"/>
      <point x="209" y="69"/>
      <point x="196" y="51"/>
    </contour>
    <contour>
      <point x="354" y="449" type="line"/>
      <point x="354" y="438" type="line"/>
      <point x="369" y="438" type="line"/>
      <point x="369" y="449" type="line"/>
    </contour>
  </outline>
</glyph>
<glyph name="four-thai" format="2">
  <advance width="602"/>
  <unicode hex="0E54"/>
  <outline>
    <contour>
      <point x="278" y="0" type="curve" smooth="yes"/>
      <point x="554" y="0" type="line"/>
      <point x="554" y="127" type="line"/>
      <point x="472" y="131" type="line" smooth="yes"/>
      <point x="431" y="133"/>
      <point x="412" y="137"/>
      <point x="412" y="170" type="curve" smooth="yes"/>
      <point x="412" y="178" type="line"/>
      <point x="359" y="178"/>
      <point x="327" y="207"/>
      <point x="327" y="254" type="curve"/>
      <point x="298" y="254" type="line"/>
      <point x="298" y="184"/>
      <point x="350" y="149"/>
      <point x="409" y="149" type="curve" smooth="yes"/>
      <point x="464" y="149"/>
      <point x="499" y="194"/>
      <point x="499" y="251" type="curve" smooth="yes"/>
      <point x="499" y="308"/>
      <point x="460" y="354"/>
      <point x="392" y="354" type="curve" smooth="yes"/>
      <point x="305" y="354"/>
      <point x="261" y="297"/>
      <point x="261" y="214" type="curve" smooth="yes"/>
      <point x="261" y="146"/>
      <point x="300" y="95"/>
      <point x="339" y="61" type="curve"/>
      <point x="339" y="131" type="line"/>
      <point x="278" y="131" type="line" smooth="yes"/>
      <point x="213" y="131"/>
      <point x="184" y="181"/>
      <point x="184" y="263" type="curve" smooth="yes"/>
      <point x="184" y="337"/>
      <point x="212" y="389"/>
      <point x="296" y="389" type="curve" smooth="yes"/>
      <point x="401" y="389" type="line" smooth="yes"/>
      <point x="520" y="389"/>
      <point x="589" y="465"/>
      <point x="589" y="603" type="curve"/>
      <point x="429" y="625" type="line"/>
      <point x="429" y="561"/>
      <point x="409" y="521"/>
      <point x="352" y="521" type="curve" smooth="yes"/>
      <point x="277" y="521" type="line" smooth="yes"/>
      <point x="124" y="521"/>
      <point x="29" y="437"/>
      <point x="29" y="263" type="curve" smooth="yes"/>
      <point x="29" y="106"/>
      <point x="94" y="0"/>
    </contour>
    <contour>
      <point x="399" y="208" type="curve" smooth="yes"/>
      <point x="375" y="208"/>
      <point x="360" y="224"/>
      <point x="360" y="251" type="curve" smooth="yes"/>
      <point x="360" y="278"/>
      <point x="374" y="294"/>
      <point x="399" y="294" type="curve" smooth="yes"/>
      <point x="423" y="294"/>
      <point x="437" y="278"/>
      <point x="437" y="251" type="curve" smooth="yes"/>
      <point x="437" y="225"/>
      <point x="423" y="208"/>
    </contour>
  </outline>
</glyph>
<glyph name="five-thai" format="2">
  <advance width="606"/>
  <unicode hex="0E55"/>
  <outline>
    <contour>
      <point x="278" y="0" type="curve" smooth="yes"/>
      <point x="554" y="0" type="line"/>
      <point x="554" y="127" type="line"/>
      <point x="472" y="131" type="line" smooth="yes"/>
      <point x="431" y="133"/>
      <point x="412" y="138"/>
      <point x="412" y="170" type="curve" smooth="yes"/>
      <point x="412" y="178" type="line"/>
      <point x="359" y="178"/>
      <point x="327" y="207"/>
      <point x="327" y="254" type="curve"/>
      <point x="298" y="254" type="line"/>
      <point x="298" y="184"/>
      <point x="350" y="149"/>
      <point x="409" y="149" type="curve" smooth="yes"/>
      <point x="464" y="149"/>
      <point x="499" y="194"/>
      <point x="499" y="251" type="curve" smooth="yes"/>
      <point x="499" y="308"/>
      <point x="460" y="354"/>
      <point x="392" y="354" type="curve" smooth="yes"/>
      <point x="305" y="354"/>
      <point x="261" y="297"/>
      <point x="261" y="214" type="curve" smooth="yes"/>
      <point x="261" y="146"/>
      <point x="300" y="95"/>
      <point x="339" y="61" type="curve"/>
      <point x="339" y="131" type="line"/>
      <point x="278" y="131" type="line" smooth="yes"/>
      <point x="213" y="131"/>
      <point x="184" y="181"/>
      <point x="184" y="263" type="curve" smooth="yes"/>
      <point x="184" y="337"/>
      <point x="220" y="389"/>
      <point x="301" y="389" type="curve" smooth="yes"/>
      <point x="412" y="389" type="line" smooth="yes"/>
      <point x="527" y="389"/>
      <point x="593" y="466"/>
      <point x="593" y="603" type="curve"/>
      <point x="437" y="625" type="line"/>
      <point x="433" y="559"/>
      <point x="424" y="517"/>
      <point x="373" y="517" type="curve" smooth="yes"/>
      <point x="349" y="517" type="line"/>
      <point x="379" y="463" type="line"/>
      <point x="391" y="485"/>
      <point x="397" y="512"/>
      <point x="397" y="533" type="curve" smooth="yes"/>
      <point x="397" y="604"/>
      <point x="351" y="650"/>
      <point x="287" y="650" type="curve" smooth="yes"/>
      <point x="223" y="650"/>
      <point x="171" y="604"/>
      <point x="171" y="533" type="curve" smooth="yes"/>
      <point x="171" y="509"/>
      <point x="178" y="485"/>
      <point x="192" y="463" type="curve"/>
      <point x="226" y="519" type="line"/>
      <point x="101" y="503"/>
      <point x="29" y="424"/>
      <point x="29" y="263" type="curve" smooth="yes"/>
      <point x="29" y="106"/>
      <point x="94" y="0"/>
    </contour>
    <contour>
      <point x="399" y="208" type="curve" smooth="yes"/>
      <point x="375" y="208"/>
      <point x="360" y="224"/>
      <point x="360" y="251" type="curve" smooth="yes"/>
      <point x="360" y="278"/>
      <point x="374" y="294"/>
      <point x="399" y="294" type="curve" smooth="yes"/>
      <point x="423" y="294"/>
      <point x="437" y="278"/>
      <point x="437" y="251" type="curve" smooth="yes"/>
      <point x="437" y="225"/>
      <point x="423" y="208"/>
    </contour>
    <contour>
      <point x="286" y="487" type="curve" smooth="yes"/>
      <point x="278" y="487"/>
      <point x="267" y="489"/>
      <point x="259" y="492" type="curve"/>
      <point x="253" y="502"/>
      <point x="249" y="515"/>
      <point x="249" y="532" type="curve" smooth="yes"/>
      <point x="249" y="560"/>
      <point x="262" y="580"/>
      <point x="287" y="580" type="curve" smooth="yes"/>
      <point x="310" y="580"/>
      <point x="325" y="560"/>
      <point x="325" y="532" type="curve" smooth="yes"/>
      <point x="325" y="511"/>
      <point x="314" y="487"/>
    </contour>
  </outline>
</glyph>
<glyph name="six-thai" format="2">
  <advance width="535"/>
  <unicode hex="0E56"/>
  <outline>
    <contour>
      <point x="268" y="-15" type="curve" smooth="yes"/>
      <point x="439" y="-15"/>
      <point x="507" y="124"/>
      <point x="507" y="268" type="curve" smooth="yes"/>
      <point x="507" y="411"/>
      <point x="445" y="536"/>
      <point x="300" y="536" type="curve" smooth="yes"/>
      <point x="226" y="536"/>
      <point x="162" y="491"/>
      <point x="143" y="430" type="curve"/>
      <point x="160" y="430" type="line"/>
      <point x="161" y="439"/>
      <point x="162" y="452"/>
      <point x="162" y="467" type="curve" smooth="yes"/>
      <point x="162" y="522"/>
      <point x="147" y="587"/>
      <point x="128" y="625" type="curve"/>
      <point x="8" y="590" type="line"/>
      <point x="44" y="522"/>
      <point x="66" y="426"/>
      <point x="80" y="329" type="curve"/>
      <point x="172" y="329" type="line"/>
      <point x="188" y="366"/>
      <point x="213" y="399"/>
      <point x="267" y="399" type="curve" smooth="yes"/>
      <point x="326" y="399"/>
      <point x="351" y="346"/>
      <point x="351" y="268" type="curve" smooth="yes"/>
      <point x="351" y="189"/>
      <point x="326" y="122"/>
      <point x="278" y="122" type="curve" smooth="yes"/>
      <point x="260" y="122"/>
      <point x="254" y="123"/>
      <point x="239" y="126" type="curve"/>
      <point x="148" y="42" type="line"/>
      <point x="156" y="33"/>
      <point x="166" y="27"/>
      <point x="182" y="27" type="curve" smooth="yes"/>
      <point x="251" y="27"/>
      <point x="279" y="78"/>
      <point x="279" y="136" type="curve" smooth="yes"/>
      <point x="279" y="201"/>
      <point x="239" y="242"/>
      <point x="182" y="242" type="curve" smooth="yes"/>
      <point x="120" y="242"/>
      <point x="80" y="201"/>
      <point x="80" y="135" type="curve" smooth="yes"/>
      <point x="80" y="37"/>
      <point x="171" y="-15"/>
    </contour>
    <contour>
      <point x="182" y="91" type="curve" smooth="yes"/>
      <point x="160" y="91"/>
      <point x="146" y="108"/>
      <point x="146" y="137" type="curve" smooth="yes"/>
      <point x="146" y="165"/>
      <point x="160" y="182"/>
      <point x="182" y="182" type="curve" smooth="yes"/>
      <point x="203" y="182"/>
      <point x="218" y="166"/>
      <point x="218" y="137" type="curve" smooth="yes"/>
      <point x="218" y="108"/>
      <point x="203" y="91"/>
    </contour>
    <contour>
      <point x="156" y="473" type="line"/>
      <point x="156" y="463" type="line"/>
      <point x="173" y="460" type="line"/>
      <point x="173" y="470" type="line"/>
    </contour>
  </outline>
</glyph>
<glyph name="seven-thai" format="2">
  <advance width="791"/>
  <unicode hex="0E57"/>
  <outline>
    <contour>
      <point x="168" y="-10" type="curve" smooth="yes"/>
      <point x="238" y="-10"/>
      <point x="278" y="38"/>
      <point x="278" y="97" type="curve" smooth="yes"/>
      <point x="278" y="154"/>
      <point x="243" y="203"/>
      <point x="189" y="203" type="curve" smooth="yes"/>
      <point x="122" y="203"/>
      <point x="80" y="173"/>
      <point x="80" y="97" type="curve"/>
      <point x="101" y="97" type="line"/>
      <point x="101" y="153"/>
      <point x="137" y="187"/>
      <point x="199" y="187" type="curve"/>
      <point x="199" y="356" type="line" smooth="yes"/>
      <point x="199" y="383"/>
      <point x="205" y="399"/>
      <point x="224" y="399" type="curve" smooth="yes"/>
      <point x="242" y="399"/>
      <point x="247" y="383"/>
      <point x="247" y="356" type="curve" smooth="yes"/>
      <point x="247" y="214" type="line"/>
      <point x="352" y="214" type="line"/>
      <point x="352" y="356" type="line" smooth="yes"/>
      <point x="352" y="383"/>
      <point x="358" y="399"/>
      <point x="375" y="399" type="curve" smooth="yes"/>
      <point x="391" y="399"/>
      <point x="398" y="386"/>
      <point x="398" y="356" type="curve" smooth="yes"/>
      <point x="398" y="0" type="line"/>
      <point x="588" y="0" type="line" smooth="yes"/>
      <point x="694" y="0"/>
      <point x="735" y="69"/>
      <point x="735" y="185" type="curve" smooth="yes"/>
      <point x="735" y="420" type="line" smooth="yes"/>
      <point x="735" y="485"/>
      <point x="740" y="529"/>
      <point x="759" y="585" type="curve"/>
      <point x="612" y="625" type="line"/>
      <point x="592" y="562"/>
      <point x="587" y="515"/>
      <point x="587" y="440" type="curve" smooth="yes"/>
      <point x="587" y="177" type="line" smooth="yes"/>
      <point x="587" y="139"/>
      <point x="576" y="135"/>
      <point x="557" y="135" type="curve" smooth="yes"/>
      <point x="544" y="135" type="line"/>
      <point x="544" y="351" type="line" smooth="yes"/>
      <point x="544" y="469"/>
      <point x="505" y="536"/>
      <point x="415" y="536" type="curve" smooth="yes"/>
      <point x="331" y="536"/>
      <point x="287" y="463"/>
      <point x="285" y="402" type="curve"/>
      <point x="309" y="402" type="line"/>
      <point x="307" y="463"/>
      <point x="267" y="536"/>
      <point x="185" y="536" type="curve" smooth="yes"/>
      <point x="93" y="536"/>
      <point x="49" y="469"/>
      <point x="49" y="351" type="curve" smooth="yes"/>
      <point x="49" y="144" type="line" smooth="yes"/>
      <point x="49" y="36"/>
      <point x="99" y="-10"/>
    </contour>
    <contour>
      <point x="176" y="51" type="curve" smooth="yes"/>
      <point x="151" y="51"/>
      <point x="137" y="68"/>
      <point x="137" y="97" type="curve" smooth="yes"/>
      <point x="137" y="126"/>
      <point x="151" y="143"/>
      <point x="176" y="143" type="curve" smooth="yes"/>
      <point x="201" y="143"/>
      <point x="215" y="125"/>
      <point x="215" y="97" type="curve" smooth="yes"/>
      <point x="215" y="68"/>
      <point x="201" y="51"/>
    </contour>
    <contour>
      <point x="290" y="461" type="line"/>
      <point x="290" y="450" type="line"/>
      <point x="305" y="450" type="line"/>
      <point x="305" y="461" type="line"/>
    </contour>
  </outline>
</glyph>
